<?xml version="1.0" encoding="UTF-8"?>
<svg id="uuid-a7acf43f-712a-4fc5-8f46-2b5b7b6998c4" data-name="Layer 1" xmlns="http://www.w3.org/2000/svg" viewBox="0 0 4000 4000">
  <defs>
    <style>
      .uuid-c4340a48-f690-4ee8-a3ba-64bde3e9ee35 {
        opacity: .5;
      }

      .uuid-7dc36ecb-b6ba-4e4b-a71a-4e7011d5a069 {
        opacity: .6;
      }

      .uuid-8f68c872-3154-41ed-bfdc-d123d525286d {
        fill: #220f2d;
      }

      .uuid-8f68c872-3154-41ed-bfdc-d123d525286d, .uuid-0159ced6-7d9e-4fe9-b1b4-30c12b359144, .uuid-ce48846d-6873-4a29-b05d-b84f9a85975a, .uuid-091353a4-bfa9-4005-8fd6-d61244f91fb7, .uuid-6985ecb0-ad57-46f7-bf77-200675ff99c7, .uuid-f8ef3708-4048-4d13-9988-2293ee0ecb5c, .uuid-02008150-8e75-473c-94af-eded2f7283db, .uuid-369ae9b1-229c-47cf-9891-6138ba4383ba, .uuid-9754ebe3-a217-45b5-b444-bfcad22a34af, .uuid-dde293b3-536d-4b7d-95c9-3587bfa62dde {
        stroke-width: 0px;
      }

      .uuid-3f4fcd18-5ea8-4745-b197-9dbe1879725d {
        opacity: .35;
      }

      .uuid-0159ced6-7d9e-4fe9-b1b4-30c12b359144 {
        fill: #293856;
      }

      .uuid-ce48846d-6873-4a29-b05d-b84f9a85975a {
        fill: #371a45;
      }

      .uuid-091353a4-bfa9-4005-8fd6-d61244f91fb7 {
        fill: #ffec90;
      }

      .uuid-6985ecb0-ad57-46f7-bf77-200675ff99c7 {
        fill: #fff;
      }

      .uuid-b45366eb-bed3-44c4-aca8-e1ce74af0b6d {
        opacity: .3;
      }

      .uuid-5c81ef0c-5735-4eb4-b602-71198819b6b8 {
        opacity: .41;
      }

      .uuid-f8ef3708-4048-4d13-9988-2293ee0ecb5c {
        fill: #81b1ff;
      }

      .uuid-02008150-8e75-473c-94af-eded2f7283db {
        fill: #ffcc4d;
      }

      .uuid-369ae9b1-229c-47cf-9891-6138ba4383ba {
        fill: #d66b09;
      }

      .uuid-9754ebe3-a217-45b5-b444-bfcad22a34af {
        fill: #22a7f0;
      }

      .uuid-dde293b3-536d-4b7d-95c9-3587bfa62dde {
        fill: #ffb200;
      }

      .uuid-1840697e-3976-4b89-a509-64d508025548 {
        opacity: .25;
      }
    </style>
  </defs>
  <rect class="uuid-f8ef3708-4048-4d13-9988-2293ee0ecb5c" width="4000" height="4000" transform="translate(4000 4000) rotate(180)"/>
  <g>
    <path class="uuid-ce48846d-6873-4a29-b05d-b84f9a85975a" d="m2199.6,2245.94c-6.8,0-12.31-5.51-12.31-12.31v-914.05c0-6.8,5.51-12.31,12.31-12.31s12.31,5.51,12.31,12.31v914.05c0,6.8-5.51,12.31-12.31,12.31Z"/>
    <g>
      <path class="uuid-6985ecb0-ad57-46f7-bf77-200675ff99c7" d="m1663.27,2618.75s-303.1,78.98-313.91,197.89c-9.43,103.69,104.23,453.29,170.98,491.7,48.69,28.01,195.49-23.36,195.49-23.36l-52.56-666.23Z"/>
      <g class="uuid-3f4fcd18-5ea8-4745-b197-9dbe1879725d">
        <path class="uuid-ce48846d-6873-4a29-b05d-b84f9a85975a" d="m1348.85,2836.05c3.49,122.05,108.44,436.01,171.48,472.27,48.7,28.02,195.48-23.35,195.48-23.35l-23.31-135.98s-146.78,51.38-195.48,23.35c-45.53-26.2-112.91-197.31-148.16-336.29Z"/>
      </g>
      <path class="uuid-ce48846d-6873-4a29-b05d-b84f9a85975a" d="m1580.87,3328.18c-31.48,0-63.16-6.79-89.44-26.21-72.58-53.62-163.22-380.53-157.05-486.21,5.9-101.04,191.14-163.23,199.02-165.83,7.91-2.6,16.35,1.69,18.94,9.55,2.59,7.86-1.68,16.34-9.54,18.94-48.32,15.96-174.56,72.06-178.47,139.09-5.91,101.2,86.58,417.23,144.92,460.33,70.97,52.43,202.12-12.56,203.44-13.23,7.38-3.72,16.41-.75,20.14,6.66,3.73,7.4.75,16.42-6.66,20.14-4.19,2.11-74.21,36.77-145.31,36.77Z"/>
      <path class="uuid-6985ecb0-ad57-46f7-bf77-200675ff99c7" d="m2012.19,2657.32s-13.23,107.25,33.26,33.7c42.43-67.18,95.25-179.19,141.86-361.82.39-1.48.79-3.01,1.18-4.5,0,0,21-1.83,46.75-14.71,60.72-30.34,47.71-148.59,35.97-188.79-13.79-47.36-46.4-34.57-46.4-34.57-11.44-18.73-34-28.68-72.02-28.11-71.37,1.05-85.9,58.75-85.9,58.75-65.43,196.91-145.14,318.26-192.59,378.71-25.1,32.08-41.16,47.01-41.16,47.01l179.05,114.32Z"/>
      <g class="uuid-3f4fcd18-5ea8-4745-b197-9dbe1879725d">
        <path class="uuid-ce48846d-6873-4a29-b05d-b84f9a85975a" d="m2012.19,2657.32s-13.23,107.25,33.26,33.7c42.43-67.18,95.25-179.19,141.86-361.82-15.63-3.8-38.63-10.96-50.77-21.78-30.38-27.15-35.88-89.7-35.88-89.7-12.57,60.33,0,95.64,14.67,115.54,15.8,21.39,20.65,49.02,11.44,73.99-13.4,36.27-30.29,75.73-57.05,101.23-61.46,58.54-147.15,32.3-195.42-12.48-25.1,32.08-41.16,47.01-41.16,47.01l179.05,114.32Z"/>
      </g>
      <g class="uuid-3f4fcd18-5ea8-4745-b197-9dbe1879725d">
        <path class="uuid-ce48846d-6873-4a29-b05d-b84f9a85975a" d="m2209.7,2320.14s-55.42,20.25-92.33-63.53c0,0,21.31,10.63,73.86,7.94,52.18-2.68,87.58-52.35,87.58-52.35,0,0,3.62,90.29-69.11,107.93Z"/>
      </g>
      <path class="uuid-ce48846d-6873-4a29-b05d-b84f9a85975a" d="m1840.71,2544.62c-4.3,0-8.57-1.78-11.63-5.27-5.63-6.42-4.99-16.18,1.43-21.81,1.81-1.61,124.43-112.75,221.53-404.63,6.36-24.09,35.23-68.87,100.52-69.85,36.88-.52,62.67,8.12,78.8,26.48,16.87,19.21,21.95,47.12,16.02,87.86-5.85,40.21-33.09,68.36-63.27,65.55-27.74-2.6-56.24-32.66-53-109.23.36-8.53,7.47-15.1,16.1-14.79,8.53.36,15.15,7.57,14.79,16.1-2.16,51.19,11.45,75.87,25,77.14,11.46.97,26.05-13.62,29.79-39.22,4.47-30.67,1.64-51.28-8.66-63-9.65-11-28.21-16.38-55.11-15.97-58.83.87-71.04,46.63-71.16,47.09l-.32,1.1c-100.34,301.91-225.37,413.99-230.64,418.62-2.93,2.57-6.57,3.83-10.19,3.83Z"/>
      <path class="uuid-ce48846d-6873-4a29-b05d-b84f9a85975a" d="m1964.87,2799.86c-5.33,0-10.51-2.76-13.38-7.7-4.29-7.38-1.78-16.85,5.6-21.13,1.1-.66,121.99-77.36,216.4-450.12l2.7-10.65,10.94-.96c.12,0,18.71-1.89,41.2-13.14,48.37-24.18,39.79-130.4,28.07-170.62-3.52-12.07-8.63-20.14-14.79-23.34-5.68-2.96-11.24-1.13-11.48-1.05-7.94,3.13-16.76-.86-19.88-8.8-3.12-7.95.95-16.98,8.9-20.09,1.8-.71,18.09-6.65,35.77,2.04,14.51,7.12,24.99,21.46,31.15,42.6,14.75,50.57,24.16,172.89-43.92,206.93-16.62,8.31-31.57,12.46-41.2,14.48-98.03,379.99-223.02,456.38-228.33,459.46-2.45,1.42-5.12,2.09-7.75,2.1Z"/>
      <path class="uuid-ce48846d-6873-4a29-b05d-b84f9a85975a" d="m2177.72,2340.42c-19.39,0-35.59-6.24-48.28-18.63-24.47-23.9-33.49-68.94-26.82-133.87,6.52-63.44,34.96-73.44,40.59-74.8l7.04,29.16s.42-.03,1.11-.33c-.14.06-14.56,6.79-18.9,49.04-5.53,53.81.83,92.64,17.93,109.34,8.59,8.4,20.43,11.5,36.18,9.51,8.2-.99,15.72,4.78,16.77,13,1.04,8.22-4.78,15.72-13,16.77-4.35.55-8.56.83-12.64.83Z"/>
      <path class="uuid-6985ecb0-ad57-46f7-bf77-200675ff99c7" d="m1545.28,2973.16c7.29,15.13,12.82,30.76,17.44,46.76,14.54,49.93,20.3,103.12,43.13,153.59,5.66,12.5,12.55,23.33,19.66,32.44,2.22,2.85,4.44,5.53,6.66,8.06,16.81,19.07,32.57,28.59,32.57,28.59.09,4.98.45,11.33.68,18.89,1,31.08.63,83.14-21.79,148.06-1.63,4.8-3.35,9.65-5.3,14.54-15.04,39.01-5.94,165.28,10.51,194.09,47.25,83.09,165.68,70.45,199.39,13.73,30.49-51.47,17.71-151.32,11.96-186.43-1.31-8.02-2.27-12.64-2.27-12.64,31.26-65.42,58.13-153.27,58.13-219.1,0,0,8.43,1.4,19.84,1.54l-.05,2.17c4.49,40.73-3.08,110.27-17.9,173.84-1.63,7.02-3.35,14-5.16,20.84-8.74,32.98,7.48,137.28,51.06,189.11,50.52,60.17,161.2,39.14,183.4-5.75,26.73-53.91-8.2-144.44-21.57-175.29-2.99-6.84-4.89-10.69-4.89-10.69,55.73-131.89,58.99-244.7,49.11-358.69-15.59-178.69-86.67-319.36-159.7-416.23-4.58-6.07-9.38-12.01-14.27-17.85-6.21-7.38-12.64-14.59-18.94-21.48-11.19-12.14-22.11-23.38-31.4-33.25l-12.73,10.78-20.7,4.8-343.51,80.01-2.99,40.32-1.31,18.08-2.85,38.83-7.25,97.54-4.3,58.35-3.58,47.93-1.09,14.5Z"/>
      <g class="uuid-3f4fcd18-5ea8-4745-b197-9dbe1879725d">
        <path class="uuid-ce48846d-6873-4a29-b05d-b84f9a85975a" d="m1963.87,3601.27c50.5,60.15,161.2,39.15,183.42-5.76,26.71-53.91-8.21-144.44-21.61-175.3-1.66.83-2.53,1.09-2.53,1.09,0,0,50.55,93.5-4.5,143.61-43.39,39.55-113.4,27.02-142.13-25.49-35.01-64.08-39.55-179.19-39.55-179.19l-18.99,31.08c-1.66,7.03-3.36,14.01-5.19,20.86-8.73,32.96,7.51,137.24,51.07,189.09Z"/>
      </g>
      <g class="uuid-b45366eb-bed3-44c4-aca8-e1ce74af0b6d">
        <path class="uuid-0159ced6-7d9e-4fe9-b1b4-30c12b359144" d="m1774.38,3465.86l2.62-.61c-1.22.22-2.14.44-2.62.61Z"/>
      </g>
      <g class="uuid-b45366eb-bed3-44c4-aca8-e1ce74af0b6d">
        <path class="uuid-0159ced6-7d9e-4fe9-b1b4-30c12b359144" d="m1773.86,3465.99l.52-.13c-.35.09-.52.13-.52.13Z"/>
      </g>
      <g class="uuid-3f4fcd18-5ea8-4745-b197-9dbe1879725d">
        <path class="uuid-ce48846d-6873-4a29-b05d-b84f9a85975a" d="m1648.84,3618.2c47.27,83.11,165.7,70.45,199.4,13.75,30.51-51.51,17.72-151.34,11.96-186.48l-82.98,19.73c11.44-2.18,48.41-4.36,50.68,57.66,1.53,40.73-5.02,86.08-59.45,93.28-133.75,17.59-123.71-117.64-117.68-194.33,1.18-15.32-1.7-17.94-7.11-12.27-1.62,4.8-3.36,9.65-5.28,14.58-15.06,38.98-5.94,165.26,10.48,194.07Z"/>
      </g>
      <g class="uuid-3f4fcd18-5ea8-4745-b197-9dbe1879725d">
        <path class="uuid-ce48846d-6873-4a29-b05d-b84f9a85975a" d="m1881.95,3395.77s-30.58,62.64-110.44,75.39c-7.76,1.24-11.29-9.32-4.36-13.03,31.06-16.61,76.4-58.6,88.78-115.92,10.61-49.14,6.16-97.14.16-129.97-4.04-22.11,12.2-42.7,34.65-43.72,40.35-1.83,98.88-6.46,137.35-18.15,25.82-7.84,52.49-18.58,75.23-38.24,9.24-7.99,23.55-2.01,24.3,10.18.74,11.9-.23,24.13-5.91,30.29-21.62,23.42-123.01,52.62-205.78,69.86,0,0-1.64,37.65-13.68,87.78-13.62,56.71-20.28,85.52-20.28,85.52Z"/>
      </g>
      <g class="uuid-3f4fcd18-5ea8-4745-b197-9dbe1879725d">
        <path class="uuid-ce48846d-6873-4a29-b05d-b84f9a85975a" d="m1935.89,3217.49s119.72-18.88,177.77-74.93c0,0-5.72,71.74-109.1,128.1-46.21,25.19-66.96,56.92-80.91,100.59,0,0,19.68-98.42,12.23-153.76Z"/>
      </g>
      <path class="uuid-ce48846d-6873-4a29-b05d-b84f9a85975a" d="m2052.34,3653.42c-40.64,0-77.06-15.23-99.96-42.51-47.32-56.35-63.63-166.63-54.11-202.58,17.79-67.2,27.35-146.77,22.72-189.2-.9-8.24,5.05-15.64,13.29-16.54,8.25-.9,15.63,5.05,16.54,13.29,5.05,46.37-4.63,128.67-23.54,200.13-7.11,26.85,6.53,126.15,48.07,175.61,20.08,23.91,55.01,35.41,93.42,30.82,30.34-3.64,57.1-17.45,65.09-33.57,23.97-48.43-11.02-141.11-26.52-172.74l-3.01-6.14,2.66-6.31c57.26-135.44,56.89-249,47.97-351.54-12.31-141.48-49.77-254.51-117.85-355.72-4.62-6.88-2.8-16.2,4.07-20.82,6.88-4.63,16.2-2.79,20.82,4.07,71.04,105.6,110.07,223.13,122.84,369.87,9.13,104.83,9.57,220.91-47.64,359.63,12.09,26.63,54.87,129.7,23.54,193.01-12.8,25.86-46.67,45.04-88.4,50.05-6.75.81-13.44,1.21-20,1.21Z"/>
      <path class="uuid-ce48846d-6873-4a29-b05d-b84f9a85975a" d="m1993.23,2610.46c7.56,4.57,14.5,9.68,21.32,14.93,6.73,5.32,13.27,10.84,19.54,16.63,6.26,5.8,12.49,11.69,17.93,18.27,5.45,6.57,10.52,13.55,14.24,21.59,3.53,7.64.19,16.68-7.45,20.21-5.88,2.71-12.61,1.36-16.99-2.9l-.21-.22c-5.83-5.69-10.74-12.14-15.45-18.85-4.73-6.69-8.89-13.91-13.12-21.14-4.23-7.23-8.3-14.64-12.24-22.2-3.86-7.63-7.66-15.34-10.84-23.58-.45-1.17.13-2.48,1.29-2.93.68-.26,1.41-.17,1.99.18Z"/>
      <path class="uuid-6985ecb0-ad57-46f7-bf77-200675ff99c7" d="m1576.69,2948.73l11.57,32.17-.87-14.75c-2.88-5.94-6.37-11.79-10.69-17.42Z"/>
      <path class="uuid-ce48846d-6873-4a29-b05d-b84f9a85975a" d="m1754.13,3692.5c-.47,0-.93,0-1.4,0-50.38-.46-93-24.83-116.93-66.87-18.26-32.09-28.29-163.24-11.44-206.9,29.32-75.95,27.01-134.44,25.77-165.87-.03-.72-.06-1.43-.08-2.12-12.92-9.47-40.68-33.02-57.86-71.02-16.25-35.95-22.53-77.18-28.6-117.05-6.58-43.18-12.79-83.98-30.81-111.4-4.55-6.92-2.62-16.23,4.3-20.78,6.93-4.54,16.23-2.62,20.78,4.3,21.61,32.91,28.3,76.84,35.39,123.36,5.77,37.87,11.73,77.02,26.28,109.21,18.52,40.97,52.72,62.28,53.06,62.49l6.99,4.28.21,8.22c.06,2.7.18,5.81.32,9.32,1.24,31.2,3.8,96.12-27.75,177.86-13.4,34.73-4.63,156.39,9.52,181.26,18.5,32.5,51.72,51.35,91.13,51.71,35.65.44,68.56-15.03,82.32-38.21,34.08-57.39,8.2-187.1,7.93-188.4l-1.01-4.93,2.17-4.54c34.53-72.2,54.34-146.53,54.34-203.93,0-8.29,6.71-15,15-15s15,6.71,15,15c0,60.51-20.06,137.68-55.15,212.39,4.79,26.04,23.71,143.76-12.49,204.72-19.14,32.23-61.02,52.91-106.99,52.91Z"/>
      <path class="uuid-ce48846d-6873-4a29-b05d-b84f9a85975a" d="m1908.86,3205.7c8.45-2.61,16.97-4.82,25.53-6.88,8.47-2.34,17.02-4.4,25.55-6.48,16.95-4.51,34.1-8.44,50.93-13.43,16.88-4.83,33.69-10.06,50.17-16.23,16.44-6.13,33.01-12.75,48.23-21.49l.13-.08c.86-.49,1.95-.2,2.45.66.41.71.27,1.58-.27,2.14-6.51,6.67-13.75,12.13-21.16,17.47-7.39,5.38-15.17,10.12-23.02,14.76-15.78,9.13-32.24,17.02-49.03,24.01-16.76,7.11-33.9,13.2-51.31,18.34-8.72,2.49-17.5,4.72-26.33,6.79-8.86,1.86-17.76,3.56-26.72,4.87-6.84,1-13.2-3.74-14.2-10.59-.9-6.19,2.9-11.99,8.7-13.77l.35-.11Z"/>
      <path class="uuid-ce48846d-6873-4a29-b05d-b84f9a85975a" d="m2214.99,2717.73c-10.94,0-18-1.56-18.26-1.62-6.72-1.58-10.88-8.32-9.3-15.03,1.58-6.72,8.25-10.87,15.03-9.3,3.07.69,76.61,16,106.67-83.26,17.91-59.12-23.12-113.4-62.78-165.9-30.47-40.33-59.26-78.42-59.26-117.27,0-6.9,5.6-12.5,12.5-12.5s12.5,5.6,12.5,12.5c0,30.46,26.33,65.31,54.2,102.2,41.42,54.8,88.35,116.93,66.76,188.22-27.23,89.91-87.64,101.97-118.07,101.97Z"/>
      <path class="uuid-6985ecb0-ad57-46f7-bf77-200675ff99c7" d="m2101.42,3015.41c-16.45,8.65-35.02,18.03-55.18,27.64,12.41-4.85,23.79-9.47,33.89-13.68,8.06-3.4,15.27-8.16,21.29-13.95Z"/>
      <path class="uuid-ce48846d-6873-4a29-b05d-b84f9a85975a" d="m1768.82,3464.22c9.81-2.74,19.28-6.35,28.06-10.72,8.83-4.27,17.06-9.33,24.5-15.1,7.48-5.72,14.23-12.05,20.41-18.84,1.48-1.76,3.27-3.2,4.64-5.07,1.43-1.8,2.93-3.54,4.47-5.25,3.03-3.47,5.61-7.33,8.93-10.75l1.15-1.19c4.8-4.95,12.71-5.08,17.67-.28,4.01,3.88,4.84,9.82,2.48,14.56-5.03,10.06-11.76,19.43-20.16,27.15-8.1,8.03-17.96,14.12-28.03,19.01-10.1,4.94-20.85,8.22-31.66,9.97-10.84,1.69-21.73,2.06-32.47.07-.98-.18-1.63-1.13-1.45-2.11.13-.7.65-1.23,1.29-1.41l.17-.05Z"/>
      <path class="uuid-ce48846d-6873-4a29-b05d-b84f9a85975a" d="m2042.12,3447.17c18.11-8.44,34.31-19.33,47.37-32.3,6.59-6.44,12.36-13.42,17.6-20.65,5.55-7.05,9.82-14.83,15.16-22.32l.67-.94c4.01-5.63,11.83-6.95,17.47-2.94,4.69,3.34,6.38,9.32,4.51,14.48-3.76,10.34-9.27,20.2-16.57,28.59-6.99,8.65-15.8,15.68-24.99,21.56-9.2,5.93-19.13,10.44-29.34,13.54-10.24,3.03-20.68,4.88-31.33,4.51-1-.03-1.78-.87-1.75-1.88.02-.71.45-1.3,1.04-1.58l.16-.07Z"/>
      <path class="uuid-6985ecb0-ad57-46f7-bf77-200675ff99c7" d="m1415.03,3393.97c27.91,8.06,148.65,32.44,145.34-81.14-.68-23.97-8.47-62.61-7.93-62.66.54-.05,64.11,32.76,82.09-1.81,6.52-12.55,4.53-24.1-2.36-34.34-1.86-2.76-4.12-5.48-6.66-8.06-21.88-22.29-65.6-36.74-84.18-39.14,0,0,.14-1.54.41-4.39,1.63-17.53,8.43-84.5,20.98-142.49,6.8-31.31,15.27-60.03,25.51-76.93l-8.88-62.43-4.12-29.18-13.73-96.55-6.93-48.61c-1.59,0-107.92.45-148.83,122.51-.09.23-.14.45-.23.68-24.47,73.71-29.31,209.81-17.62,394.89,3.31,52.33-31.85,152.55,27.14,169.67Z"/>
      <g class="uuid-3f4fcd18-5ea8-4745-b197-9dbe1879725d">
        <path class="uuid-ce48846d-6873-4a29-b05d-b84f9a85975a" d="m1525.62,3180.94c4.94,3.49,10.51-5.03,16.13-18.53,1.63-17.53,8.43-84.5,20.98-142.49,14.54,49.93,20.3,103.12,43.13,153.59,5.66,12.5,12.55,23.33,19.66,32.44,2.22,2.85,4.44,5.53,6.66,8.06,16.81,19.07,32.57,28.59,32.57,28.59.09,4.98.45,11.33.68,18.89l17.26-1.99s1.41-33.05-2.98-71.69c-2.3-20.26,11.47-38.66,31.55-42.22,33.77-5.99,75.97-18.74,126.16-43.66,0,0,25.42-63.38-27.14-81.69,0,0-90.88,58.49-172.48,46.44-15.22-34.66-28.36-81.6-20.8-152,5.53-51.33-11.24-52.28-29.4-40.46-2.99,1.99-5.75,4.08-8.25,6.34-17.49,15.54-23.79,37.69-29.86,65.06-.86,3.94-1.95,8.29-3.13,13.05-9.65,38.42-28.63,101.71-36.88,171.76-7.43,63.2,16.13,50.52,16.13,50.52Z"/>
      </g>
      <path class="uuid-ce48846d-6873-4a29-b05d-b84f9a85975a" d="m1592.66,2945.69c-4.54,18.03-7.47,36.17-10.6,54.63l-4.84,27.63-4.59,27.83-8.79,56.04c-2.82,18.7-5.17,37.68-7.02,56.33l-13.49-16.75c8.12,1.22,14.99,3.06,21.96,5.1,6.91,2.07,13.65,4.45,20.29,7.13,13.27,5.43,26.24,11.9,38.58,20.9,6.14,4.56,12.17,9.71,17.52,16.4,5.27,6.64,10.13,15.05,11.74,25.17,1.62,10.12-.69,20.72-4.88,28.8-2.27,4.33-5.21,8.77-9.17,12.35-3.89,3.6-8.43,6.45-13.05,8.37-9.31,3.74-18.29,4.3-26.41,3.93-8.14-.47-15.7-1.92-22.92-3.84-7.22-1.93-14.12-4.33-20.83-7.05l-5-2.11-4.6-2.07c-1.09-.54,1.03.79,4.9,1.16.72,7.56,26.76-23.93,16.4-15.56l-.05-.89.11.8.36,2.28.81,4.9c2.21,13.3,4.35,26.79,5.74,40.75.71,6.93,1.15,14.37.96,21.77-.04,7.38-.74,14.93-2.09,22.5-2.54,15.07-9.01,30.76-19.88,43.41-10.93,12.65-25.76,21.24-40.55,25.71-14.88,4.71-29.85,6.03-44.39,5.97-14.56-.18-28.78-1.84-42.78-4.7-3.51-.74-7-1.51-10.52-2.43-1.78-.46-3.47-.9-5.41-1.5l-6.2-2.18c-8.24-3.37-16.2-9.02-22.04-16.15-5.9-7.11-9.63-15.2-12.05-22.98-2.4-7.82-3.57-15.48-4.22-22.92-1.27-14.9-.44-28.99.7-42.75,1.21-13.72,2.91-27.11,4.3-40.17,1.35-13.08,2.49-25.74,1.73-37.43l-2.29-40.23c-1.36-26.84-2.48-53.7-3.09-80.61-.61-26.91-.89-53.86-.38-80.85.47-27,1.44-54.04,3.71-81.14,2.25-27.09,5.49-54.25,11.16-81.41,1.38-6.79,3.2-13.57,4.85-20.36l3.04-10.16,1.55-5.07,1.92-4.99c2.66-6.63,4.95-13.38,7.96-19.88,3.29-6.4,6.48-12.85,9.92-19.17,3.98-6.06,7.86-12.19,12.01-18.14l6.86-8.52c2.33-2.81,4.36-5.87,7.04-8.39,5.19-5.17,9.92-10.87,15.77-15.39l8.53-7.05c3.03-2.1,6.17-4.06,9.26-6.07,12.57-7.68,26.26-13.66,40.62-16.56,7.15-1.51,14.44-2.3,21.76-2.21,7.37.13,14.47.8,21.98,3.23,2.83.92,4.38,3.96,3.47,6.79-.49,1.51-1.58,2.66-2.93,3.26l-.58.26c-12.05,5.32-23.81,10.53-34.86,15.8-2.75,1.4-5.56,2.58-8.26,3.99-2.66,1.5-5.39,2.79-8.08,4.17-2.65,1.44-5.16,3.14-7.8,4.56l-3.91,2.23-3.73,2.52c-2.51,1.64-4.97,3.33-7.54,4.9l-7.13,5.48c-5.02,3.35-9.09,7.86-13.64,11.84-4.38,4.17-8.01,9.1-12.01,13.68-3.55,4.96-6.74,10.21-10.17,15.28-24.69,42.75-31.68,95.71-36.26,147.89-2.19,26.21-3.15,52.67-3.61,79.15-.51,26.48-.22,53.04.37,79.61.6,26.57,1.7,53.16,3.05,79.74l2.27,39.88c.93,15.03-.47,29.13-1.84,42.63-1.45,13.53-3.1,26.69-4.24,39.61-1.08,12.87-1.74,25.6-.7,37.37.94,11.76,3.89,22.54,9.29,28.88,2.68,3.21,5.92,5.55,10.04,7.29l3.26,1.14c1.25.4,2.8.81,4.25,1.18,2.94.77,5.99,1.44,9.02,2.08,24.29,4.87,50.14,6.18,71.67-.47,10.75-3.27,19.82-8.85,26.46-16.46,6.52-7.7,10.95-17.52,12.84-28.76.98-5.59,1.56-11.41,1.58-17.39.16-5.98-.17-11.91-.82-18.28-1.25-12.65-3.29-25.61-5.47-38.68l-.83-5-.42-2.67-.23-1.69c-.04-.49-.1-.49-.17-2.14-10.34,8.25,15.6-23.73,16.59-15.96,4.06.44,6.38,1.85,5.48,1.4l4.55,2.05,4.24,1.79c5.67,2.3,11.44,4.3,17.14,5.82,5.7,1.53,11.35,2.54,16.57,2.84,5.2.27,9.85-.34,13-1.63,3.07-1.41,4.77-2.92,6.43-6.08,1.89-3.82,2.34-6.92,1.94-10.06-.81-6.3-7.71-14.85-17.06-21.49-9.28-6.8-20.38-12.47-31.85-17.13-5.75-2.33-11.64-4.4-17.54-6.17-5.84-1.77-11.97-3.25-17.1-3.88l-14.74-1.8,1.25-14.95c1.62-19.51,3.65-38.59,5.75-57.88,2.12-19.24,4.89-38.45,8.51-57.56l2.88-14.32,3.4-14.26c1.09-4.75,2.35-9.5,3.76-14.22,1.39-4.73,2.69-9.42,4.44-14.1,1.69-4.67,3.39-9.32,5.27-13.92,2.15-4.57,4.17-9.16,6.41-13.63,2.4-4.47,5.08-8.89,7.8-13.14,2.84-4.28,6.42-8.31,9.78-12.1,1.91-2.16,5.21-2.35,7.37-.44,1.5,1.34,2.05,3.34,1.6,5.17l-.15.61Z"/>
      <g class="uuid-3f4fcd18-5ea8-4745-b197-9dbe1879725d">
        <path class="uuid-ce48846d-6873-4a29-b05d-b84f9a85975a" d="m1415.07,3394c27.85,8.08,148.63,32.43,145.31-81.15-.31-10.26-1.31-21.52-2.58-31.78-22.79,68.18-122.33,72.09-140.77,55.15-24.52-22.52-23.38-73.78-26.52-95.09-5.59,48.98-17.26,140.73,24.56,152.86Z"/>
      </g>
      <g class="uuid-3f4fcd18-5ea8-4745-b197-9dbe1879725d">
        <path class="uuid-ce48846d-6873-4a29-b05d-b84f9a85975a" d="m2131.02,2913.26c-25.85-49.98-43.9-98.31-56.4-142.55,9.58,24.75,20.88,50.3,34.35,76.32,15.77,30.53,28.64,63.62,36.82,97.61-4.55-10.69-9.51-21.18-14.77-31.39Z"/>
      </g>
      <circle class="uuid-6985ecb0-ad57-46f7-bf77-200675ff99c7" cx="2127.08" cy="2887.98" r="49.01"/>
      <g class="uuid-3f4fcd18-5ea8-4745-b197-9dbe1879725d">
        <path class="uuid-ce48846d-6873-4a29-b05d-b84f9a85975a" d="m2173.61,2872.64c8.47,25.71-5.48,53.43-31.19,61.9s-53.44-5.52-61.91-31.22c-2.34-7.1-2.98-14.39-2.08-21.37,12.65,13.26,32.3,18.88,50.87,12.76,18.57-6.12,31.02-22.32,33.28-40.49,4.87,5.08,8.69,11.32,11.03,18.42Z"/>
      </g>
      <path class="uuid-ce48846d-6873-4a29-b05d-b84f9a85975a" d="m2127.02,2952.48c-9.95,0-19.82-2.33-28.96-6.94-15.38-7.75-26.81-21.03-32.2-37.38-5.39-16.36-4.09-33.83,3.67-49.2,7.75-15.38,21.03-26.81,37.38-32.2,33.77-11.12,70.28,7.3,81.41,41.05h0c11.12,33.76-7.3,70.28-41.05,81.41-6.64,2.19-13.45,3.27-20.24,3.27Zm.04-98.05c-3.47,0-7,.54-10.47,1.69-8.51,2.8-15.42,8.75-19.46,16.76-4.03,8-4.71,17.09-1.9,25.61,2.8,8.51,8.75,15.42,16.75,19.45,8.01,4.03,17.1,4.71,25.61,1.91,17.57-5.79,27.15-24.79,21.37-42.37-4.65-14.09-17.8-23.05-31.89-23.05Z"/>
      <path class="uuid-6985ecb0-ad57-46f7-bf77-200675ff99c7" d="m2116.61,3019.44l-240.82,95.55c-28.5,11.32-61.1-2.75-72.43-31.28l-50.84-128.15c-9.91-24.98-.35-53.07,21.34-67.27,3.06-2.03,6.39-3.75,9.94-5.16l240.78-95.54c28.54-11.33,61.13,2.73,72.43,31.28l40.29,101.49,10.59,26.65c11.33,28.54-2.78,61.11-31.28,72.43Z"/>
      <g class="uuid-3f4fcd18-5ea8-4745-b197-9dbe1879725d">
        <path class="uuid-ce48846d-6873-4a29-b05d-b84f9a85975a" d="m2116.61,3019.44l-240.82,95.55c-28.5,11.32-61.1-2.75-72.43-31.28l-50.84-128.15c-9.91-24.98-.35-53.07,21.34-67.27,17.28,3.66,28.27,6.02,28.27,6.02,52.54,98.21,102.18,137.89,230.75,89.29,55.49-20.99,86.96-43.21,104.43-63.24l10.59,26.65c11.33,28.54-2.78,61.11-31.28,72.43Z"/>
      </g>
      <path class="uuid-ce48846d-6873-4a29-b05d-b84f9a85975a" d="m1855.32,3131.43c-27.19,0-52.94-16.34-63.56-43.1l-50.86-128.17c-6.7-16.89-6.4-35.44.84-52.23,7.25-16.79,20.55-29.72,37.45-36.43l240.8-95.55c16.89-6.7,35.45-6.41,52.23.84,16.79,7.25,29.72,20.55,36.43,37.45l50.86,128.17c6.7,16.89,6.41,35.44-.84,52.23-7.25,16.79-20.55,29.72-37.45,36.43l-240.8,95.55c-8.24,3.27-16.73,4.81-25.1,4.81Zm20.49-16.43h.05-.05Zm169.24-318.85c-5.37,0-10.73,1.02-15.84,3.04l-240.8,95.55c-10.69,4.24-19.11,12.45-23.71,23.1-4.6,10.65-4.8,22.41-.56,33.1l50.86,128.17c8.8,22.19,34.03,33.08,56.2,24.27l240.8-95.55c10.69-4.24,19.11-12.45,23.71-23.1,4.6-10.66,4.8-22.41.56-33.1l-50.86-128.17c-4.24-10.69-12.44-19.11-23.1-23.71-5.56-2.4-11.41-3.6-17.26-3.6Z"/>
      <path class="uuid-6985ecb0-ad57-46f7-bf77-200675ff99c7" d="m2125.9,3014.65c-2.86,1.89-5.95,3.48-9.29,4.78l-240.82,95.55c-20.89,8.28-43.96,2.96-59.27-11.75-5.57-5.34-10.12-11.92-13.12-19.54l-22.61-56.92-7.46-18.78-20.8-52.44c-11.33-28.54,2.78-61.11,31.28-72.43l52.04-20.63c-22.19,14.04-32.07,42.43-22.07,67.67l27.45,69.23,23.41,58.96c11.32,28.5,43.93,42.6,72.43,31.28l188.84-74.98Z"/>
      <g class="uuid-3f4fcd18-5ea8-4745-b197-9dbe1879725d">
        <path class="uuid-ce48846d-6873-4a29-b05d-b84f9a85975a" d="m2125.9,3014.65c-2.86,1.89-5.95,3.48-9.29,4.78l-240.82,95.55c-28.5,11.32-61.1-2.75-72.39-31.29l-30.07-75.71c11.37,10.97,28.76,23.08,46.86,17.89,9.94-2.82,16.61-13.43,21.04-26.49l23.41,58.96c11.32,28.5,43.93,42.6,72.43,31.28l188.84-74.98Z"/>
      </g>
      <path class="uuid-ce48846d-6873-4a29-b05d-b84f9a85975a" d="m1855.35,3131.44c-9.21,0-18.42-1.89-27.16-5.67-16.79-7.25-29.73-20.56-36.42-37.46l-50.85-128.16c-6.71-16.88-6.41-35.44.84-52.23,7.25-16.78,20.55-29.72,37.44-36.44l52.02-20.63,11.3,22.18c-17.57,11.14-24.77,33.23-17.11,52.53l50.86,128.16c4.23,10.69,12.44,19.12,23.09,23.72,10.65,4.6,22.39,4.8,33.08.56l188.87-74.96,11.41,22.1c-3.64,2.36-7.53,4.35-11.57,5.93l-240.74,95.53c-8.09,3.22-16.57,4.82-25.05,4.82Zm-55.1-241.41l-11.84,4.7c-10.69,4.24-19.11,12.46-23.72,23.11-4.6,10.65-4.8,22.41-.55,33.09l50.86,128.17c4.23,10.69,12.44,19.11,23.09,23.72,10.65,4.6,22.39,4.8,33.08.56l13.39-5.31c-14.42-7.59-25.52-19.9-31.55-35.13l-50.85-128.16c-5.83-14.71-6.21-30.43-1.91-44.75Z"/>
      <path class="uuid-9754ebe3-a217-45b5-b444-bfcad22a34af" d="m1934.57,2957.62c1.85,4.75,10.14,45.7,10.14,45.7,0,0-12.15,4.74-27.06,10.56-18.63,7.27-41.27-6.13-50.55-29.93s-1.71-48.99,16.93-56.26c12.58-4.91,27.06-10.56,27.06-10.56,0,0,20.47,32.75,23.49,40.49Z"/>
      <g class="uuid-3f4fcd18-5ea8-4745-b197-9dbe1879725d">
        <path class="uuid-ce48846d-6873-4a29-b05d-b84f9a85975a" d="m1934.57,2957.62c1.85,4.75,10.14,45.7,10.14,45.7,0,0-12.15,4.74-27.06,10.56-18.63,7.27-41.27-6.13-50.55-29.93s-1.71-48.99,16.93-56.26c12.58-4.91,27.06-10.56,27.06-10.56,0,0,20.47,32.75,23.49,40.49Z"/>
      </g>
      <g>
        <path class="uuid-ce48846d-6873-4a29-b05d-b84f9a85975a" d="m1912.17,3018.33c-18.97,0-38.34-14.31-47.06-36.66-5.1-13.06-5.88-26.99-2.2-39.21,3.88-12.88,12.18-22.38,23.39-26.76l18.89-7.37c8.12-3.16,17.35-.08,21.91,7.36,11.13,18.13,17.68,29.64,19.46,34.2h0c.47,1.21,1.72,4.41,8.71,38.21,1.78,8.63-2.89,17.22-11.1,20.42l-18.8,7.33c-4.28,1.67-8.73,2.47-13.2,2.47Zm-.42-96.23c-.37,0-.74.07-1.1.21l-18.89,7.37c-6.82,2.66-11.96,8.74-14.48,17.1-2.72,9.03-2.08,19.48,1.81,29.44,7.77,19.91,26.1,31.41,40.84,25.66l18.8-7.33c1.38-.54,2.16-1.97,1.87-3.42-6.3-30.46-7.77-35.17-8-35.81-1.39-3.54-8.22-15.42-18.27-31.79-.56-.92-1.55-1.45-2.57-1.45Z"/>
        <ellipse class="uuid-9754ebe3-a217-45b5-b444-bfcad22a34af" cx="1932.9" cy="2955.22" rx="36.22" ry="46.26" transform="translate(-941.96 904.7) rotate(-21.31)"/>
        <g class="uuid-3f4fcd18-5ea8-4745-b197-9dbe1879725d">
          <path class="uuid-ce48846d-6873-4a29-b05d-b84f9a85975a" d="m1900.79,2925.67c.62,4.21,1.71,8.48,3.36,12.72,9.29,23.8,31.92,37.2,50.55,29.93,6.56-2.56,11.72-7.38,15.29-13.54,2.86,19.47-4.97,37.56-20.29,43.54-18.63,7.27-41.27-6.13-50.55-29.93-6.01-15.42-4.92-31.38,1.64-42.72Z"/>
        </g>
        <g class="uuid-7dc36ecb-b6ba-4e4b-a71a-4e7011d5a069">
          <path class="uuid-6985ecb0-ad57-46f7-bf77-200675ff99c7" d="m1961.64,2957.06c-9.29-23.8-31.92-37.2-50.55-29.93-6.61,2.58-11.8,7.44-15.37,13.67,1.88-13.27,9.08-24.27,20.37-28.67,18.63-7.27,41.27,6.13,50.55,29.93,5.99,15.35,4.93,31.26-1.56,42.58,1.22-8.63.22-18.21-3.44-27.58Z"/>
        </g>
        <path class="uuid-ce48846d-6873-4a29-b05d-b84f9a85975a" d="m1939.23,3007.77c-18.97,0-38.34-14.31-47.06-36.66-10.77-27.62-1.26-57.21,21.19-65.97,22.46-8.76,49.49,6.58,60.26,34.19,5.1,13.06,5.88,26.99,2.2,39.21-3.88,12.89-12.18,22.38-23.39,26.76-4.28,1.67-8.73,2.47-13.2,2.47Zm-12.45-90.14c-2.71,0-5.4.48-7.97,1.48-14.75,5.76-20.43,26.64-12.67,46.55,7.77,19.91,26.09,31.42,40.84,25.66,6.82-2.66,11.96-8.74,14.48-17.1,2.72-9.03,2.08-19.48-1.81-29.44-6.42-16.44-20.02-27.15-32.87-27.15Z"/>
      </g>
      <path class="uuid-ce48846d-6873-4a29-b05d-b84f9a85975a" d="m2041.38,3060.72c-5.08,0-9.86-3.13-11.72-8.17l-30.44-82.34c-3.16-8.57-1.83-18.08,3.56-25.43l21.55-29.45c.43-.59.53-1.35.26-2.03l-42.7-108.72c-2.52-6.43.64-13.68,7.07-16.21,6.42-2.51,13.68.64,16.21,7.07l42.71,108.72c3.41,8.7,2.16,18.39-3.36,25.94l-21.56,29.46c-.42.58-.53,1.33-.28,2l30.44,82.33c2.39,6.47-.91,13.67-7.39,16.06-1.43.53-2.9.78-4.34.78Z"/>
      <path class="uuid-6985ecb0-ad57-46f7-bf77-200675ff99c7" d="m1572.09,3008.78s-16.76,23.84-10.05,52.13c7.76,32.7,30.65,40.81,30.65,40.81,0,0,96.87,23.4,224.11-42.14,0,0,25.4-63.37-27.19-81.68,0,0-137.36,57.95-217.51,30.87Z"/>
      <g class="uuid-3f4fcd18-5ea8-4745-b197-9dbe1879725d">
        <path class="uuid-ce48846d-6873-4a29-b05d-b84f9a85975a" d="m1562.05,3060.92c7.75,32.67,30.63,40.78,30.63,40.78,0,0,96.86,23.42,224.13-42.13,0,0,8.34-20.89,5.53-42.09-.36,1.18-.63,1.81-.63,1.81-93,47.92-169.78,48.3-204.35,45.03-24.02-2.27-44.31-19.3-50.16-42.7-.08-.32-.16-.65-.24-.97-.14-.54-.27-1.09-.32-1.63-4.17,9.6-8.61,24.96-4.58,41.91Z"/>
      </g>
      <path class="uuid-ce48846d-6873-4a29-b05d-b84f9a85975a" d="m1638.56,3121.32c-29.77,0-47.78-4.16-49.51-4.58l-1.53-.45c-11.45-4.06-32.87-19.54-40.53-51.82-8.22-34.66,11.6-63.38,12.45-64.59l6.65-9.45,10.95,3.7c73.63,24.86,205.24-29.92,206.56-30.47l5.47-2.3,5.62,1.95c17.59,6.12,30.59,17.47,37.57,32.81,13.77,30.23.45,65.32-1.11,69.22l-2.15,5.35-5.12,2.64c-76.84,39.58-142.97,47.99-185.31,48Zm-41.16-34.4c10.59,2.09,96.49,16.59,206.76-38.27,2.81-9.79,5.75-27.12-.09-39.81-2.85-6.21-7.62-10.9-14.49-14.24-26.73,10.55-133.88,49.77-209.57,32.45-2.97,7.46-5.73,18.53-2.94,30.29,4.92,20.77,17.17,28.03,20.33,29.58Z"/>
      <path class="uuid-ce48846d-6873-4a29-b05d-b84f9a85975a" d="m2028.08,3385.54c-32.49,0-68.88-8.32-106.15-32.43-4.64-3-5.97-9.19-2.97-13.83,3-4.63,9.2-5.96,13.83-2.97,107.78,69.72,207.13-6.93,208.12-7.71,4.34-3.42,10.62-2.69,14.04,1.65,3.42,4.34,2.69,10.63-1.65,14.04-.76.6-53.44,41.25-125.22,41.25Z"/>
      <path class="uuid-ce48846d-6873-4a29-b05d-b84f9a85975a" d="m1767.77,3382.98c-35.21,0-74.11-8.42-112.37-33.17-4.64-3-5.97-9.19-2.97-13.83,3-4.63,9.19-5.96,13.83-2.97,108.29,70.06,222.63-4.14,223.76-4.9,4.6-3.05,10.81-1.79,13.86,2.81,3.05,4.6,1.79,10.81-2.81,13.86-.85.56-58.86,38.2-133.31,38.2Z"/>
      <path class="uuid-ce48846d-6873-4a29-b05d-b84f9a85975a" d="m1549.28,3108.05c-1.1,0-2.23-.19-3.33-.58-1.09-.38-109.5-38.15-157.53-1.47-4.4,3.35-10.67,2.5-14.02-1.88-3.35-4.39-2.51-10.66,1.88-14.02,56.63-43.23,171.49-3.2,176.35-1.47,5.2,1.85,7.92,7.56,6.08,12.76-1.46,4.1-5.31,6.66-9.43,6.66Z"/>
      <path class="uuid-ce48846d-6873-4a29-b05d-b84f9a85975a" d="m2149.1,2438.42c-142.56,0-166.95-131.9-167.19-133.27-.94-5.44,2.71-10.62,8.15-11.55,5.5-.98,10.61,2.71,11.55,8.14.9,5.11,23.17,122.44,157.39,116.45.15,0,.3,0,.46,0,5.31,0,9.74,4.18,9.98,9.55.25,5.52-4.02,10.19-9.54,10.44-3.67.17-7.29.24-10.81.24Z"/>
      <g>
        <g class="uuid-3f4fcd18-5ea8-4745-b197-9dbe1879725d">
          <path class="uuid-ce48846d-6873-4a29-b05d-b84f9a85975a" d="m1405.74,2828.73c29.81,11.78,61.34,19.35,93.74,22.06,17.26,1.45,35.57,2.13,54.78,1.59,6.89-.18,13.86-.5,20.98-1,61.12-4.3,130.03-20.8,201.79-59.49,101.76-54.96,163.1-129.62,199.98-196.63-11.19-12.14-22.11-23.38-31.4-33.25l-12.73,10.78-20.7,4.8-343.51,80.01-2.99,40.32-1.31,18.08-2.85,38.83-6.93-48.61c-1.59,0-107.92.45-148.83,122.51Z"/>
        </g>
        <g>
          <g>
            <path class="uuid-6985ecb0-ad57-46f7-bf77-200675ff99c7" d="m2005.79,2250.03c6.91,80.68-6.31,163.42-41.22,240.37-7.13,15.69-15.11,31.11-24.02,46.22-4.31,7.36-8.91,14.67-13.67,21.94-14.47,21.83-30.39,42.08-47.6,60.75-14.79,16.13-30.56,31.05-47.06,44.75-19.93,16.57-41.03,31.33-63.02,44.29-8.03,4.7-16.17,9.17-24.4,13.42-150.85,77.42-337.94,73.3-489.3-27.06-223.01-147.79-283.95-448.37-136.19-671.36,28.49-42.93,62.62-79.94,100.82-110.48,4.43-3.61,8.98-7.11,13.6-10.51,12.29-9.17,24.95-17.7,37.94-25.58,30.05-18.21,61.86-32.97,94.74-44.17,32.86-11.22,66.87-18.89,101.3-22.86,10.95-1.27,21.94-2.18,32.99-2.69,16.56-.76,33.16-.72,49.83.25,82.98,4.58,165.88,30.62,240.16,79.87,128.29,85.01,202.92,220.56,215.1,362.83Z"/>
            <path class="uuid-ce48846d-6873-4a29-b05d-b84f9a85975a" d="m1523.26,2776.74c-94.02,0-187.66-27.15-268.56-80.79-223.31-147.99-284.59-450.07-136.61-673.39,28.1-42.34,62.12-79.62,101.12-110.82,4.22-3.44,8.82-6.99,13.65-10.54,12.26-9.14,25.06-17.78,38.05-25.66,29.84-18.09,61.81-32.99,95.02-44.3,32.88-11.23,67.06-18.95,101.61-22.92,11.07-1.28,22.2-2.19,33.09-2.7,16.94-.78,33.75-.69,49.98.25,85.67,4.73,168.97,32.43,240.89,80.12,124.37,82.4,203.01,215.05,215.76,363.93h0c7.06,82.54-7.24,165.91-41.35,241.1-7.22,15.91-15.33,31.51-24.09,46.36-3.96,6.77-8.45,13.96-13.7,21.99-14.31,21.59-30.37,42.09-47.75,60.94-14.53,15.84-30.41,30.95-47.21,44.88-19.64,16.33-40.91,31.28-63.21,44.43-7.99,4.68-16.22,9.2-24.47,13.46-69.93,35.89-146.2,53.66-222.23,53.66Zm.17-968.71c-7.5,0-15.06.17-22.65.52-10.82.5-21.88,1.4-32.89,2.68-34.34,3.96-68.32,11.62-101,22.79-33.02,11.24-64.79,26.05-94.45,44.03-12.91,7.83-25.64,16.41-37.83,25.51-4.8,3.53-9.36,7.05-13.55,10.47-38.77,31.01-72.59,68.07-100.52,110.16-147.08,221.97-86.18,522.23,135.78,669.32,145.45,96.44,332.37,106.76,487.82,26.97,8.2-4.23,16.39-8.74,24.33-13.38,22.16-13.07,43.3-27.92,62.82-44.15,16.69-13.86,32.48-28.87,46.92-44.61,17.27-18.75,33.24-39.12,47.46-60.57,5.22-7.98,9.68-15.13,13.62-21.87,8.72-14.77,16.77-30.27,23.95-46.08,33.91-74.74,48.12-157.6,41.09-239.64h0c-12.67-147.98-90.83-279.83-214.45-361.73-71.48-47.4-154.28-74.93-239.43-79.63-8.86-.52-17.89-.77-27.03-.77Z"/>
          </g>
          <g class="uuid-3f4fcd18-5ea8-4745-b197-9dbe1879725d">
            <path class="uuid-ce48846d-6873-4a29-b05d-b84f9a85975a" d="m1255.51,2694.71c151.36,100.38,338.48,104.49,489.31,27.05,8.24-4.24,16.37-8.71,24.39-13.41,22-12.96,43.09-27.73,63.02-44.28,16.5-13.72,32.28-28.64,47.06-44.75,17.22-18.67,33.14-38.92,47.62-60.76,4.73-7.28,9.34-14.57,13.67-21.93,8.91-15.12,16.86-30.55,24-46.24,34.91-76.96,48.15-159.68,41.22-240.38-3.79-44.32-13.65-88.02-29.31-129.73,4.84,77.14-8.74,155.81-42.04,229.23-7.1,15.71-15.09,31.12-24,46.24-4.3,7.35-8.91,14.64-13.67,21.93-14.48,21.84-30.4,42.09-47.59,60.75-14.81,16.12-30.56,31.03-47.06,44.75-19.94,16.55-41.06,31.33-63.02,44.28-8.05,4.71-16.18,9.18-24.42,13.41-150.83,77.44-337.92,73.32-489.31-27.05-88.33-58.53-151.2-141.05-185.77-233.18,9.1,146.36,84.26,286.84,215.9,374.06Z"/>
          </g>
          <path class="uuid-ce48846d-6873-4a29-b05d-b84f9a85975a" d="m1523.26,2786.58c-95.93,0-191.45-27.7-274-82.43-227.83-150.98-290.35-459.19-139.38-687.04,28.67-43.2,63.38-81.24,103.18-113.07,4.28-3.49,9-7.14,13.96-10.79,12.46-9.29,25.52-18.1,38.78-26.14,30.45-18.46,63.07-33.67,96.96-45.2,33.53-11.46,68.41-19.33,103.65-23.39,11.29-1.31,22.65-2.23,33.76-2.75,17.29-.79,34.44-.7,51.01.26,87.39,4.82,172.39,33.09,245.76,81.74,126.88,84.07,207.11,219.4,220.12,371.29h0c7.21,84.22-7.38,169.29-42.19,246.01-7.37,16.23-15.63,32.14-24.58,47.29-4.03,6.89-8.6,14.22-13.95,22.38-14.63,22.07-31.02,42.98-48.75,62.22-14.82,16.16-31.03,31.57-48.16,45.79-20.04,16.67-41.74,31.92-64.5,45.33-8.16,4.78-16.55,9.39-24.96,13.73-71.35,36.62-149.18,54.75-226.74,54.75Zm.16-968.71c-7.35,0-14.76.17-22.2.51-10.59.49-21.42,1.37-32.2,2.62-33.65,3.87-66.93,11.39-98.95,22.32-32.35,11.01-63.48,25.52-92.53,43.13-12.64,7.67-25.1,16.07-37.05,24.98-4.72,3.47-9.15,6.89-13.22,10.21-38.05,30.43-71.17,66.74-98.54,107.97-144.08,217.44-84.41,511.58,133.01,655.67,142.48,94.46,325.6,104.59,477.89,26.42,8.03-4.14,16.06-8.56,23.85-13.12,21.68-12.78,42.38-27.33,61.5-43.23,16.35-13.57,31.81-28.28,45.96-43.7,16.93-18.38,32.58-38.34,46.51-59.36,5.1-7.79,9.47-14.81,13.33-21.4,8.55-14.5,16.45-29.69,23.48-45.18,33.21-73.2,47.13-154.37,40.25-234.73h0c-12.41-144.97-88.98-274.13-210.08-354.37-70.02-46.43-151.12-73.41-234.54-78.01-8.69-.5-17.54-.75-26.49-.75Z"/>
          <path class="uuid-ce48846d-6873-4a29-b05d-b84f9a85975a" d="m1523.25,2789.86c-96.55,0-192.73-27.9-275.81-82.97-229.34-151.99-292.27-462.23-140.29-691.59,28.85-43.48,63.8-81.77,103.87-113.82,4.3-3.5,9.07-7.19,14.07-10.87,12.52-9.34,25.67-18.21,39.02-26.3,30.65-18.58,63.49-33.89,97.61-45.51,33.75-11.53,68.85-19.45,104.33-23.54,11.36-1.32,22.8-2.25,33.98-2.77,17.4-.79,34.67-.71,51.35.26,87.96,4.86,173.53,33.31,247.38,82.28,127.72,84.63,208.49,220.85,221.58,373.75h0c7.26,84.78-7.43,170.41-42.47,247.65-7.42,16.33-15.74,32.35-24.74,47.61-4.06,6.92-8.65,14.3-14.03,22.51-14.74,22.23-31.23,43.28-49.08,62.65-14.91,16.25-31.23,31.77-48.47,46.09-20.18,16.77-42.03,32.13-64.93,45.63-8.22,4.81-16.66,9.45-25.12,13.82-71.84,36.87-150.16,55.11-228.25,55.11Zm.17-968.71c-7.3,0-14.66.17-22.05.51-10.5.49-21.26,1.36-31.97,2.6-33.41,3.85-66.47,11.31-98.26,22.17-32.13,10.94-63.04,25.35-91.88,42.83-12.55,7.61-24.93,15.96-36.79,24.8-4.7,3.45-9.08,6.84-13.11,10.12-37.81,30.24-70.7,66.29-97.88,107.24-143.08,215.93-83.83,508.03,132.09,651.12,141.49,93.8,323.33,103.86,474.58,26.24,7.97-4.11,15.95-8.5,23.69-13.03,21.52-12.69,42.08-27.13,61.06-42.92,16.24-13.48,31.59-28.08,45.64-43.39,16.82-18.25,32.35-38.08,46.19-58.95,5.06-7.73,9.41-14.7,13.24-21.25,8.5-14.4,16.34-29.49,23.33-44.88,32.98-72.69,46.8-153.29,39.97-233.09-12.33-143.96-88.37-272.23-208.62-351.91-69.54-46.11-150.08-72.9-232.91-77.47-8.63-.5-17.42-.75-26.31-.75Z"/>
          <path class="uuid-ce48846d-6873-4a29-b05d-b84f9a85975a" d="m2000.44,2374.04c-128.12,321.62-528.33,415.65-733.45,140.87-139.55-186.94-64.26-467.91,123.87-590.44,136.92-89.18,309.61-116.35,506.12,58.32,0,0,75.05,90.76,91.37,173.31,16.32,82.55,18.26,165.6,18.26,165.6l-6.17,52.34Z"/>
          <path class="uuid-8f68c872-3154-41ed-bfdc-d123d525286d" d="m1267,2514.91c205.11,274.77,605.33,180.74,733.45-140.86l1.24-10.61c-230.25,218.16-592.95,232.96-805.5-41,5.13,68.15,27.76,134.78,70.81,192.47Z"/>
          <path class="uuid-ce48846d-6873-4a29-b05d-b84f9a85975a" d="m1577.53,2739.84c-19.4,0-38.76-1.25-57.94-3.76-121.04-15.89-226.01-79.2-303.57-183.09-71.37-95.59-98.24-218.09-75.67-344.92,24.56-138,106.09-263.96,218.13-336.92,62.89-40.96,126.87-66.64,190.15-76.33l1.3-.2,1.31.07c87.66,4.84,172.88,33.18,246.45,81.96,127.23,84.3,207.68,220,220.72,372.29h0c7.23,84.44-7.4,169.75-42.3,246.67-7.39,16.27-15.68,32.23-24.64,47.42-4.04,6.9-8.62,14.25-13.98,22.44-14.67,22.13-31.1,43.11-48.88,62.4l-1.46,1.36c-90.82,71.7-201.01,110.6-309.6,110.6Zm-26.38-919.81c-59.28,9.29-119.45,33.62-178.87,72.32-106.28,69.22-183.67,188.91-207.03,320.16-21.33,119.87,3.9,235.42,71.04,325.35,73.38,98.28,172.49,158.15,286.6,173.13,119.45,15.69,246.19-21.11,347.78-100.99,16.61-18.1,31.97-37.75,45.68-58.43,5.09-7.76,9.45-14.77,13.3-21.33,8.53-14.46,16.4-29.61,23.42-45.06,33.11-72.99,46.99-153.93,40.13-234.06-12.38-144.56-88.73-273.35-209.48-353.36-69.46-46.06-149.84-72.92-232.56-77.71Z"/>
          <g>
            <ellipse class="uuid-6985ecb0-ad57-46f7-bf77-200675ff99c7" cx="1188.06" cy="2557.57" rx="125.87" ry="173.23" transform="translate(-1196.91 1052.72) rotate(-32.83)"/>
            <path class="uuid-ce48846d-6873-4a29-b05d-b84f9a85975a" d="m1228.75,2732.8c-59.85,0-126.33-41.88-165.62-110.39h0c-29.79-51.95-38.8-108.97-24.73-156.46,9.66-32.61,29.35-57.32,56.92-71.47,68.74-35.25,166.37,8.8,217.64,98.23,29.79,51.94,38.8,108.97,24.74,156.45-9.66,32.61-29.35,57.33-56.93,71.47-16.07,8.25-33.75,12.16-52.02,12.16Zm-140.29-124.91c43.63,76.09,123.94,115.04,178.99,86.77,20.31-10.42,34.92-29.01,42.27-53.79,11.64-39.28,3.39-89.24-22.07-133.64-43.64-76.1-123.94-115.02-178.99-86.78-20.31,10.41-34.92,29.02-42.26,53.79-11.64,39.28-3.39,89.24,22.07,133.64h0Z"/>
          </g>
          <g>
            <ellipse class="uuid-6985ecb0-ad57-46f7-bf77-200675ff99c7" cx="1160.04" cy="2590.28" rx="102.56" ry="137.48" transform="translate(-1270.73 1125.16) rotate(-34.8)"/>
            <path class="uuid-ce48846d-6873-4a29-b05d-b84f9a85975a" d="m1190.78,2718.98c-29.82,0-61.51-13.45-88.74-38.03h0c-55.67-50.26-75.1-131.82-43.3-181.79,13.17-20.69,33.13-33.4,57.71-36.73,33.38-4.5,70.41,9.02,101.59,37.17,55.67,50.27,75.09,131.82,43.3,181.8-13.17,20.69-33.13,33.4-57.71,36.73-4.23.57-8.53.85-12.85.85Zm-61.45-254.37c-4.2,0-8.35.28-12.46.83-23.67,3.21-42.88,15.43-55.55,35.35-31.04,48.77-11.86,128.57,42.76,177.89h0c30.51,27.55,66.61,40.83,99.14,36.42,23.67-3.21,42.88-15.43,55.55-35.35,31.04-48.77,11.86-128.58-42.76-177.89-26.67-24.07-57.62-37.25-86.68-37.25Z"/>
          </g>
          <g class="uuid-3f4fcd18-5ea8-4745-b197-9dbe1879725d">
            <path class="uuid-ce48846d-6873-4a29-b05d-b84f9a85975a" d="m1273.06,2592.6c-7.06-25.07-21.02-48.3-38.98-67.33,11.28,58.53-21.77,103.99-77.65,103.65-36.11-.21-73.46-19.53-101.24-48.99.69,3.7,1.61,7.47,2.67,11.27,18,63.84,80.77,115.91,140.2,116.29,59.43.38,92.99-51.08,75-114.89Z"/>
          </g>
          <path class="uuid-ce48846d-6873-4a29-b05d-b84f9a85975a" d="m1195.84,2729.65c-47.32,0-100.65-35.23-134.11-93.06h0c-25.22-43.59-33.53-92.22-22.22-130.08,7.21-24.14,21.71-42.29,41.96-52.47,53.7-27.02,129.43,9.99,172.4,84.24,25.21,43.59,33.52,92.22,22.22,130.09-7.21,24.14-21.72,42.28-41.96,52.47-11.88,5.98-24.84,8.82-38.29,8.82Zm-76.06-259.13c-9.59,0-18.69,1.97-26.94,6.12-13.86,6.97-23.92,19.8-29.09,37.1-9.35,31.32-1.91,72.5,19.88,110.17h0c35.65,61.63,98.04,94.97,139.13,74.31,13.86-6.97,23.92-19.8,29.09-37.1,9.35-31.32,1.92-72.5-19.88-110.18-28.5-49.25-74.08-80.43-112.19-80.43Z"/>
          <g class="uuid-c4340a48-f690-4ee8-a3ba-64bde3e9ee35">
            <path class="uuid-6985ecb0-ad57-46f7-bf77-200675ff99c7" d="m1344.06,2075.54s181.02-102.11,341.79-64.32c.17.04.34.08.51.12,33.83,7.98,64.89,24.98,90.04,48.97,33.26,31.72,51.54,58.46,66.72,82.61,46.14,73.48,54.01,116.55,54.01,116.55,17.42-65.07,13.3-123.94-24.53-185.53-3.74-6.06-7.83-12.17-12.22-18.32-1.01-1.42-2.04-2.8-3.1-4.18.02-.03-.01-.06-.08-.07-9.77-11.81-23.19-26.85-39.75-42.55-49.91-47.38-128.21-100.9-220.48-90.61-172.54,19.24-263.79,153.45-252.92,157.33Z"/>
          </g>
          <g class="uuid-c4340a48-f690-4ee8-a3ba-64bde3e9ee35">
            <ellipse class="uuid-6985ecb0-ad57-46f7-bf77-200675ff99c7" cx="1322.6" cy="2337.3" rx="64.75" ry="75.45" transform="translate(-630.26 493.77) rotate(-17.15)"/>
          </g>
          <g class="uuid-c4340a48-f690-4ee8-a3ba-64bde3e9ee35">
            <ellipse class="uuid-6985ecb0-ad57-46f7-bf77-200675ff99c7" cx="1363.02" cy="2468.29" rx="26.74" ry="31.16" transform="translate(-494.68 347.15) rotate(-12.3)"/>
          </g>
        </g>
      </g>
    </g>
    <g>
      <path class="uuid-dde293b3-536d-4b7d-95c9-3587bfa62dde" d="m2789.22,1015.26c-2.42,26.33-6.43,52.42-12.05,78.14-7.82,36.13-18.77,71.51-32.62,105.71-60.06,148.37-175.05,274.77-332.4,345.94-157.7,71.32-328.98,74.06-480.29,20.84-33.23-11.7-65.5-26.09-96.43-43.05-24.27-13.27-47.69-28.14-70.16-44.48,158.38-39.83,341.44-104.08,530.89-189.76,189.43-85.67,358.56-180.7,493.06-273.33Z"/>
      <path class="uuid-369ae9b1-229c-47cf-9891-6138ba4383ba" d="m2296.16,1288.6c189.43-85.67,358.56-180.7,493.06-273.33-2.42,26.33-6.43,52.42-12.05,78.14-103.51,75.2-268.89,168.04-461.48,255.14-184.46,83.43-356.41,144.63-480.26,174.3-24.27-13.27-47.69-28.14-70.16-44.48,158.38-39.83,341.44-104.08,530.89-189.76Z"/>
      <path class="uuid-dde293b3-536d-4b7d-95c9-3587bfa62dde" d="m2763.02,765.92c-105.04,84.94-312.51,203.84-560.36,315.95-247.82,112.08-474.16,189.37-607.32,212.14-13.86-22.65-26.43-46.41-37.65-71.2-.52-1.17-1.04-2.3-1.57-3.5-4.89-10.94-9.43-21.94-13.64-33.04-9.9-25.91-18.01-52.12-24.37-78.46-.28-1.08-.52-2.12-.77-3.2-9.25-39.18-14.72-78.67-16.5-117.98-3.47-74.83,6.27-149.05,27.9-219.46,16.13-52.43,38.84-102.74,67.7-149.6,65.21-105.87,161.65-194.13,283.5-249.23,12.11-5.47,24.28-10.54,36.54-15.21,164.17-62.63,339.95-53.69,490.91,13.09.95.43,1.91.83,2.86,1.29,65.49,29.29,126.25,69.58,179.29,119.58,25.94,24.49,50.06,51.32,71.91,80.39,2.4,3.13,4.73,6.33,7.07,9.53,1.94,2.61,3.81,5.26,5.69,7.93,15.58,22.19,29.9,45.61,42.81,70.13,4.83,9.1,9.43,18.38,13.83,27.78,1.2,2.58,2.4,5.16,3.56,7.78,11.22,24.77,20.74,49.94,28.61,75.29Z"/>
      <path class="uuid-369ae9b1-229c-47cf-9891-6138ba4383ba" d="m2730.84,682.87c1.21,2.56,2.41,5.14,3.59,7.75,11.21,24.8,20.74,49.94,28.6,75.29-105.03,84.95-312.51,203.86-560.36,315.95-247.83,112.08-474.16,189.37-607.31,212.14-13.85-22.64-26.44-46.4-37.66-71.2-.53-1.17-1.04-2.31-1.55-3.49,126.25-13.95,356.65-88.72,609.3-202.99,262.63-118.78,477.36-247.69,565.39-333.46Z"/>
      <path class="uuid-369ae9b1-229c-47cf-9891-6138ba4383ba" d="m1509.47,1003.47c-3.31,0-6.47-.08-9.5-.24l1.72-33.23c88.69,4.59,319.91-68.72,562.18-178.28,289.15-130.77,476.21-256.66,511.55-313.42l28.24,17.59c-45.01,72.3-261.34,206.41-526.08,326.15-242.52,109.68-467.81,181.43-568.11,181.43Z"/>
      <path class="uuid-369ae9b1-229c-47cf-9891-6138ba4383ba" d="m1531.19,783.64l-4.89-32.92c99.42-14.77,271.57-73.86,449.27-154.23,186.22-84.22,347.44-177.21,420.75-242.69l22.17,24.82c-75.66,67.57-240.12,162.67-429.2,248.18-180.31,81.55-355.83,141.64-458.09,156.83Z"/>
      <path class="uuid-369ae9b1-229c-47cf-9891-6138ba4383ba" d="m1518.32,1121.24c-.35,0-.7,0-1.05,0l.17-33.27h.98c102.21,0,340.22-76.62,593.07-190.97,266.14-120.37,489.68-255.99,543.61-329.81l26.87,19.63c-57.88,79.23-281.63,216.06-556.77,340.5-256.76,116.12-500.31,193.93-606.87,193.93Z"/>
      <path class="uuid-369ae9b1-229c-47cf-9891-6138ba4383ba" d="m1932.45,1574.19l-.59-8.25-3.12-7.76,1.2-.48,1.32-.1c87.63-6.31,254.48-60.25,425.08-137.4,171.53-77.58,318.07-164.58,382.41-227.05l11.59,11.94c-65.63,63.72-213.98,151.96-387.15,230.27-174.89,79.09-339.94,132.29-430.74,138.83Z"/>
      <path class="uuid-ce48846d-6873-4a29-b05d-b84f9a85975a" d="m2146.42,1619.74c-138.45,0-276.03-43.14-391.45-127.24l-30.2-22,36.24-9.11c163.05-41.01,345.61-106.27,527.94-188.73,182.32-82.46,351.88-176.44,490.35-271.8l30.77-21.19-3.42,37.2c-21.81,237.45-170.21,445.95-387.29,544.13-87.08,39.38-180.21,58.75-272.93,58.75Zm-339.53-134.13c178.26,114.04,403.99,131.25,598.04,43.49,194.08-87.78,330.21-268.63,362.26-477.8-133.91,89.05-293.4,176.17-463.82,253.24-170.43,77.08-341.18,139.32-496.48,181.07Z"/>
      <path class="uuid-369ae9b1-229c-47cf-9891-6138ba4383ba" d="m2771.87,606.36c.6,1.33,1.06,2.72,1.39,4.17l-1.39-4.17Z"/>
      <path class="uuid-02008150-8e75-473c-94af-eded2f7283db" d="m3105.93,623c38.98,86.19-89.53,235.82-316.71,392.27-134.51,92.63-303.64,187.66-493.06,273.33-189.45,85.68-372.5,149.93-530.89,189.76-267.51,67.28-464.71,64.96-503.7-21.23-35.4-78.28,67.3-208.82,256.54-349.32,6.38,26.35,14.48,52.55,24.38,78.47-52.32,42.78-78.08,76.73-69.13,96.51,9.11,20.15,53.07,22.98,121.98,11.21,133.15-22.77,359.48-100.06,607.31-212.14,247.85-112.09,455.34-231,560.36-315.95,54.32-43.96,81.23-78.84,72.11-98.99-8.94-19.76-51.45-22.86-118.1-11.83-12.92-24.55-27.25-47.94-42.82-70.13,230.47-49.32,396.32-40.23,431.73,38.04Z"/>
      <path class="uuid-091353a4-bfa9-4005-8fd6-d61244f91fb7" d="m1503.8,1363.03c-49.68,0-87.56-10.31-100.04-37.91-17.85-39.46,22.86-98.93,120.98-176.75l15.51,19.55c-123.06,97.6-118.18,137.13-113.75,146.92,15.37,33.97,135.96,36.47,370.7-34.5,129.13-39.08,275.14-94.9,422.22-161.43,147.09-66.52,285.42-139.29,400.02-210.44,208.34-129.41,286.1-221.61,270.74-255.59-4.43-9.79-30.87-39.56-185.45-11.6l-4.44-24.56c123.24-22.3,194.78-13.59,212.63,25.88,34.71,76.73-160.72,212.8-280.31,287.07-115.52,71.72-254.83,145.02-402.9,211.98-148.06,66.96-295.12,123.18-425.28,162.57-86.28,26.09-212.15,58.8-300.62,58.81Z"/>
      <path class="uuid-091353a4-bfa9-4005-8fd6-d61244f91fb7" d="m1467.72,1450.12c-70.22,0-127.73-14.25-146.49-55.73-34.77-76.87,87.12-190.97,195.49-273.15l15.08,19.88c-138.81,105.28-209.03,196.11-187.84,242.99,12.57,27.79,59.78,42.37,133.29,41.17,76.3-1.29,179.71-19.31,299.06-52.11,147.06-40.41,312.45-101.41,478.3-176.42,165.83-75,320.86-158.91,448.32-242.65,103.45-67.96,185.28-133.72,236.64-190.16,49.39-54.29,69.68-99.49,57.11-127.28-21.2-46.87-135.78-54.13-306.51-19.41l-4.97-24.45c133.29-27.11,299.47-43.28,334.22,33.58,47.1,104.14-196.05,278.46-302.79,348.58-128.52,84.44-284.73,169-451.73,244.53-167.02,75.53-333.68,137-481.97,177.74-74.08,20.36-209.13,52.9-315.2,52.9Z"/>
      <path class="uuid-ce48846d-6873-4a29-b05d-b84f9a85975a" d="m1449.82,1543.11c-109.54,0-180.52-26.43-204.19-78.77-51.86-114.65,141.92-281.39,262.05-370.58l21.22-15.75,6.22,25.69c6.26,25.83,14.24,51.52,23.73,76.34l4.51,11.8-9.78,8c-68.83,56.29-64.34,75.59-64.26,75.76.07.17,11.96,16.73,103.09,1.17,135.75-23.22,366.82-104,603.04-210.84,236.23-106.83,449.49-227,556.57-313.61,71.83-58.14,67.26-78,67.18-78.17-.08-.17-11.62-16.28-99.3-1.78l-12.46,2.06-5.88-11.18c-12.39-23.54-26.4-46.49-41.66-68.23l-15.19-21.64,25.85-5.53c146.3-31.31,399.48-66.71,451.33,47.94,42,92.87-75.63,243.73-322.73,413.9-140.16,96.52-311.6,191.56-495.78,274.86-184.2,83.31-368.8,149.28-533.83,190.79-126.97,31.93-234.9,47.78-319.72,47.78Zm58.01-405.64c-170.86,130.81-258.77,249.52-230.31,312.44,33.34,73.7,218.59,78.09,483.49,11.47,163.05-41.01,345.61-106.27,527.94-188.73,182.32-82.46,351.88-176.44,490.35-271.8,224.97-154.93,344.02-296.95,310.69-370.64h0c-28.45-62.93-175.65-75.3-386.71-33.39,8.2,12.74,15.99,25.8,23.3,39.06,72.71-10.62,112.4-2.96,124.51,23.82,12.97,28.69-11.51,66.76-77.05,119.8-110.89,89.69-321.8,208.68-564.16,318.29-242.36,109.61-470.99,189.4-611.57,213.45-83.14,14.2-127.9,7.45-140.87-21.25-12.11-26.79,8.36-61.65,64.36-109.24-5.13-14.24-9.79-28.71-13.95-43.29Z"/>
      <g class="uuid-5c81ef0c-5735-4eb4-b602-71198819b6b8">
        <path class="uuid-6985ecb0-ad57-46f7-bf77-200675ff99c7" d="m2763.02,765.9c-12.22,9.89-25.81,20.21-40.73,30.97-6.02-16.98-12.82-33.88-20.35-50.57-1.19-2.6-2.39-5.16-3.59-7.73-4.38-9.45-8.99-18.71-13.8-27.8-12.92-24.55-27.27-47.95-42.81-70.14-1.87-2.67-3.78-5.3-5.69-7.93-23.72-32.73-50.22-62.79-79.01-89.91-53.79-50.74-115.52-91.47-182.11-120.87-162.22-71.74-353.13-76.74-527.46,2.11-116.37,52.64-209.58,135.5-274.53,235.13,64.44-124.3,169.55-228.64,307.05-290.83,174.32-78.82,365.24-73.86,527.42-2.12,66.59,29.44,128.36,70.12,182.15,120.91,28.75,27.12,55.26,57.14,78.97,89.87,1.95,2.63,3.82,5.3,5.69,7.97,15.59,22.2,29.9,45.56,42.82,70.1,4.82,9.13,9.42,18.39,13.81,27.8,1.24,2.57,2.43,5.13,3.58,7.77,11.21,24.78,20.74,49.93,28.6,75.27Z"/>
      </g>
      <path class="uuid-ce48846d-6873-4a29-b05d-b84f9a85975a" d="m1586.61,1313.25l-6.19-10.12c-14.26-23.32-27.28-47.92-38.67-73.12-5.59-12.36-10.84-24.98-15.61-37.52-10-26.18-18.43-53.29-25.03-80.57-74.7-308.93,81.61-628.36,371.65-759.53,290.04-131.18,633.13-37.6,815.78,222.5,16.11,22.95,30.91,47.18,43.99,72.04,6.24,11.8,12.25,24.08,17.85,36.47h0c11.41,25.23,21.29,51.25,29.37,77.33l3.51,11.33-9.22,7.46c-110.89,89.69-321.79,208.68-564.16,318.29-242.36,109.61-470.99,189.4-611.57,213.45l-11.69,2Zm559.2-984.81c-87.08,0-175.16,18.1-258.64,55.85-274.74,124.25-422.8,426.81-352.05,719.41,6.25,25.83,14.23,51.51,23.72,76.33,4.52,11.89,9.5,23.85,14.79,35.56,9.15,20.23,19.39,40.04,30.52,59.05,137.08-25.7,361.76-104.92,591.29-208.73,229.54-103.81,437.39-220.21,547.22-306.18-6.92-20.89-15.03-41.66-24.19-61.91h0c-5.31-11.73-11-23.36-16.92-34.57-12.4-23.57-26.42-46.52-41.67-68.25-120.44-171.5-314.56-266.57-514.08-266.57Z"/>
      <g class="uuid-1840697e-3976-4b89-a509-64d508025548">
        <path class="uuid-ce48846d-6873-4a29-b05d-b84f9a85975a" d="m2284.51,1293.85c-185.32,83.09-364.12,145.48-519.24,184.51-267.5,67.27-464.73,64.95-503.71-21.23-35.37-78.29,67.33-208.81,256.54-349.32,6.4,26.37,14.51,52.58,24.4,78.48-52.33,42.77-78.1,76.7-69.14,96.49,9.13,20.17,53.09,23,121.97,11.23,88.33-15.11,217.67-54.23,367.15-111.57-3.6,19.47-2.02,37.23,5.05,52.87,29.19,64.58,147.19,82.09,316.98,58.54Z"/>
      </g>
      <g class="uuid-b45366eb-bed3-44c4-aca8-e1ce74af0b6d">
        <path class="uuid-0159ced6-7d9e-4fe9-b1b4-30c12b359144" d="m1626.26,573.42c2.43-3.32,4.89-6.64,7.47-9.93-2.55,3.29-5.04,6.58-7.47,9.93Z"/>
      </g>
      <g class="uuid-b45366eb-bed3-44c4-aca8-e1ce74af0b6d">
        <path class="uuid-0159ced6-7d9e-4fe9-b1b4-30c12b359144" d="m1642.49,552.27c5.68-7.13,11.56-14.14,17.61-21.02-6.02,6.88-11.89,13.89-17.61,21.02Z"/>
      </g>
      <g class="uuid-b45366eb-bed3-44c4-aca8-e1ce74af0b6d">
        <path class="uuid-0159ced6-7d9e-4fe9-b1b4-30c12b359144" d="m1698.11,491.36c-6.3,6.09-12.48,12.26-18.5,18.56,6.02-6.33,12.2-12.51,18.5-18.56Z"/>
      </g>
      <g class="uuid-b45366eb-bed3-44c4-aca8-e1ce74af0b6d">
        <path class="uuid-0159ced6-7d9e-4fe9-b1b4-30c12b359144" d="m1708.19,481.87c6.79-6.27,13.74-12.42,20.84-18.38-7.1,5.99-14.04,12.14-20.84,18.38Z"/>
      </g>
      <g class="uuid-1840697e-3976-4b89-a509-64d508025548">
        <path class="uuid-ce48846d-6873-4a29-b05d-b84f9a85975a" d="m2789.22,1015.26c-2.42,26.33-6.43,52.42-12.05,78.14-7.82,36.13-18.77,71.51-32.62,105.71-60.06,148.37-175.05,274.77-332.4,345.94-157.7,71.32-328.98,74.06-480.29,20.84-33.23-11.7-65.5-26.09-96.43-43.05-24.27-13.27-47.69-28.14-70.16-44.48,158.38-39.83,341.44-104.08,530.89-189.76,189.43-85.67,358.56-180.7,493.06-273.33Z"/>
      </g>
      <g class="uuid-1840697e-3976-4b89-a509-64d508025548">
        <path class="uuid-ce48846d-6873-4a29-b05d-b84f9a85975a" d="m2763.04,765.94c-105.05,84.91-312.54,203.82-560.39,315.92-247.81,112.1-474.15,189.4-607.31,212.16-13.86-22.64-26.42-46.4-37.62-71.22-.52-1.17-1.05-2.3-1.57-3.5-4.91-10.92-9.47-21.95-13.66-33.03-9.91-25.9-18.01-52.12-24.37-78.47-.28-1.09-.52-2.09-.77-3.18-9.26-39.19-14.74-78.67-16.52-117.98-3.46-74.84,6.28-149.04,27.91-219.45,16.11-52.45,38.83-102.76,67.71-149.6,35.93-58.37,81.37-111.38,135.34-156.41-15.59,19.7-29.97,40.24-43.06,61.51-28.84,46.85-51.56,97.16-67.67,149.6-21.63,70.41-31.38,144.61-27.91,219.45,1.77,39.31,7.25,78.79,16.52,117.98.24,1.09.48,2.14.77,3.18.13.55.28,1.14.45,1.78,28.47,110.32,144.22,173.57,253,139.72,122.3-38.06,272.29-95.61,431.09-167.44,184.2-83.34,346.13-170.39,460.25-244.5,2.78,7.81,5.36,15.63,7.81,23.48Z"/>
      </g>
    </g>
  </g>
</svg>