<?xml version="1.0" encoding="UTF-8"?>
<svg id="uuid-155e269e-1317-4945-87d5-ed3e0afda6a1" data-name="Layer 1" xmlns="http://www.w3.org/2000/svg" viewBox="0 0 4000 4000">
  <defs>
    <style>
      .uuid-f362896d-2be3-4ff2-a027-13064118013c {
        opacity: .5;
      }

      .uuid-61ef154e-f406-4ada-83c5-4dba2957af33 {
        opacity: .35;
      }

      .uuid-d720a498-0d30-4c95-8aed-0290b82c61b5 {
        fill: #371a45;
      }

      .uuid-d720a498-0d30-4c95-8aed-0290b82c61b5, .uuid-1c70a986-d3b1-4609-b1e9-242dd0697326, .uuid-590a9ecf-1a0b-4a53-b3ba-165c585ae09b, .uuid-0bc1c020-9164-4c8a-97ac-a629eea1bcac, .uuid-d8c6d1f0-aa26-48d1-a854-97db20284fc5 {
        stroke-width: 0px;
      }

      .uuid-1c70a986-d3b1-4609-b1e9-242dd0697326 {
        fill: #fff;
      }

      .uuid-590a9ecf-1a0b-4a53-b3ba-165c585ae09b {
        fill: #22a7f0;
      }

      .uuid-0bc1c020-9164-4c8a-97ac-a629eea1bcac {
        fill: #28dddd;
      }

      .uuid-d8c6d1f0-aa26-48d1-a854-97db20284fc5 {
        fill: #111a28;
      }

      .uuid-0a1cea8f-829e-4f4a-ae8b-e56a7803ebc9 {
        opacity: .25;
      }
    </style>
  </defs>
  <rect class="uuid-0bc1c020-9164-4c8a-97ac-a629eea1bcac" width="4000" height="4000"/>
  <g>
    <path class="uuid-1c70a986-d3b1-4609-b1e9-242dd0697326" d="m2370.1,2668.01c-36.74-11.86-73.43-31.93-107.86-61.46-109.41-93.8-132.99-541.11-132.99-541.11l.5-.65,200.46-268.58s15.22,21.32,39.39,56.56c24.73,36.14,58.81,86.84,95.5,144.15,84.89,132.79,183.59,301.06,211.57,405.32,50.7,188.9-129.33,322.88-306.57,265.78Z"/>
    <g class="uuid-0a1cea8f-829e-4f4a-ae8b-e56a7803ebc9">
      <path class="uuid-d720a498-0d30-4c95-8aed-0290b82c61b5" d="m2684.87,2480.32c-9.51,145.55-163.17,236.54-314.78,187.69-36.74-11.86-73.43-31.93-107.86-61.46-109.41-93.8-132.99-541.11-132.99-541.11l.5-.65,41.99-56.26c9.86,119.92,42.69,415.98,129.33,490.26,34.44,29.53,183.66,69.93,222.08,73.73,95.23,9.4,104.96-14.31,161.72-92.2Z"/>
    </g>
    <path class="uuid-d720a498-0d30-4c95-8aed-0290b82c61b5" d="m2453.14,2699.31c-65.68,0-137.47-22.6-202.94-78.73-114.13-97.82-138.42-535.61-139.4-554.2-.54-10.2,7.29-18.89,17.49-19.43,10.28-.6,18.89,7.29,19.43,17.49,6.44,122.24,41.74,455.39,126.54,528.08,112.12,96.1,232.59,79.37,301.69,35.85,75.06-47.28,106.82-132.09,82.88-221.33-50.36-187.75-340.74-596.02-343.67-600.12-5.93-8.31-4-19.85,4.31-25.78,8.31-5.92,19.86-4,25.78,4.31,12.11,16.97,297.2,417.83,349.29,612.01,28.29,105.48-9.6,205.94-98.88,262.18-38.79,24.43-88.59,39.67-142.5,39.67Z"/>
    <path class="uuid-d720a498-0d30-4c95-8aed-0290b82c61b5" d="m2320.74,2329.41c-6.98,0-13.66-3.97-16.79-10.72-4.29-9.26-.26-20.24,9-24.53,7.89-3.66,194.73-89.06,316.91-41.47,9.51,3.7,14.22,14.41,10.52,23.93-3.71,9.52-14.42,14.22-23.93,10.52-107.48-41.86-286.17,39.74-287.96,40.57-2.51,1.16-5.15,1.71-7.75,1.71Z"/>
    <g>
      <circle class="uuid-1c70a986-d3b1-4609-b1e9-242dd0697326" cx="2437.88" cy="2391.68" r="80.76" transform="translate(-977.14 2424.35) rotate(-45)"/>
      <g class="uuid-61ef154e-f406-4ada-83c5-4dba2957af33">
        <path class="uuid-d720a498-0d30-4c95-8aed-0290b82c61b5" d="m2518.6,2393.64c-1.08,44.59-38.09,79.89-82.67,78.81-44.59-1.08-79.89-38.15-78.81-82.74.3-12.32,3.34-23.99,8.6-34.33,12.3,27.58,39.68,47.19,71.89,47.97s60.51-17.47,74.07-44.42c4.75,10.58,7.22,22.39,6.92,34.71Z"/>
      </g>
      <path class="uuid-d720a498-0d30-4c95-8aed-0290b82c61b5" d="m2437.94,2490.93c-.83,0-1.65,0-2.48-.03-26.5-.64-51.16-11.57-69.45-30.77-18.28-19.19-28-44.36-27.35-70.86,1.34-54.71,46.86-98.08,101.63-96.8,26.5.64,51.16,11.57,69.45,30.77,18.28,19.19,28,44.36,27.35,70.86-.64,26.5-11.57,51.17-30.76,69.45-18.6,17.71-42.8,27.38-68.39,27.38Zm-.08-161.52c-33.65,0-61.42,26.95-62.24,60.77-.83,34.33,26.42,62.94,60.75,63.77.51,0,1.03.02,1.54.02,33.65,0,61.42-26.95,62.24-60.77.84-34.33-26.42-62.94-60.74-63.77-.51,0-1.03-.02-1.54-.02Z"/>
    </g>
    <path class="uuid-1c70a986-d3b1-4609-b1e9-242dd0697326" d="m2559.44,2532.42l-36.29,40.09-72.38,80.03c-39.89-.05-62.06-46.5-73.78-104.36-16.67-82.19-12.21-187.39-7.51-215.37,5.96-34.94,59.71-80.53,118.37-45.95,84.79,50,71.57,245.55,71.57,245.55Z"/>
    <g class="uuid-0a1cea8f-829e-4f4a-ae8b-e56a7803ebc9">
      <path class="uuid-d720a498-0d30-4c95-8aed-0290b82c61b5" d="m2523.16,2572.51l-72.38,80.03c-39.89-.05-62.06-46.5-73.78-104.36,26.48,18.42,74.23,38.84,146.15,24.33Z"/>
    </g>
    <path class="uuid-d720a498-0d30-4c95-8aed-0290b82c61b5" d="m2556.38,2532.2c-4.98-31.91-9.5-63.29-15.55-93.81-6.29-30.35-13.38-60.4-25.44-86.66-6.03-13.01-13.1-25.17-21.85-34.71-2.26-2.27-4.41-4.72-6.86-6.63-1.21-.98-2.31-2.16-3.58-3.02l-3.79-2.63c-2.48-1.82-5.56-3.05-8.29-4.68-1.38-.87-2.84-1.38-4.3-1.9l-4.35-1.67c-11.67-4.15-23.96-3.75-35.54-.04-11.72,3.45-22.3,11.62-29.91,21.2-3.59,4.9-6.44,10.15-7.92,14.97-.23,1.19-.52,2.26-.84,3.49l-.68,5.16c-.42,3.62-.75,7.38-1.05,11.18-1.04,15.29-1.37,30.98-1.37,46.6.17,31.29,1.44,62.62,4.13,93.56,1.35,15.46,3.17,30.82,5.42,45.98,2.38,15.13,5.45,30.01,9.2,44.4,3.8,14.36,8.51,28.22,15.39,40.24,3.26,6.28,7.63,11.3,12.61,16.04,5.11,4.66,11.49,7.66,18.97,10.19l.44.15c1.63.55,2.5,2.31,1.95,3.94-.38,1.11-1.33,1.87-2.4,2.07-2.12.38-4.3.64-6.54.92-1.12.11-2.26.32-3.39.33l-3.38-.27c-2.25-.25-4.66-.3-6.92-.81l-6.72-2.06c-8.81-3.24-16.86-8.78-23.36-15.18-13.28-12.91-22.04-28.65-28.77-44.41-6.7-15.86-11.08-32.19-14.62-48.48-3.64-16.29-6.11-32.67-7.99-49.03-3.63-32.74-4.54-65.46-3.57-98.14.48-16.37,1.35-32.66,2.92-49.26.39-4.17.83-8.37,1.39-12.69.26-2.14.67-4.49,1-6.72.59-2.66,1.31-5.45,2.03-8.15,3.36-10.44,8.6-19.22,14.63-27.09,6.32-7.56,13.29-14.45,21.32-19.98,3.94-2.83,8.17-5.33,12.43-7.71,4.46-2.06,8.78-4.42,13.57-5.81,2.35-.77,4.69-1.6,7.07-2.28l7.33-1.51c4.86-1.22,9.93-1.12,14.91-1.56,4.98-.03,10,.39,14.95.88,4.82,1.01,9.85,1.63,14.5,3.14l6.95,2.34c2.33.77,4.65,1.57,6.75,2.7,4.29,2.2,8.7,3.97,12.83,6.65l6.2,4.01c2.06,1.35,3.85,2.97,5.78,4.47,3.94,2.94,7.2,6.42,10.61,9.79,13.23,13.8,22.27,29.86,29.22,45.98,3.42,8.12,6.26,16.31,8.73,24.55,2.26,8.27,4.28,16.54,5.9,24.82,3.14,16.58,5.06,33.16,5.54,49.72.73,16.52.16,32.99-1.32,49.32-1.48,16.34-3.99,32.51-8.24,48.52-.44,1.67-2.16,2.67-3.84,2.23-1.24-.33-2.11-1.36-2.3-2.55v-.1Z"/>
    <g>
      <path class="uuid-1c70a986-d3b1-4609-b1e9-242dd0697326" d="m1824.88,1829.22l-61.35,689.42-25.33,284.72s-315.05,10.38-404.96-113.84c-33.25-46.05-48.55-176.8-47.96-319.66.81-174.03,25.12-366.12,69.16-444.83,70.7-126.34,362.05-113.2,470.44-95.81Z"/>
      <g class="uuid-0a1cea8f-829e-4f4a-ae8b-e56a7803ebc9">
        <path class="uuid-d720a498-0d30-4c95-8aed-0290b82c61b5" d="m1763.53,2518.64l-25.33,284.72s-315.05,10.38-404.96-113.84c-33.25-46.05-48.55-176.8-47.96-319.66l195.73-30.14s67.95,2.71,66.93,218.92c-.25,60.5,91.43,85.73,161.26,38.97,25.32-16.98,42.43-45.22,54.34-78.97Z"/>
      </g>
      <path class="uuid-d720a498-0d30-4c95-8aed-0290b82c61b5" d="m1718.44,2822.11c-73.16,0-318.31-8.67-400.15-121.77-43.51-60.14-54.71-234.77-50.67-378.15,4.01-142.42,24.69-323.92,70.72-406.2,77.29-138.16,379.52-122.67,489.46-105.04,10.08,1.62,16.94,11.1,15.32,21.18-1.62,10.08-11.06,16.93-21.18,15.32-120.63-19.35-389.69-23.63-451.35,86.59-35.23,62.97-61.15,215.74-66.03,389.19-4.78,169.9,12.77,312.73,43.67,355.44,83.1,114.84,386.34,106.31,389.38,106.23,10.18-.52,18.74,7.67,19.08,17.87s-7.66,18.74-17.86,19.08c-1.78.06-9.01.27-20.4.27Z"/>
      <path class="uuid-1c70a986-d3b1-4609-b1e9-242dd0697326" d="m1303.95,2340.41l165.24,17.05c14.75,1.52,26.63,12.78,28.86,27.44,8.17,53.69,20.62,178.67-32.49,218.35-44.08,32.93-113.99,26.97-154.06-8.9-44.82-40.13-45.89-162.4-43.46-222.84.76-18.79,17.2-33.02,35.91-31.09Z"/>
      <g class="uuid-0a1cea8f-829e-4f4a-ae8b-e56a7803ebc9">
        <path class="uuid-d720a498-0d30-4c95-8aed-0290b82c61b5" d="m1498.04,2384.91c8.2,53.67,20.62,178.66-32.49,218.32-44.09,32.95-113.98,26.98-154.07-8.9-27.54-24.7-38.56-80.45-42.39-133.77,6.72,26.77,17.83,48.67,32,63.23,81.2,83.42,146.17-10.45,146.17-10.45,0,0,10.17,23.52,18.75,25.07,35.88,6.5,31.57-106.51,27.99-164.93,2.02,3.42,3.43,7.27,4.05,11.43Z"/>
      </g>
      <path class="uuid-d720a498-0d30-4c95-8aed-0290b82c61b5" d="m1395.73,2643.4c-35,0-70.49-11.95-96.55-35.29-47.18-42.25-53.02-152.39-49.6-237.35.56-14.03,6.97-27.34,17.57-36.53,10.62-9.19,24.72-13.66,38.7-12.2h0l165.24,17.05c23.14,2.39,41.74,20.09,45.24,43.05,10.53,69.17,19.38,191.79-39.7,235.93-22.76,17.01-51.66,25.35-80.9,25.35Zm-95.17-284.68c-3.39,0-6.61,1.2-9.21,3.44-2.97,2.57-4.69,6.15-4.85,10.08-4.25,105.72,9.7,183.6,37.33,208.33,34.81,31.17,94.65,34.78,130.67,7.87,31.4-23.46,40.85-98.51,25.28-200.76-.96-6.31-6.1-11.18-12.49-11.84l-165.24-17.05h0c-.5-.05-1-.07-1.49-.07Z"/>
      <path class="uuid-d720a498-0d30-4c95-8aed-0290b82c61b5" d="m1443.78,2415.95c-.48,20.03.94,39.99.9,60.17.04,20.16-.85,40.56-4.81,61-3.97,20.3-11.14,41.09-24.92,58.92-6.84,8.86-15.3,16.75-24.86,23.02-9.55,6.3-20.08,10.98-30.86,14.32l-.06.02c-7.93,2.46-16.35-1.98-18.81-9.9-2.46-7.93,1.98-16.35,9.9-18.81.6-.19,1.29-.35,1.9-.46,17.25-2.98,33.31-10.3,45.79-22.94,12.58-12.51,21.41-29.62,27.38-47.91,6.03-18.36,9.42-37.95,11.85-57.7,2.52-19.76,3.62-39.88,6.59-59.73Z"/>
      <path class="uuid-d720a498-0d30-4c95-8aed-0290b82c61b5" d="m1449.84,1905.03c22.82.41,45.45,1.32,68.18,2.51,22.71,1.19,45.42,2.79,68.15,4.89,22.73,2.06,45.48,4.63,68.29,8.24,22.84,3.7,45.64,7.79,68.97,15.45,9.71,3.19,14.99,13.64,11.81,23.34-3.19,9.71-13.64,14.99-23.34,11.81-.46-.15-.91-.32-1.35-.5l-.1-.04c-19.14-8.02-40.64-13.78-62.09-18.95-21.54-5.15-43.52-9.39-65.62-13.13-22.1-3.79-44.34-7.1-66.66-10.02-22.3-2.91-44.74-5.56-67.06-7.7h-.08c-4.38-.42-7.59-4.32-7.17-8.7.4-4.17,3.96-7.27,8.07-7.21Z"/>
    </g>
    <path class="uuid-1c70a986-d3b1-4609-b1e9-242dd0697326" d="m2602.45,1812.04v-.95c.5.05.5.35,0,.95Z"/>
    <path class="uuid-1c70a986-d3b1-4609-b1e9-242dd0697326" d="m2602.45,1812.04v-.95c.5.05.5.35,0,.95Z"/>
    <path class="uuid-1c70a986-d3b1-4609-b1e9-242dd0697326" d="m2602.45,1811.09c.5.05.5.35,0,.95v-.95Z"/>
    <path class="uuid-1c70a986-d3b1-4609-b1e9-242dd0697326" d="m2636.02,3423.09c1.35,117.92-127.08,125.48-284.44,125.58-112.57.05-197-18.92-239.05-55.11-68.92-59.26-51.3-394.01-125.98-1003.99l392.71-35.69s22.92,122.23,47.3,296.21c21.67,154.66,44.5,350.26,53.46,537.26,0,0,141.25,38.44,154.96,123.38.65,4,1,8.11,1.05,12.36Z"/>
    <g class="uuid-0a1cea8f-829e-4f4a-ae8b-e56a7803ebc9">
      <path class="uuid-d720a498-0d30-4c95-8aed-0290b82c61b5" d="m2636.02,3423.09c1.35,117.92-127.08,125.48-284.44,125.58-112.57.05-197-18.92-239.05-55.11-68.92-59.26-51.3-394.01-125.98-1003.99l392.71-35.69s22.92,122.23,47.3,296.21c-86.14,62.36-162.97,91.44-243.6,184.54-96.6,111.47-74.93,493.46,111.62,518.19,147.75,19.57,279.99,15.47,340.4-42.09.65,4,1,8.11,1.05,12.36Z"/>
    </g>
    <path class="uuid-d720a498-0d30-4c95-8aed-0290b82c61b5" d="m2351.01,3567.13c-118.61,0-205.23-20.59-250.55-59.57-47.13-40.54-56.64-166.3-75.58-416.85-11.97-158.34-26.86-355.38-56.69-598.9-1.24-10.13,5.97-19.35,16.1-20.59,10.14-1.25,19.35,5.97,20.59,16.1,29.93,244.37,44.86,441.89,56.86,600.6,16.44,217.42,27.29,361.05,62.82,391.61,37.97,32.65,118.38,50.63,226.45,50.63h.55c105.44-.06,203.45-3.53,244.15-44.71,15-15.19,22.15-35.51,21.84-62.15-.74-65.15-103.05-107.36-142.41-118.13l-12.94-3.54-.66-13.41c-18.76-391.42-99.66-826.58-100.48-830.93-1.88-10.03,4.73-19.69,14.76-21.57,10.03-1.92,19.69,4.73,21.57,14.76.81,4.33,80.41,432.41,100.42,823,39.74,13.2,155.66,59.38,156.69,149.39.42,36.5-10.52,66.3-32.51,88.55-50.78,51.39-152.51,55.63-270.42,55.69h-.58Z"/>
    <g class="uuid-61ef154e-f406-4ada-83c5-4dba2957af33">
      <path class="uuid-d720a498-0d30-4c95-8aed-0290b82c61b5" d="m1977.24,2527.74c-.92-8.92-1.94-18.04-3.01-27.25,1.07,9.21,2.04,18.33,3.01,27.25Z"/>
    </g>
    <g class="uuid-61ef154e-f406-4ada-83c5-4dba2957af33">
      <path class="uuid-d720a498-0d30-4c95-8aed-0290b82c61b5" d="m1906.29,2523.1c-.99-10.88-2.08-21.87-3.22-33.1,1.13,11.24,2.22,22.27,3.22,33.1Z"/>
    </g>
    <path class="uuid-1c70a986-d3b1-4609-b1e9-242dd0697326" d="m2443.02,2497.03c-2.85,24.83-7.86,48.25-15.47,70.02-15.02,42.79-38.09,80.13-67.17,112.07-224.23,246.41-806.79,175.88-825-133.74-.65-10.61-.6-21.57.15-32.83,2.65-39.79,6.36-81.89,10.56-125.53,25.58-263.42,71.42-584.35,34.19-803.23,78.73,78.73,607.73,113.22,610.88,63.52,3.3-49.05-420.03-257.67-235.79-228.44,135.64,28.68,334.15,54.31,372.89,164.92,2.35,24.38,13.81,55.81,21.97,78.08l34.99,345.16c22.77,166.17,73.98,349.86,57.81,490.01Z"/>
    <path class="uuid-d720a498-0d30-4c95-8aed-0290b82c61b5" d="m2394.37,2005.77c16.5,53.33,26.97,107.32,36.75,162.03,10.01,54.6,19.99,109.54,26.76,165.4,3.37,27.93,5.94,56.09,6.82,84.56.88,28.44.36,57.2-3.33,86.04-1.68,14.41-4.41,28.83-7.89,43.14l-2.82,10.71c-1.02,3.55-2.22,7.08-3.33,10.62-2.19,7.14-4.82,13.91-7.55,20.75-10.95,27.27-25.61,53.08-43.15,76.6-35.13,47.21-81.73,84.53-132.45,112.04-50.86,27.6-105.91,45.95-161.96,57.12-56.13,11.07-113.45,14.99-170.47,12.19-57-2.88-113.86-12.46-168.62-30.24-54.57-17.89-107.6-44.07-152.46-82.74-22.3-19.33-42.42-41.84-58.24-67.47-15.91-25.53-27.38-54.13-33.31-83.76-2.91-14.82-4.64-29.85-5-44.85-.15-7.5-.14-14.99.31-22.44.37-7.53.96-14.09,1.43-21.18,2.04-27.85,4.38-55.63,7-83.34,5.16-55.44,11.09-110.67,16.93-165.83,11.7-110.3,23.28-220.38,29.62-330.46,3.02-55.02,4.85-110.04,3.89-164.81-.89-54.75-4.59-109.33-13.38-162.6l-10.5-63.57,45.48,45.5c3.35,3.35,8.47,6.95,14.12,10.15,5.66,3.23,11.92,6.2,18.41,8.94,13.01,5.48,26.92,10.09,41.06,14.2,28.36,8.2,57.77,14.5,87.37,19.9,59.29,10.67,119.59,17.74,179.94,22.39,30.19,2.28,60.42,3.92,90.59,4.67,30.14.71,60.33.68,89.83-1.26,14.66-1.02,29.4-2.48,42.57-5.27,3.26-.7,6.39-1.49,9.14-2.37,2.75-.84,5.14-1.92,6.1-2.5.41-.22.29-.35-.67.75-.44.54-1.2,1.56-1.74,2.98-.38.79-.55,1.61-.76,2.5-.2.9-.22,1.9-.25,2.38.05,2.49.54,3.05.43,2.92-.05-.13-.44-.86-1-1.69-2.49-3.67-7.37-8.7-12.38-13.26-5.1-4.66-10.68-9.27-16.43-13.79-11.52-9.06-23.69-17.83-36.03-26.45-49.59-34.57-101.65-66.6-152.51-102.38-12.73-9.08-25.37-18.28-37.95-29.14-3.15-2.75-6.3-5.62-9.48-8.83-3.19-3.3-6.4-6.67-9.8-11.69-1.68-2.6-3.52-5.52-5.06-10.39-.37-1.19-.71-2.73-.95-4.19-.21-1.77-.39-3.3-.24-5.44.11-3.88,1.62-8.87,4.14-12.51,1.28-1.96,2.6-3.35,4.04-4.73,1.32-1.19,2.76-2.26,4.01-3.03,2.52-1.55,4.79-2.49,6.7-3.13,3.88-1.29,6.99-1.78,9.74-2.08,10.87-1.04,18.99-.09,27.39.77,4.23.52,7.88,1,12.51,1.75,4.21.76,8.17,1.69,11.81,2.42l44.82,9.1c60.02,12.15,120.92,24.28,180.57,45.34,29.72,10.69,59.32,23.6,86.67,42.4,13.61,9.43,26.62,20.44,37.86,33.62,11.24,13.13,20.57,28.58,26.41,45.4l.75,2.15.22,2.25c1.1,11.25,4.22,23.69,7.93,36,3.75,12.38,8.19,24.81,12.82,37.51,3.49,9.59-1.45,20.2-11.04,23.69-9.59,3.49-20.18-1.39-23.67-10.98-4.7-12.74-9.47-25.83-13.64-39.38-4.12-13.61-7.9-27.53-9.57-43.29l.97,4.4c-8.46-24.25-27.29-44.52-50.46-60.26-23.2-15.84-50.18-27.69-78-37.5-55.96-19.51-115.54-31.25-175.4-43.03l-45.16-8.95c-3.86-.76-7.35-1.56-10.67-2.15-2.92-.44-6.85-.98-10.22-1.36-6.78-.77-14.02-1.19-18.39-.67-1.05.09-1.73.32-1.47.24.09-.05.62-.19,1.49-.75.96-.59,2.38-1.67,3.91-3.88,1.44-2.07,2.33-5.17,2.4-7.14.02-1.19.03-1.77-.12-2.59-.04-.52-.22-1.12-.3-1.4-.4-1.22-.34-.77.09-.19.88,1.33,2.88,3.62,5.03,5.78,2.21,2.21,4.72,4.49,7.35,6.76,10.61,9.1,22.75,17.93,34.95,26.54,49.37,34.44,101.74,66.37,152.72,101.55,12.77,8.84,25.48,17.9,38.05,27.69,6.29,4.92,12.54,10.01,18.76,15.64,6.23,5.77,12.4,11.48,18.71,20.36,1.58,2.33,3.17,4.89,4.68,8.25,1.44,3.35,3.08,7.66,3.12,13.98.03,1.44-.16,3.38-.51,5.23-.33,1.84-.92,3.54-1.55,5.25-1.33,3.15-3.08,5.83-4.77,7.82-3.44,4.03-6.66,6.22-9.49,8-5.63,3.33-10.4,5.07-14.93,6.54-4.53,1.44-8.83,2.51-13.05,3.42-16.78,3.52-32.59,4.98-48.42,6.13-31.56,2.09-62.62,2.12-93.64,1.41-31-.75-61.88-2.4-92.7-4.73-61.63-4.75-123.03-11.93-184.19-22.92-30.58-5.58-61.09-12.08-91.52-20.87-15.22-4.43-30.41-9.42-45.61-15.81-7.6-3.21-15.21-6.78-22.83-11.13-7.61-4.38-15.31-9.38-22.85-16.81l34.99-18.08c9.31,56.23,13.09,112.66,14.04,168.8,1.01,56.17-.83,112.11-3.86,167.86-6.36,111.48-17.97,222.17-29.61,332.51-5.81,55.17-11.7,110.26-16.79,165.3-2.58,27.52-4.89,55.02-6.88,82.5-.44,6.75-1.08,14.01-1.37,20.33-.39,6.4-.39,12.78-.26,19.15.31,12.73,1.78,25.35,4.22,37.74,4.94,24.77,14.31,48.53,27.68,70.11,13.27,21.65,30.44,41.09,49.97,58.12,39.23,34.1,87.48,58.45,138.06,75.17,50.75,16.67,104.22,25.91,157.96,28.78,53.77,2.81,107.96-.73,160.73-10.98,52.7-10.32,104.13-27.38,150.94-52.61,46.72-25.16,88.76-58.84,120.12-100.72,15.67-20.89,28.72-43.68,38.52-67.87,2.42-6.02,4.85-12.19,6.73-18.31.97-3.08,2.03-6.11,2.93-9.22l2.5-9.4c3.1-12.62,5.62-25.5,7.19-38.63,3.45-26.19,4.07-53.09,3.32-80.06-.74-26.99-3.11-54.14-6.29-81.29-6.39-54.32-16.04-108.66-25.86-163.2-10.05-54.44-19.91-109.56-18.57-166.16.12-5.17,4.41-9.26,9.58-9.14,4.12.1,7.56,2.84,8.72,6.58v.05Z"/>
    <path class="uuid-d720a498-0d30-4c95-8aed-0290b82c61b5" d="m2099.64,3073.97c-35.1,0-57.77-1.91-60.71-2.18-10.16-.91-17.66-9.89-16.76-20.05.91-10.17,9.89-17.64,20.05-16.77,2.32.19,234.86,19.6,403.64-74.41,8.91-4.97,20.17-1.77,25.14,7.15,4.97,8.92,1.77,20.17-7.15,25.14-126.04,70.21-280.48,81.11-364.21,81.11Z"/>
    <path class="uuid-d720a498-0d30-4c95-8aed-0290b82c61b5" d="m2476.36,3305.46c-6.4-1.56-14.18-3.02-21.47-4.12-7.42-1.16-14.92-2.02-22.44-2.77-15.05-1.39-30.21-1.84-45.34-1.4-15.15.32-30.21,2-45.1,4.59-14.97,2.42-29.42,6.83-43.73,11.77l-.5.17c-4.82,1.67-10.08-.89-11.75-5.71-1.56-4.51.62-9.43,4.85-11.4,14.82-6.86,30.07-13.14,45.9-17.34,15.76-4.37,31.85-7.76,48.07-9.72,16.22-2.08,32.57-3.19,48.95-3.29,8.19,0,16.39.15,24.62.62,4.11.23,8.23.5,12.38.89,4.23.38,8.13.78,12.87,1.47,10.12,1.47,17.12,10.87,15.64,20.99-1.48,10.11-10.87,17.12-20.99,15.64-.57-.08-1.13-.19-1.68-.32l-.29-.07Z"/>
    <path class="uuid-1c70a986-d3b1-4609-b1e9-242dd0697326" d="m2009.81,2705.57s-87.71,452.74-128.84,664.5c-35.09,180.66-158.04,192.44-428,182.35-94.97-3.55-167.38-36.26-160.05-113.97,9.84-104.38,157.14-143.9,157.14-143.9,0,0,52.97-526.59,89.1-814.08l470.66,225.09Z"/>
    <g class="uuid-0a1cea8f-829e-4f4a-ae8b-e56a7803ebc9">
      <path class="uuid-d720a498-0d30-4c95-8aed-0290b82c61b5" d="m1840.95,3260.52c29.96-189.15,141.35-470.69,164.37-531.6-18.47,95.3-88.84,458.17-124.33,641.16-35.09,180.64-158.06,192.45-428.04,182.34-94.95-3.55-167.37-36.29-160.02-113.97.75-8.01,2.3-15.67,4.61-22.92,21.56,29.03,69.56,42.93,115.42,45.52,291.83,16.49,399.59-21.2,427.99-200.53Z"/>
    </g>
    <path class="uuid-d720a498-0d30-4c95-8aed-0290b82c61b5" d="m2018.88,2707.32c-5.36,68.86-17.16,136.48-30.04,203.89l-38.53,202.24-38.53,202.25-9.63,50.56c-1.54,8.24-3.34,17.36-5.41,26.1-2.08,8.81-4.55,17.6-7.37,26.34-5.65,17.47-13.03,34.79-22.89,51.11-9.82,16.31-22.25,31.53-36.89,44.26-14.61,12.78-31.23,22.93-48.44,30.6-17.22,7.74-34.97,13.18-52.68,17.24-35.49,8.1-70.88,11.1-105.85,12.63-35,1.45-69.7,1.22-104.25.47-17.28-.38-34.51-.91-51.72-1.53l-12.9-.47c-4.36-.2-8.93-.37-13.39-.68-8.98-.53-17.99-1.46-27.01-2.64-18.03-2.41-36.17-6.19-54.12-12.36-17.84-6.34-35.76-15.14-51.4-28.85-7.77-6.83-14.86-14.94-20.5-24.12-5.63-9.19-9.7-19.4-12.05-29.76-2.37-10.37-3.07-20.83-2.63-30.92.41-10.04,2.06-20.06,4.72-29.78,5.37-19.48,15.31-37.27,27.47-52.29,12.19-15.09,26.48-27.66,41.56-38.42,15.1-10.77,31.13-19.64,47.55-27.31,8.22-3.82,16.55-7.32,25.01-10.52,4.23-1.6,8.49-3.12,12.81-4.56,4.42-1.46,8.46-2.75,13.49-4.12h.02s-13.6,15.99-13.6,15.99c13.77-135.86,27.92-271.63,42.58-407.39,14.71-135.76,29.71-271.46,46.57-407.14,1.26-10.13,10.49-17.32,20.62-16.06,10.13,1.26,17.32,10.49,16.06,20.62v.05c-16.81,135.22-31.81,270.86-46.51,406.5-14.64,135.65-28.79,271.39-42.55,407.12l-1.27,12.51-12.33,3.49h0c-3.23.94-7.35,2.29-11.05,3.6-3.8,1.34-7.6,2.76-11.37,4.26-7.54,2.99-14.98,6.27-22.26,9.8-14.56,7.07-28.47,15.24-41.25,24.49-25.5,18.41-46.19,42.33-53.39,69.81-3.6,13.59-4.27,28.6-1.25,41.17,2.96,12.72,9.87,23.59,20.23,32.45,10.29,8.9,23.69,15.65,38.15,20.61,14.52,4.98,30.13,8.3,46.09,10.4,7.99,1.03,16.06,1.86,24.21,2.33,4.09.28,8.09.42,12.31.61l12.81.45c17.08.59,34.14,1.09,51.17,1.45,34.05.71,68.02.87,101.59-.56,33.53-1.48,66.83-4.48,98.29-11.73,31.44-7.14,60.73-19.24,83.4-38.69,22.75-19.37,38.39-46.51,48.33-76.81,2.51-7.56,4.75-15.28,6.67-23.16,1.94-7.95,3.53-15.65,5.2-24.26l9.96-50.5,39.84-201.99,39.84-201.98c13.25-67.34,27.57-134.46,48.34-200.34,1.54-4.9,6.77-7.62,11.67-6.08,4.21,1.33,6.81,5.38,6.48,9.59Z"/>
    <path class="uuid-d720a498-0d30-4c95-8aed-0290b82c61b5" d="m1786.32,3064.6c-221.4,0-310.23-49.8-314.64-52.36-8.83-5.12-11.83-16.44-6.7-25.26,5.11-8.8,16.37-11.82,25.19-6.74,1.46.83,127.49,69.68,453.45,39.78,10.13-.96,19.16,6.55,20.1,16.71.93,10.17-6.55,19.16-16.72,20.09-59.93,5.5-113.34,7.78-160.68,7.78Z"/>
    <path class="uuid-d720a498-0d30-4c95-8aed-0290b82c61b5" d="m1440.8,3276.07c13.35-2.11,25.51-3.25,38.22-4.2,12.59-.88,25.17-1.35,37.76-1.42,25.17-.16,50.36,1.39,75.35,4.87,24.98,3.56,49.77,9.17,73.72,17.62,11.98,4.2,23.66,9.3,35.04,14.98,11.34,5.81,22.21,12.52,32.61,19.89,4.16,2.95,5.15,8.72,2.2,12.88-2.83,3.99-8.25,5.06-12.36,2.54l-.25-.15c-9.98-6.15-20.32-11.68-31.08-16.36-10.82-4.56-21.86-8.58-33.2-11.77-22.66-6.42-46.1-10.2-69.71-12.07-23.63-1.78-47.44-1.76-71.14-.1-11.85.81-23.67,2.01-35.42,3.57-11.6,1.58-23.72,3.56-34.4,5.95l-.38.09c-9.97,2.24-19.86-4.03-22.1-14-2.24-9.97,4.03-19.86,14-22.1.37-.08.79-.16,1.16-.22Z"/>
    <g class="uuid-0a1cea8f-829e-4f4a-ae8b-e56a7803ebc9">
      <path class="uuid-d720a498-0d30-4c95-8aed-0290b82c61b5" d="m2443.02,2497.03c-1.45,12.76-3.5,25.13-6.21,37.09-.6,2.85-1.25,5.66-1.95,8.46-2.1,8.36-4.55,16.52-7.31,24.48-2.5,7.16-5.26,14.16-8.21,21.02-.7,1.65-1.4,3.3-2.15,4.9-.8,1.75-1.6,3.45-2.4,5.16-1.05,2.2-2.1,4.45-3.2,6.66-6.41,12.71-13.56,24.93-21.37,36.54-1.45,2.1-2.9,4.2-4.4,6.26-1.35,1.95-2.75,3.85-4.15,5.76-1.9,2.55-3.85,5.06-5.81,7.56-1.6,2-3.2,4-4.86,6.01-.75.9-1.5,1.75-2.25,2.65-1.7,2.05-3.4,4.05-5.16,6.01-1.05,1.2-2.15,2.4-3.2,3.55-87.79,96.45-230.44,144.35-372.69,148.3l26.83-129.63c32.28-1.6,64.42-4.85,95.95-9.81l-179.74,6.31c-50.5,1.8-93.3-38.09-95.1-88.64l-1.2-33.99c-176.98,20.47-272.48-14.32-299.06-26.28-.65-10.61-.6-21.57.15-32.83,2.65-39.79,6.36-81.89,10.56-125.53,97.5,44.65,224.38,40.14,283.09,34.89l-1.5-43.34c-1.55-44.25,28.83-82.54,70.37-92.6,5.86-1.45,12.01-2.25,18.27-2.5l426.64-14.97c50.55-1.8,93.4,38.09,95.1,88.64l4.96,139.89Z"/>
    </g>
    <path class="uuid-1c70a986-d3b1-4609-b1e9-242dd0697326" d="m2368.15,2600.17l-426.68,14.98c-50.5,1.79-93.31-38.09-95.1-88.65l-7.96-227.06c-1.55-44.27,28.84-82.56,70.36-92.59,5.88-1.46,12-2.28,18.29-2.51l426.62-14.98c50.56-1.79,93.38,38.09,95.1,88.66l6.35,179.84,1.68,47.22c1.79,50.56-38.15,93.31-88.66,95.1Z"/>
    <g class="uuid-0a1cea8f-829e-4f4a-ae8b-e56a7803ebc9">
      <path class="uuid-d720a498-0d30-4c95-8aed-0290b82c61b5" d="m2368.15,2600.17l-426.68,14.98c-50.5,1.79-93.31-38.09-95.1-88.65l-7.96-227.06c-1.55-44.27,28.84-82.56,70.36-92.59,24.79,15.24,40.54,24.99,40.54,24.99,27.17,181.53,23.91,316.93,306.04,288.25,97.27-9.89,161.57-40.83,199.78-62.24l1.68,47.22c1.79,50.56-38.15,93.31-88.66,95.1Z"/>
    </g>
    <path class="uuid-d720a498-0d30-4c95-8aed-0290b82c61b5" d="m1946.27,2633.42c-30.06,0-58.63-11.27-80.85-31.99-23.27-21.69-36.69-51.04-37.81-82.64l-7.39-210.34c-2.3-65.46,49.09-120.6,114.55-122.9l409.9-14.39c31.61-1.12,61.82,10.22,85.09,31.91,23.27,21.69,36.69,51.04,37.81,82.64l7.39,210.34c2.3,65.46-49.09,120.6-114.55,122.9l-409.9,14.39c-1.42.05-2.83.07-4.24.07Zm402.61-425.37c-.97,0-1.94.02-2.91.05l-409.9,14.39c-45.1,1.59-80.49,39.56-78.91,84.65l7.39,210.34c.76,21.73,10.02,41.94,26.07,56.89,16.05,14.96,36.89,22.75,58.59,22.01l409.9-14.39c21.73-.76,41.94-10.02,56.9-26.07,14.96-16.04,22.77-36.85,22.01-58.58l-7.39-210.34c-.76-21.73-10.02-41.94-26.07-56.89-15.33-14.29-35-22.07-55.68-22.07Z"/>
    <path class="uuid-1c70a986-d3b1-4609-b1e9-242dd0697326" d="m2385.21,2597.89c-5.49,1.34-11.16,2.1-17.07,2.28l-426.68,14.98c-37.01,1.28-69.88-19.74-85.49-51.06-5.69-11.37-9.11-24.1-9.55-37.59l-3.58-100.87-1.18-33.28-3.26-92.91c-1.79-50.56,38.15-93.31,88.66-95.1l92.2-3.21c-42.21,9.5-73.26,48.1-71.72,92.82l4.27,122.65,3.69,104.47c1.79,50.5,44.6,90.44,95.1,88.66l334.61-11.82Z"/>
    <g class="uuid-0a1cea8f-829e-4f4a-ae8b-e56a7803ebc9">
      <path class="uuid-d720a498-0d30-4c95-8aed-0290b82c61b5" d="m2385.21,2597.89c-5.49,1.34-11.16,2.1-17.07,2.28l-426.68,14.98c-50.5,1.79-93.31-38.09-95.03-88.65l-4.76-134.15c11.56,23.33,31.87,51.75,62.82,53.72,16.98,1.12,33.22-11.65,47.32-29.47l3.69,104.47c1.79,50.5,44.6,90.44,95.1,88.66l334.61-11.82Z"/>
    </g>
    <path class="uuid-d720a498-0d30-4c95-8aed-0290b82c61b5" d="m1938.13,2633.71c-27.9,0-54.43-10.47-75.08-29.72-21.64-20.17-34.11-47.46-35.12-76.84l-7.98-227.07c-2.17-60.82,45.59-112.07,106.46-114.24l92.17-3.22,4.72,36.5c-34.43,7.78-58.52,38.98-57.28,74.19l7.98,227.09c.67,19.51,8.98,37.65,23.38,51.08,14.4,13.43,33.05,20.51,52.55,19.75l334.66-11.79,4.92,36.46c-6.79,1.61-13.79,2.54-20.81,2.75l-426.59,15c-1.33.05-2.66.07-3.98.07Zm15.04-411.82l-25.46.89c-40.49,1.45-72.26,35.54-70.82,75.99l7.98,227.11c.67,19.5,8.98,37.63,23.38,51.06,14.41,13.43,33.06,20.52,52.55,19.75l28.45-1c-19.84-19.86-31.24-45.98-32.2-74.01l-7.98-227.07c-.95-27.13,8.09-52.69,24.1-72.72Z"/>
    <path class="uuid-590a9ecf-1a0b-4a53-b3ba-165c585ae09b" d="m2119.83,2403.43c.25,8.4-9.57,76.54-9.57,76.54,0,0-21.48.63-47.85,1.41-32.95.97-60.66-32.36-61.89-74.44-1.24-42.08,24.47-76.98,57.42-77.95,22.23-.65,47.85-1.41,47.85-1.41,0,0,13.64,62.17,14.05,75.85Z"/>
    <g class="uuid-61ef154e-f406-4ada-83c5-4dba2957af33">
      <path class="uuid-d720a498-0d30-4c95-8aed-0290b82c61b5" d="m2119.83,2403.43c.25,8.4-9.57,76.54-9.57,76.54,0,0-21.48.63-47.85,1.41-32.95.97-60.66-32.36-61.89-74.44-1.24-42.08,24.47-76.98,57.42-77.95,22.23-.65,47.85-1.41,47.85-1.41,0,0,13.64,62.17,14.05,75.85Z"/>
    </g>
    <path class="uuid-d720a498-0d30-4c95-8aed-0290b82c61b5" d="m2061.03,2495.26c-39.75,0-72.93-38.99-74.37-87.92-1.46-49.65,30.33-91.02,70.86-92.21l59.33-1.74,2.46,11.22c2.32,10.6,13.95,64.16,14.36,78.41h0c.26,8.9-7.36,62.66-9.7,78.93l-1.66,11.54-59.5,1.75c-.6.01-1.19.02-1.79.02Zm33.63-153.48l-36.33,1.06c-25.25.74-44.98,29.31-43.97,63.69,1.01,34.37,22.53,61.74,47.63,60.99l36.18-1.06c4.06-28.91,7.79-57.89,7.79-62.67-.25-7.78-6.32-38.55-11.31-62.01Z"/>
    <ellipse class="uuid-590a9ecf-1a0b-4a53-b3ba-165c585ae09b" cx="2108.02" cy="2403.78" rx="59.68" ry="76.23" transform="translate(-69.66 62.93) rotate(-1.68)"/>
    <g class="uuid-61ef154e-f406-4ada-83c5-4dba2957af33">
      <path class="uuid-d720a498-0d30-4c95-8aed-0290b82c61b5" d="m2048.37,2405.55c1.22,42.06,28.94,75.41,61.87,74.44,32.99-.96,58.69-35.88,57.42-77.98-.15-5.68-.82-11.23-1.94-16.55-7.63,29.15-28.85,50.39-54.43,51.1-28.45.83-53.04-23.9-59.94-57.84-2.21,8.39-3.24,17.43-2.99,26.83Z"/>
    </g>
    <path class="uuid-1c70a986-d3b1-4609-b1e9-242dd0697326" d="m2048.37,2405.55c.07,2.86.29,5.68.65,8.46,5.58-33.16,28.27-58.23,56.11-59.03,30.7-.88,56.9,28,61.22,66.03,1.06-6.13,1.5-12.46,1.32-19-1.22-42.06-28.93-75.41-61.87-74.45-32.94,1.01-58.64,35.88-57.42,77.98Z"/>
    <path class="uuid-d720a498-0d30-4c95-8aed-0290b82c61b5" d="m2108.88,2493.86c-39.75,0-72.93-38.99-74.37-87.92-.69-23.43,5.91-45.81,18.58-63.02,13.43-18.23,31.99-28.59,52.28-29.19,20.32-.46,39.43,8.66,53.91,26.07,13.66,16.43,21.56,38.38,22.25,61.82h0c.69,23.43-5.91,45.82-18.58,63.02-13.43,18.23-31.99,28.59-52.28,29.19-.6.01-1.19.02-1.79.02Zm-1.71-152.43c-.33,0-.65,0-.98.01-11.58.34-22.51,6.7-30.77,17.92-9.02,12.24-13.7,28.49-13.2,45.76,1.01,34.37,22.41,61.68,47.63,60.99,11.58-.34,22.51-6.7,30.77-17.92,9.02-12.24,13.7-28.49,13.2-45.77h0c-.51-17.27-6.14-33.22-15.86-44.91-8.65-10.41-19.55-16.09-30.79-16.09Z"/>
    <path class="uuid-d720a498-0d30-4c95-8aed-0290b82c61b5" d="m2235.44,2617.05c-7.58,0-13.77-6.1-13.86-13.7l-1.32-114.96c-.36-31.37,14.92-60.62,40.88-78.25,18.69-12.69,29.42-33.74,28.71-56.31l-5.12-161.97c-.24-7.65,5.76-14.05,13.42-14.3,7.69-.08,14.05,5.77,14.29,13.42l5.12,161.97c1.02,32.12-14.25,62.08-40.84,80.13-18.24,12.39-28.99,32.94-28.73,54.99l1.32,114.96c.09,7.66-6.05,13.94-13.7,14.02h-.16Z"/>
    <path class="uuid-1c70a986-d3b1-4609-b1e9-242dd0697326" d="m1551.92,2305.62s-55.87,7.36-57.65,72.73c-1.91,70.31,44.02,84.05,44.02,84.05,0,0,109.62,63.01,355.48,23.4,0,0,62.15-94.89-21.44-146.76,0,0-189.02,29.6-320.4-33.42Z"/>
    <g class="uuid-0a1cea8f-829e-4f4a-ae8b-e56a7803ebc9">
      <path class="uuid-d720a498-0d30-4c95-8aed-0290b82c61b5" d="m1893.75,2485.82c-245.85,39.59-355.47-23.42-355.47-23.42,0,0-45.95-13.76-44.05-84.04.15-5.51.7-10.56,1.55-15.27,13.06,23.87,32.78,29.78,32.78,29.78,0,0,97.74,56.19,315.67,29.12,28.68-3.56,52.6-24.26,59.04-52.43.06-.27.12-.54.18-.81,32.98,51.85-9.71,117.07-9.71,117.07Z"/>
    </g>
    <path class="uuid-d720a498-0d30-4c95-8aed-0290b82c61b5" d="m1740.02,2516.42c-131.59,0-197.96-32.15-208.96-38.01-10.81-4.13-56.32-25.99-54.29-100.53,1.44-52.8,33.11-74.79,51.86-83.2,12.93-5.8,27.95-5.83,41.22-.11t0,0c105.87,45.7,246.72,33.6,287.37,28.82,14.14-1.69,28.38,2.48,39.09,11.38,39.9,33.14,48.11,84.53,22.53,140.99-7.35,16.24-22.31,27.47-40.01,30.03-52.51,7.63-98.7,10.62-138.82,10.62Zm-190.78-191.13c-2.18,0-4.33.44-6.3,1.32-19.99,8.97-30.49,26.54-31.19,52.22-1.53,56.26,31.21,66.71,31.54,66.82,1.29.39,2.53.92,3.7,1.59.94.53,103.44,56.38,326.81,23.92,5.84-.84,10.75-4.52,13.16-9.83,13.34-29.44,21.9-70.62-13.01-99.63-3.38-2.8-7.98-4.09-12.63-3.55-42.83,5.06-191.46,17.72-305.34-31.45h0c-2.18-.94-4.48-1.41-6.74-1.41Z"/>
    <path class="uuid-1c70a986-d3b1-4609-b1e9-242dd0697326" d="m1796.85,1797.36l-57.61,97.75-147.25,249.81-4.55,7.76c-6.36-4.9-12.71-9.86-19.02-14.87-281.39-221.18-533.3-505.22-564.78-521.24-92.55-47.05-168.22-132.39-174.33-184.69-11.56-98.6,122.23-251.11,144.1-275.28,1.95-2.15,3-3.3,3-3.3,0,0-116.02-162.67-39.89-215.87,78.03-54.51,263.67,207.46,276.44,223.13,23.72,29.28,81.58-107.91,162.52-99.35,96.5,10.16-29.88,218.13-22.67,240.65,8.41,26.23,75.88,117.82,193.3,245.35,10.96,11.86,22.37,24.07,34.19,36.59,61.11,64.57,133.64,136.89,216.57,213.57Z"/>
    <g class="uuid-0a1cea8f-829e-4f4a-ae8b-e56a7803ebc9">
      <path class="uuid-d720a498-0d30-4c95-8aed-0290b82c61b5" d="m1591.99,2144.92l-4.55,7.76c-6.36-4.9-12.71-9.86-19.02-14.87-281.39-221.18-533.3-505.22-564.78-521.24-92.55-47.05-168.22-132.39-174.33-184.69-11.56-98.6,122.23-251.11,144.1-275.28,69.32,55.81,231.94,185.04,231.94,185.04,0,0-1.5,452.87,386.65,803.28Z"/>
    </g>
    <path class="uuid-d720a498-0d30-4c95-8aed-0290b82c61b5" d="m1587.43,2171.16c-3.95,0-7.92-1.25-11.28-3.85-195.15-150.71-377.71-334.1-486.79-443.67-43.81-44.01-85.19-85.57-94.19-90.64-94.34-47.95-177.04-137.24-184.25-198.98-11.6-99.41,106.34-241.74,142.11-282.34-20.41-31.49-69.97-115.78-59.35-177.41,3.82-22.19,14.68-39.67,32.26-51.96,58-40.55,154.58,30.93,295.23,218.54.76,1.01,1.46,1.95,2.1,2.8,6.54-5.29,16.74-16.52,24.64-25.21,31.25-34.38,74.09-81.46,129.51-75.62,24.95,2.63,37.6,15.62,43.81,26.04,23.39,39.23-1.04,106.36-32.84,183.59-7.06,17.15-15.73,38.21-17.2,45.87,15.47,37.74,165.43,233.23,438.22,485.45,7.5,6.93,7.95,18.63,1.03,26.12-6.93,7.5-18.62,7.95-26.12,1.03-272.37-251.84-434.74-458.5-449.11-503.44-3.93-12.28,1.82-27.35,19.01-69.1,17.85-43.36,51.09-124.06,35.27-150.59-1.94-3.24-5.49-7.11-15.94-8.21-36.81-3.89-70.9,33.6-98.28,63.72-21.3,23.44-36.79,40.38-55.28,39.86-8.27-.23-15.87-4.11-21.4-10.94-1.13-1.38-3.52-4.56-6.99-9.2-18.29-24.39-66.86-89.19-119.91-142.09-58.22-58.06-103.62-82.96-124.56-68.33-9.32,6.51-14.88,15.65-17,27.92-8.65,50.1,41.36,133.99,61.36,162.08,5.09,7.15,4.45,16.91-1.53,23.33-42.79,45.91-151.76,182.8-142.3,263.8,5.09,43.65,73.85,124.36,164.38,170.37,12.69,6.45,39.27,32.9,103.54,97.46,108.44,108.94,289.95,291.26,483.19,440.5,8.08,6.24,9.57,17.85,3.33,25.93-3.64,4.71-9.11,7.18-14.64,7.18Z"/>
    <path class="uuid-1c70a986-d3b1-4609-b1e9-242dd0697326" d="m960.29,1591.04s-30.48-18.57-62.06-48.75c-36.89-35.29-75.28-86.44-68.12-142.5,13.26-103.91,146.3-246.51,146.3-246.51,38.79-3.7,90.64,24.43,135.59,63.37,52.25,45.25,95.15,105.06,97.55,146.35,3.3,57.16-111.27,253.76-249.26,228.04Z"/>
    <g class="uuid-0a1cea8f-829e-4f4a-ae8b-e56a7803ebc9">
      <path class="uuid-d720a498-0d30-4c95-8aed-0290b82c61b5" d="m960.29,1591.04s-30.48-18.57-62.06-48.75c29.18-6.01,68.32-23.92,110.86-70.67,87.89-96.5,129.73-168.62,102.91-254.96,52.25,45.25,95.15,105.06,97.55,146.35,3.3,57.16-111.27,253.76-249.26,228.04Z"/>
    </g>
    <path class="uuid-d720a498-0d30-4c95-8aed-0290b82c61b5" d="m966.88,1573.76c2.3,0,4.49.13,6.69.44.9.21,2.65.24,4.21.3l4.73.2c3.15.29,6.32-.05,9.48-.18l4.75-.23,4.73-.68c12.61-1.71,25.13-5.32,37.18-10.58,24.05-10.76,46.35-27.04,65.97-46.41,19.67-19.33,37.1-41.43,51.81-65.1,7.36-11.82,14.08-24.04,19.83-36.51,5.69-12.41,10.64-25.31,13.31-37.45l.84-4.43c.27-1.46.3-2.75.49-4.13.25-1.46.11-2.48.16-3.63.11-1.04-.1-2.45-.26-3.81-.44-5.37-2.09-11.3-4.06-17.19-4.2-11.87-10.48-23.84-17.76-35.33-14.68-23.03-33.14-44.47-53.25-63.9-20.16-19.4-42.29-36.98-65.91-50.87-11.79-6.91-23.99-12.88-36.26-17.12-12.24-4.15-24.61-6.3-35.41-5.47l11.76-5.79c-14.33,15.67-28.53,32.68-41.99,49.7-13.47,17.13-26.28,34.73-38.47,52.65-12,18.02-23.26,36.43-33.17,55.31-2.56,4.69-4.62,9.53-6.97,14.29l-3.42,7.16c-1.1,2.4-1.96,4.84-2.95,7.26-1.87,4.85-3.98,9.68-5.69,14.54l-4.47,14.65c-.87,2.44-1.3,4.87-1.73,7.3l-1.4,7.28c-.41,2.4-1.11,4.91-1.29,7.21l-.57,6.87c-.27,9.21.83,18.53,3.17,27.75,4.6,18.51,14.24,36.46,26.34,53,12.06,16.62,26.63,31.95,42.38,46.08,7.88,7.07,16.09,13.85,24.53,20.31,4.24,3.2,8.5,6.38,12.84,9.41l6.52,4.47,3.26,2.15,1.61,1.03.78.49.38.24c-.46-.3-1.78-1-2.71-1.29Zm-13.22,34.52c-1.22-.47-2.84-1.35-3.59-1.84l-.5-.31-.98-.62-1.9-1.22-3.69-2.44-7.21-4.95c-4.76-3.33-9.4-6.79-14.02-10.28-9.19-7.04-18.12-14.41-26.77-22.17-17.27-15.52-33.53-32.51-47.59-51.84-14.02-19.24-26.08-41.01-32.3-65.7-3.11-12.28-4.69-25.21-4.27-38.21l.79-9.73c.3-3.23,1.06-6.11,1.58-9.18l1.75-9.07c.57-3.04,1.15-6.07,2.12-8.88,13.17-46.51,36.68-86.31,61.7-124.25,25.64-37.73,53.26-72.97,84.11-106.93l.04-.05c3.15-3.46,7.39-5.4,11.72-5.74,18.47-1.45,35.41,2.12,50.84,7.28,15.41,5.32,29.6,12.35,43.05,20.22,26.85,15.83,50.84,34.98,72.84,56.12,21.93,21.24,42.02,44.4,58.84,70.75,8.34,13.23,15.89,27.27,21.46,43.01,2.66,7.96,5.03,16.22,5.9,25.46.62,4.23.6,9.99.17,14.45-.26,2.25-.44,4.62-.82,6.76l-1.2,6.35c-3.67,16.47-9.44,31-15.89,45.18-6.51,14.1-13.93,27.58-22.03,40.6-16.2,26.03-35.25,50.24-57.32,71.95-22.02,21.67-47.58,40.71-77.04,53.87-14.77,6.45-30.62,11.11-47,13.33l-6.14.84-6.21.35c-4.15.18-8.29.54-12.44.23l-6.23-.26c-2.09-.1-4.01-.11-6.72-.54-5.05-.69-10.1-1.55-15.05-2.56Z"/>
    <path class="uuid-d720a498-0d30-4c95-8aed-0290b82c61b5" d="m1256.99,1881.72c-6.79,0-13.33-3.76-16.56-10.26-4.54-9.14-.82-20.23,8.32-24.78,2.14-1.06,214.7-108.62,287.33-294.54,3.71-9.51,14.43-14.2,23.94-10.49,9.51,3.72,14.2,14.43,10.49,23.94-77.91,199.42-296.07,309.6-305.31,314.19-2.64,1.31-5.44,1.93-8.2,1.93Z"/>
    <g>
      <g>
        <path class="uuid-1c70a986-d3b1-4609-b1e9-242dd0697326" d="m1482.65,1201.65l32.4,12.3c5.82,2.21,12.34-.72,14.55-6.54l148.27-390.57c2.21-5.82-.72-12.34-6.54-14.55l-32.4-12.3c-61.09-23.19-129.42,7.53-152.61,68.62l-72.29,190.42c-23.19,61.09,7.53,129.42,68.62,152.61Z"/>
        <path class="uuid-d720a498-0d30-4c95-8aed-0290b82c61b5" d="m1519.06,1218.1c-1.76,0-3.52-.32-5.22-.96l-32.4-12.3c-62.75-23.82-94.42-94.25-70.6-157l72.29-190.42c11.54-30.4,34.23-54.48,63.88-67.81,29.65-13.34,62.72-14.33,93.12-2.79l32.4,12.3c3.67,1.39,6.57,4.13,8.18,7.71,1.61,3.58,1.73,7.57.33,11.23l-148.27,390.57c-1.39,3.66-4.13,6.57-7.71,8.18-1.92.86-3.97,1.3-6.02,1.3Zm-35.2-19.63l32.4,12.3c4.05,1.55,8.62-.51,10.15-4.57l148.27-390.57c1.54-4.06-.51-8.62-4.57-10.16l-32.4-12.3c-59.25-22.5-125.73,7.41-148.22,66.65l-72.29,190.42c-22.49,59.24,7.41,125.73,66.65,148.22h0Z"/>
      </g>
      <g class="uuid-0a1cea8f-829e-4f4a-ae8b-e56a7803ebc9">
        <path class="uuid-d720a498-0d30-4c95-8aed-0290b82c61b5" d="m1448.63,957.91l-23.38,61.56c-29.37,77.41,9.56,164.01,86.99,193.44,7.38,2.81,15.64-.94,18.45-8.32l38.88-102.32c-3.84,3.88-9.74,5.33-15.17,3.31l-9.12-3.49c-61.19-23.21-98.37-82.2-96.65-144.19Z"/>
      </g>
      <path class="uuid-d720a498-0d30-4c95-8aed-0290b82c61b5" d="m1519.02,1233.63c-3.56,0-7.17-.63-10.69-1.97l-32.4-12.3c-70.76-26.87-106.47-106.29-79.61-177.05l72.29-190.42c26.86-70.76,106.28-106.47,177.05-79.61l32.4,12.3c15.59,5.92,23.45,23.41,17.53,38.99l-148.27,390.56c-4.58,12.06-16.09,19.5-28.29,19.5Zm-29.64-49.7l25.23,9.58,142.82-376.23-25.23-9.58c-24.81-9.42-51.81-8.62-76.02,2.27-24.21,10.89-42.73,30.55-52.15,55.36l-72.29,190.42c-19.45,51.22,6.41,108.72,57.63,128.17h0Z"/>
      <g>
        <path class="uuid-1c70a986-d3b1-4609-b1e9-242dd0697326" d="m2968.64,1294.79l-32.4-12.3c-5.82-2.21-12.34.72-14.55,6.54l-148.27,390.57c-2.21,5.82.72,12.34,6.54,14.55l32.4,12.3c61.09,23.19,129.42-7.53,152.61-68.62l72.29-190.42c23.19-61.09-7.53-129.42-68.62-152.61Z"/>
        <path class="uuid-d720a498-0d30-4c95-8aed-0290b82c61b5" d="m2854.41,1717.61c-14.59,0-29.2-2.66-43.25-7.99l-32.4-12.3c-3.66-1.39-6.57-4.13-8.18-7.71-1.61-3.58-1.73-7.57-.33-11.23l148.27-390.57c1.39-3.66,4.13-6.57,7.71-8.18,3.58-1.61,7.57-1.73,11.23-.33l32.4,12.3c62.75,23.82,94.42,94.25,70.6,157l-72.29,190.42c-11.54,30.4-34.23,54.48-63.88,67.82-15.95,7.17-32.89,10.77-49.87,10.77Zm77.82-432.46c-1.1,0-2.19.23-3.23.7-1.92.86-3.39,2.42-4.13,4.39l-148.27,390.57c-.75,1.97-.68,4.1.18,6.02.86,1.92,2.42,3.39,4.39,4.13l32.4,12.3c28.69,10.9,59.92,9.96,87.91-2.63,27.99-12.59,49.41-35.32,60.3-64.02l72.29-190.42c10.89-28.7,9.96-59.92-2.63-87.91-12.59-27.99-35.32-49.41-64.02-60.3l-32.4-12.3c-.91-.35-1.86-.52-2.8-.52Z"/>
      </g>
      <g class="uuid-0a1cea8f-829e-4f4a-ae8b-e56a7803ebc9">
        <path class="uuid-d720a498-0d30-4c95-8aed-0290b82c61b5" d="m2815.01,1569.98l-40.53,106.79c-2.81,7.37.94,15.64,8.32,18.45,40.65,15.41,83.85,12.03,119.96-5.9,32.61-16.2,59.46-44.3,73.42-81.06l21-55.31c-40.4,40.18-102.2,55.4-158.98,33.86l-14.05-5.34c-5.12-1.96-8.41-6.45-9.15-11.49Z"/>
      </g>
      <path class="uuid-d720a498-0d30-4c95-8aed-0290b82c61b5" d="m2854.42,1733.17c-16.45,0-32.93-3-48.78-9.01l-32.4-12.3c-7.55-2.86-13.53-8.5-16.84-15.86-3.31-7.37-3.56-15.58-.69-23.13l148.27-390.56c2.86-7.55,8.5-13.53,15.86-16.84,7.36-3.32,15.58-3.56,23.13-.69l32.4,12.3c34.28,13.01,61.44,38.59,76.47,72.04,15.04,33.44,16.15,70.73,3.14,105.01l-72.29,190.42c-13.01,34.28-38.59,61.44-72.03,76.47-17.99,8.09-37.09,12.15-56.24,12.15Zm-60.55-54.02l25.23,9.58c24.81,9.42,51.81,8.61,76.02-2.27,24.21-10.89,42.73-30.55,52.15-55.36l72.29-190.42c19.45-51.23-6.41-108.72-57.63-128.17h0l-25.23-9.58-142.82,376.22Z"/>
      <g class="uuid-0a1cea8f-829e-4f4a-ae8b-e56a7803ebc9">
        <path class="uuid-d720a498-0d30-4c95-8aed-0290b82c61b5" d="m2465.1,1996.91c-24.73,12.61-50.35,23.57-76.58,32.88-81.58,28.83-169.53,41.39-258.77,34.99-46.15-3.35-92.65-11.76-138.79-25.63-97.1-29.18-182.14-79.33-251.71-144.05-65.07-60.46-116.57-133.69-151.66-214.37-18.57-42.69-32.53-87.44-41.49-133.54,10.96,11.86,22.37,24.07,34.19,36.59-1.75-14.92-3.8-29.33-6.16-43.19-8.36-49.05,6.61-50,9.81-99.7,3.3-49.05,187.19-51.25,371.43-22.02,135.64,28.68,334.15,54.31,372.89,164.92,2.35,24.38,13.81,55.81,21.97,78.08l19.37,190.9c24.73,36.14,58.81,86.84,95.5,144.15Z"/>
      </g>
      <g>
        <circle class="uuid-1c70a986-d3b1-4609-b1e9-242dd0697326" cx="2225.57" cy="1248.19" r="701.62"/>
        <path class="uuid-d720a498-0d30-4c95-8aed-0290b82c61b5" d="m2225.21,1953.29c-67.01,0-135.09-9.63-202.49-29.88-180.36-54.18-328.82-175.35-418.04-341.2-89.22-165.84-108.52-356.5-54.34-536.86,54.18-180.36,175.35-328.82,341.2-418.04,165.84-89.22,356.51-108.52,536.86-54.34,372.31,111.85,584.22,505.74,472.38,878.06-91.6,304.91-372.4,502.26-675.57,502.26Zm-.56-1403.65c-113.91,0-226.74,28.18-329.88,83.66-164.24,88.36-284.25,235.39-337.9,414-53.66,178.62-34.55,367.44,53.81,531.68,88.36,164.24,235.39,284.25,414,337.9,66.73,20.04,134.19,29.59,200.53,29.59,300.26.01,578.33-195.41,669.05-497.41,110.76-368.72-99.1-758.81-467.81-869.58-66.45-19.96-134.32-29.85-201.8-29.85Z"/>
      </g>
      <g class="uuid-0a1cea8f-829e-4f4a-ae8b-e56a7803ebc9">
        <path class="uuid-d720a498-0d30-4c95-8aed-0290b82c61b5" d="m1587.99,955.25c-13.41,29.1-24.9,59.5-34.4,91.08-111.43,371.12,99.02,762.32,470.11,873.84,371.12,111.43,762.32-99.02,873.84-470.11,3.21-10.67,6.17-21.43,8.82-32.1-143.57,313.49-499.89,481.02-839.44,379.03-360.42-108.3-569.26-480.4-478.93-841.74Z"/>
      </g>
      <path class="uuid-d720a498-0d30-4c95-8aed-0290b82c61b5" d="m2225.21,1968.83c-68.49,0-138.06-9.85-206.95-30.54-184.33-55.37-336.07-179.22-427.26-348.72-91.19-169.5-110.91-364.37-55.53-548.7,114.31-380.52,516.89-597.1,897.42-482.79,380.52,114.31,597.1,516.89,482.79,897.42-93.62,311.64-380.62,513.33-690.47,513.33Zm.71-1403.39c-293.58,0-565.45,191.06-654.15,486.33-52.46,174.64-33.78,359.26,52.61,519.84,86.39,160.58,230.15,277.91,404.79,330.38,65.24,19.6,131.2,28.93,196.07,28.93,293.58.01,565.45-191.06,654.15-486.33,108.3-360.51-96.89-741.92-457.4-850.22-65.24-19.6-131.2-28.93-196.07-28.93Z"/>
      <path class="uuid-d720a498-0d30-4c95-8aed-0290b82c61b5" d="m1550.58,1064.23c-41.48,130.88-37.51,265.86,3.28,389.42,30.58,92.64,212.71,295.52,488.43,385.65,255.66,83.57,532.26,20.81,610.62-37.3,104.53-77.51,185.52-185.55,227.01-316.43,109.78-346.35-142.28-584.24-509.39-700.6-367.1-116.36-710.18-67.09-819.96,279.26Z"/>
      <path class="uuid-d720a498-0d30-4c95-8aed-0290b82c61b5" d="m2308.38,1899.06c-86.59,0-180.17-11.74-271.98-41.75-292.49-95.61-470.33-306.21-500.54-397.72-43.55-131.91-44.71-270.6-3.35-401.08h0c53.93-170.14,163.74-279.71,326.39-325.65,141.8-40.05,320.7-28.27,517.35,34.06,196.66,62.33,349.68,155.76,442.51,270.18,106.49,131.25,133.14,284.07,79.21,454.21-41.35,130.48-122.2,243.18-233.78,325.92-53.87,39.95-192.33,81.84-355.82,81.84Zm-268.59-1151.64c-61.59,0-118.8,7.28-170.59,21.9-149.61,42.26-250.73,143.41-300.57,300.63h0c-38.94,122.83-37.82,253.46,3.21,377.75,27.24,82.5,200.12,283.29,476.33,373.58,249.22,81.46,518.81,20.84,593.45-34.51,105.14-77.96,181.3-184.1,220.23-306.93,134.99-425.89-302.63-615.19-497.05-676.81-116.67-36.98-226.45-55.62-325.01-55.62Zm-489.22,316.81h.05-.05Z"/>
      <g class="uuid-f362896d-2be3-4ff2-a027-13064118013c">
        <ellipse class="uuid-1c70a986-d3b1-4609-b1e9-242dd0697326" cx="1781.51" cy="1085.65" rx="124.17" ry="89.97" transform="translate(477.85 2714.42) rotate(-82.68)"/>
      </g>
      <g class="uuid-f362896d-2be3-4ff2-a027-13064118013c">
        <ellipse class="uuid-1c70a986-d3b1-4609-b1e9-242dd0697326" cx="1812.26" cy="1353.42" rx="48.91" ry="56.99" transform="translate(-14.69 19.89) rotate(-.63)"/>
      </g>
      <g class="uuid-61ef154e-f406-4ada-83c5-4dba2957af33">
        <path class="uuid-d8c6d1f0-aa26-48d1-a854-97db20284fc5" d="m1782.26,782.1c-105.83,51.78-187.56,143.02-231.67,282.12-41.49,130.91-37.49,265.88,3.25,389.43,30.6,92.64,212.75,295.53,488.46,385.68,97.35,31.85,197.71,42.44,289.06,40.12-336.55-118.04-558.02-366.4-595.94-481.29-51.78-156.83-56.81-328.15-4.15-494.22,14.04-44.4,31.2-84.92,50.99-121.84Z"/>
      </g>
      <path class="uuid-d720a498-0d30-4c95-8aed-0290b82c61b5" d="m2923.4,1193.27c-7.4,0-14.41-4.36-17.44-11.62-.05-.13-.15-.37-.2-.5l-.51-1.49c-59.02-197.87-246.6-360.08-514.65-445.05-266.57-84.49-512.64-62.94-675.1,59.11l-2.07,1.56-2.41.94c-9.66,3.78-20.64-.9-24.53-10.53-3.44-8.5-.31-18.03,7.08-22.89,172.38-128.96,430.52-152.4,708.48-64.32,280.14,88.8,476.75,260.16,539.47,470.18,2.89,9.33-1.8,19.49-10.99,23.21-2.34.94-4.75,1.39-7.13,1.39Z"/>
      <g class="uuid-f362896d-2be3-4ff2-a027-13064118013c">
        <path class="uuid-1c70a986-d3b1-4609-b1e9-242dd0697326" d="m2665.34,1644.3s215.56-307.67,74.58-502.19c-140.98-194.52-406.08-277.94-405.27-258.98,0,0,270.78,163.96,312.05,432.2,31.82,206.84,18.64,328.98,18.64,328.98Z"/>
      </g>
    </g>
  </g>
</svg>