<?xml version="1.0" encoding="UTF-8" standalone="no"?>
<svg
   xmlns:dc="http://purl.org/dc/elements/1.1/"
   xmlns:cc="http://creativecommons.org/ns#"
   xmlns:rdf="http://www.w3.org/1999/02/22-rdf-syntax-ns#"
   xmlns:svg="http://www.w3.org/2000/svg"
   xmlns="http://www.w3.org/2000/svg"
   viewBox="0 0 4377.6001 2462.3999"
   height="2462.3999"
   width="4377.6001"
   xml:space="preserve"
   id="svg2"
   version="1.1"><metadata
     id="metadata8"><rdf:RDF><cc:Work
         rdf:about=""><dc:format>image/svg+xml</dc:format><dc:type
           rdf:resource="http://purl.org/dc/dcmitype/StillImage" /></cc:Work></rdf:RDF></metadata><defs
     id="defs6"><linearGradient
       id="linearGradient28"
       spreadMethod="pad"
       gradientTransform="matrix(0,-1807.7291,-1807.7291,0,1641.6,1835.8356)"
       gradientUnits="userSpaceOnUse"
       y2="0"
       x2="1"
       y1="0"
       x1="0"><stop
         id="stop24"
         offset="0"
         style="stop-opacity:1;stop-color:#000000" /><stop
         id="stop26"
         offset="1"
         style="stop-opacity:1;stop-color:#130f40" /></linearGradient><clipPath
       id="clipPath194"
       clipPathUnits="userSpaceOnUse"><path
         id="path192"
         d="M 0,0 H 3283.2 V 1846.8 H 0 Z" /></clipPath><clipPath
       id="clipPath202"
       clipPathUnits="userSpaceOnUse"><path
         id="path200"
         d="M -364.151,2544.1 H 4112.21 V 39.6967 H -364.151 Z" /></clipPath><clipPath
       id="clipPath370"
       clipPathUnits="userSpaceOnUse"><path
         id="path368"
         d="m 2135.71,620.73 h 608.84 V 361.275 h -608.84 z" /></clipPath><clipPath
       id="clipPath386"
       clipPathUnits="userSpaceOnUse"><path
         id="path384"
         d="M 302.228,1198.71 H 902.88 V 947.156 H 302.228 Z" /></clipPath></defs><g
     transform="matrix(1.3333333,0,0,-1.3333333,0,2462.4)"
     id="g10"><g
       id="g12"><g
         id="g14"><g
           id="g20"><g
             id="g22"><path
               id="path30"
               style="fill:url(#linearGradient28);stroke:none"
               d="M 0,0 H 3283.2 V 1846.8 H 0 Z" /></g></g><g
           transform="translate(113.5298,1523.2092)"
           id="g32"><path
             id="path34"
             style="fill:#ffffff;fill-opacity:1;fill-rule:nonzero;stroke:none"
             d="m 0,0 c 0,-3.712 -3.009,-6.721 -6.72,-6.721 -3.712,0 -6.721,3.009 -6.721,6.721 0,3.711 3.009,6.72 6.721,6.72 C -3.009,6.72 0,3.711 0,0" /></g><g
           transform="translate(319.7788,1411.6228)"
           id="g36"><path
             id="path38"
             style="fill:#ffffff;fill-opacity:1;fill-rule:nonzero;stroke:none"
             d="m 0,0 c 0,-2.918 -2.366,-5.284 -5.284,-5.284 -2.919,0 -5.285,2.366 -5.285,5.284 0,2.918 2.366,5.285 5.285,5.285 C -2.366,5.285 0,2.918 0,0" /></g><g
           transform="translate(703.7227,1282.3923)"
           id="g40"><path
             id="path42"
             style="fill:#ffffff;fill-opacity:1;fill-rule:nonzero;stroke:none"
             d="m 0,0 c 0,-4.059 -3.291,-7.35 -7.35,-7.35 -4.06,0 -7.351,3.291 -7.351,7.35 0,4.06 3.291,7.35 7.351,7.35 C -3.291,7.35 0,4.06 0,0" /></g><g
           transform="translate(1291.3838,1588.9788)"
           id="g44"><path
             id="path46"
             style="fill:#ffffff;fill-opacity:1;fill-rule:nonzero;stroke:none"
             d="m 0,0 c 0,-2.706 -2.193,-4.899 -4.899,-4.899 -2.706,0 -4.9,2.193 -4.9,4.899 0,2.706 2.194,4.899 4.9,4.899 C -2.193,4.899 0,2.706 0,0" /></g><g
           transform="translate(1459.0591,1250.3943)"
           id="g48"><path
             id="path50"
             style="fill:#ffffff;fill-opacity:1;fill-rule:nonzero;stroke:none"
             d="m 0,0 c 0,-2.368 -1.92,-4.289 -4.288,-4.289 -2.369,0 -4.289,1.921 -4.289,4.289 0,2.369 1.92,4.289 4.289,4.289 C -1.92,4.289 0,2.369 0,0" /></g><g
           transform="translate(1836.8916,1436.7615)"
           id="g52"><path
             id="path54"
             style="fill:#ffffff;fill-opacity:1;fill-rule:nonzero;stroke:none"
             d="m 0,0 c 0,-3.703 -3.002,-6.704 -6.704,-6.704 -3.702,0 -6.703,3.001 -6.703,6.704 0,3.702 3.001,6.704 6.703,6.704 C -3.002,6.704 0,3.702 0,0" /></g><g
           transform="translate(2322.9551,1348.1755)"
           id="g56"><path
             id="path58"
             style="fill:#ffffff;fill-opacity:1;fill-rule:nonzero;stroke:none"
             d="m 0,0 c 0,-1.418 -1.149,-2.567 -2.567,-2.567 -1.418,0 -2.568,1.149 -2.568,2.567 0,1.418 1.15,2.568 2.568,2.568 C -1.149,2.568 0,1.418 0,0" /></g><g
           transform="translate(2948.1553,1085.8147)"
           id="g60"><path
             id="path62"
             style="fill:#ffffff;fill-opacity:1;fill-rule:nonzero;stroke:none"
             d="m 0,0 c 0,-3.593 -2.913,-6.505 -6.506,-6.505 -3.593,0 -6.505,2.912 -6.505,6.505 0,3.593 2.912,6.505 6.505,6.505 C -2.913,6.505 0,3.593 0,0" /></g><g
           transform="translate(10.979,1820.9861)"
           id="g64"><path
             id="path66"
             style="fill:#ffffff;fill-opacity:1;fill-rule:nonzero;stroke:none"
             d="m 0,0 c 0,-1.612 -1.307,-2.919 -2.92,-2.919 -1.612,0 -2.919,1.307 -2.919,2.919 0,1.613 1.307,2.92 2.919,2.92 C -1.307,2.92 0,1.613 0,0" /></g><g
           transform="translate(385.8178,831.6457)"
           id="g68"><path
             id="path70"
             style="fill:#ffffff;fill-opacity:1;fill-rule:nonzero;stroke:none"
             d="m 0,0 c 0,-4.166 -3.378,-7.544 -7.544,-7.544 -4.167,0 -7.545,3.378 -7.545,7.544 0,4.167 3.378,7.545 7.545,7.545 C -3.378,7.545 0,4.167 0,0" /></g><g
           transform="translate(891.9937,874.9367)"
           id="g72"><path
             id="path74"
             style="fill:#ffffff;fill-opacity:1;fill-rule:nonzero;stroke:none"
             d="m 0,0 c 0,-1.461 -1.184,-2.646 -2.645,-2.646 -1.461,0 -2.645,1.185 -2.645,2.646 0,1.461 1.184,2.645 2.645,2.645 C -1.184,2.645 0,1.461 0,0" /></g><g
           transform="translate(1304.8628,601.009)"
           id="g76"><path
             id="path78"
             style="fill:#ffffff;fill-opacity:1;fill-rule:nonzero;stroke:none"
             d="m 0,0 c 0,-3.645 -2.954,-6.599 -6.599,-6.599 -3.644,0 -6.599,2.954 -6.599,6.599 0,3.645 2.955,6.6 6.599,6.6 C -2.954,6.6 0,3.645 0,0" /></g><g
           transform="translate(1730.2686,637.4543)"
           id="g80"><path
             id="path82"
             style="fill:#ffffff;fill-opacity:1;fill-rule:nonzero;stroke:none"
             d="m 0,0 c 0,-2.54 -2.059,-4.599 -4.599,-4.599 -2.539,0 -4.597,2.059 -4.597,4.599 0,2.539 2.058,4.598 4.597,4.598 C -2.059,4.598 0,2.539 0,0" /></g><g
           transform="translate(1959.3096,838.3713)"
           id="g84"><path
             id="path86"
             style="fill:#ffffff;fill-opacity:1;fill-rule:nonzero;stroke:none"
             d="m 0,0 c 0,-3.987 -3.232,-7.22 -7.22,-7.22 -3.987,0 -7.218,3.233 -7.218,7.22 0,3.987 3.231,7.219 7.218,7.219 C -3.232,7.219 0,3.987 0,0" /></g><g
           transform="translate(2499.3604,861.1848)"
           id="g88"><path
             id="path90"
             style="fill:#ffffff;fill-opacity:1;fill-rule:nonzero;stroke:none"
             d="m 0,0 c 0,-3.546 -2.875,-6.421 -6.421,-6.421 -3.547,0 -6.421,2.875 -6.421,6.421 0,3.547 2.874,6.422 6.421,6.422 C -2.875,6.422 0,3.547 0,0" /></g><g
           transform="translate(3013.0938,566.5773)"
           id="g92"><path
             id="path94"
             style="fill:#ffffff;fill-opacity:1;fill-rule:nonzero;stroke:none"
             d="m 0,0 c 0,-4.032 -3.269,-7.301 -7.3,-7.301 -4.032,0 -7.301,3.269 -7.301,7.301 0,4.032 3.269,7.301 7.301,7.301 C -3.269,7.301 0,4.032 0,0" /></g><g
           transform="translate(3278.585,1003.4362)"
           id="g96"><path
             id="path98"
             style="fill:#ffffff;fill-opacity:1;fill-rule:nonzero;stroke:none"
             d="m 0,0 c 0,-3.174 -2.573,-5.747 -5.747,-5.747 -3.174,0 -5.746,2.573 -5.746,5.747 0,3.174 2.572,5.747 5.746,5.747 C -2.573,5.747 0,3.174 0,0" /></g><g
           transform="translate(3212.0488,1253.512)"
           id="g100"><path
             id="path102"
             style="fill:#ffffff;fill-opacity:1;fill-rule:nonzero;stroke:none"
             d="m 0,0 c 0,-2.094 -1.697,-3.792 -3.792,-3.792 -2.094,0 -3.791,1.698 -3.791,3.792 0,2.094 1.697,3.791 3.791,3.791 C -1.697,3.791 0,2.094 0,0" /></g><g
           transform="translate(2478.2539,1173.4197)"
           id="g104"><path
             id="path106"
             style="fill:#ffffff;fill-opacity:1;fill-rule:nonzero;stroke:none"
             d="m 0,0 c 0,-4.239 -3.437,-7.676 -7.676,-7.676 -4.239,0 -7.676,3.437 -7.676,7.676 0,4.239 3.437,7.676 7.676,7.676 C -3.437,7.676 0,4.239 0,0" /></g><g
           transform="translate(2269.4648,1375.9753)"
           id="g108"><path
             id="path110"
             style="fill:#ffffff;fill-opacity:1;fill-rule:nonzero;stroke:none"
             d="m 0,0 c 0,-1.702 -1.379,-3.082 -3.081,-3.082 -1.702,0 -3.081,1.38 -3.081,3.082 0,1.702 1.379,3.082 3.081,3.082 C -1.379,3.082 0,1.702 0,0" /></g><g
           transform="translate(2164.0566,1123.1946)"
           id="g112"><path
             id="path114"
             style="fill:#ffffff;fill-opacity:1;fill-rule:nonzero;stroke:none"
             d="m 0,0 c 0,-1.741 -1.412,-3.153 -3.153,-3.153 -1.742,0 -3.154,1.412 -3.154,3.153 0,1.742 1.412,3.153 3.154,3.153 C -1.412,3.153 0,1.742 0,0" /></g><g
           transform="translate(1455.4819,1074.3494)"
           id="g116"><path
             id="path118"
             style="fill:#ffffff;fill-opacity:1;fill-rule:nonzero;stroke:none"
             d="m 0,0 c 0,-2.737 -2.219,-4.956 -4.957,-4.956 -2.737,0 -4.956,2.219 -4.956,4.956 0,2.738 2.219,4.957 4.956,4.957 C -2.219,4.957 0,2.738 0,0" /></g><g
           transform="translate(1245.8823,1178.9861)"
           id="g120"><path
             id="path122"
             style="fill:#ffffff;fill-opacity:1;fill-rule:nonzero;stroke:none"
             d="m 0,0 c 0,-2.705 -2.192,-4.897 -4.897,-4.897 -2.705,0 -4.897,2.192 -4.897,4.897 0,2.705 2.192,4.897 4.897,4.897 C -2.192,4.897 0,2.705 0,0" /></g><g
           transform="translate(657.2666,1525.5623)"
           id="g124"><path
             id="path126"
             style="fill:#ffffff;fill-opacity:1;fill-rule:nonzero;stroke:none"
             d="m 0,0 c 0,-3.683 -2.985,-6.669 -6.668,-6.669 -3.684,0 -6.669,2.986 -6.669,6.669 0,3.683 2.985,6.668 6.669,6.668 C -2.985,6.668 0,3.683 0,0" /></g><g
           transform="translate(149.9692,1439.9133)"
           id="g128"><path
             id="path130"
             style="fill:#ffffff;fill-opacity:1;fill-rule:nonzero;stroke:none"
             d="m 0,0 c 0,-2.568 -2.082,-4.65 -4.65,-4.65 -2.569,0 -4.65,2.082 -4.65,4.65 0,2.568 2.081,4.65 4.65,4.65 C -2.082,4.65 0,2.568 0,0" /></g><g
           transform="translate(365.2094,167.8596)"
           id="g132"><path
             id="path134"
             style="fill:#ffffff;fill-opacity:1;fill-rule:nonzero;stroke:none"
             d="m 0,0 c 0,-3.582 -2.904,-6.486 -6.487,-6.486 -3.582,0 -6.487,2.904 -6.487,6.486 0,3.583 2.905,6.487 6.487,6.487 C -2.904,6.487 0,3.583 0,0" /></g><g
           transform="translate(438.2632,261.381)"
           id="g136"><path
             id="path138"
             style="fill:#ffffff;fill-opacity:1;fill-rule:nonzero;stroke:none"
             d="m 0,0 c 0,-3.511 -2.846,-6.356 -6.356,-6.356 -3.51,0 -6.356,2.845 -6.356,6.356 0,3.51 2.846,6.355 6.356,6.355 C -2.846,6.355 0,3.51 0,0" /></g><g
           transform="translate(1543.7441,150.2795)"
           id="g140"><path
             id="path142"
             style="fill:#ffffff;fill-opacity:1;fill-rule:nonzero;stroke:none"
             d="m 0,0 c 0,-3.131 -2.538,-5.668 -5.668,-5.668 -3.131,0 -5.669,2.537 -5.669,5.668 0,3.131 2.538,5.669 5.669,5.669 C -2.538,5.669 0,3.131 0,0" /></g><g
           transform="translate(2555.2422,180.7404)"
           id="g144"><path
             id="path146"
             style="fill:#ffffff;fill-opacity:1;fill-rule:nonzero;stroke:none"
             d="m 0,0 c 0,-2.557 -2.072,-4.629 -4.628,-4.629 -2.557,0 -4.628,2.072 -4.628,4.629 0,2.556 2.071,4.628 4.628,4.628 C -2.072,4.628 0,2.556 0,0" /></g><g
           transform="translate(2949.4316,231.258)"
           id="g148"><path
             id="path150"
             style="fill:#ffffff;fill-opacity:1;fill-rule:nonzero;stroke:none"
             d="m 0,0 c 0,-3.474 -2.815,-6.289 -6.288,-6.289 -3.473,0 -6.288,2.815 -6.288,6.289 0,3.473 2.815,6.288 6.288,6.288 C -2.815,6.288 0,3.473 0,0" /></g><g
           transform="translate(2941.5439,874.8625)"
           id="g152"><path
             id="path154"
             style="fill:#ffffff;fill-opacity:1;fill-rule:nonzero;stroke:none"
             d="m 0,0 c 0,-2.766 -2.241,-5.007 -5.007,-5.007 -2.764,0 -5.007,2.241 -5.007,5.007 0,2.765 2.243,5.007 5.007,5.007 C -2.241,5.007 0,2.765 0,0" /></g><g
           transform="translate(2899.6689,685.1486)"
           id="g156"><path
             id="path158"
             style="fill:#ffffff;fill-opacity:1;fill-rule:nonzero;stroke:none"
             d="m 0,0 c 0,-2.704 -2.192,-4.896 -4.896,-4.896 -2.705,0 -4.897,2.192 -4.897,4.896 0,2.704 2.192,4.896 4.897,4.896 C -2.192,4.896 0,2.704 0,0" /></g><g
           transform="translate(2403.9736,744.8371)"
           id="g160"><path
             id="path162"
             style="fill:#ffffff;fill-opacity:1;fill-rule:nonzero;stroke:none"
             d="m 0,0 c 0,-3.194 -2.59,-5.784 -5.784,-5.784 -3.195,0 -5.784,2.59 -5.784,5.784 0,3.194 2.589,5.784 5.784,5.784 C -2.59,5.784 0,3.194 0,0" /></g><g
           transform="translate(1932.7354,530.3752)"
           id="g164"><path
             id="path166"
             style="fill:#ffffff;fill-opacity:1;fill-rule:nonzero;stroke:none"
             d="m 0,0 c 0,-2.696 -2.186,-4.882 -4.882,-4.882 -2.696,0 -4.882,2.186 -4.882,4.882 0,2.696 2.186,4.882 4.882,4.882 C -2.186,4.882 0,2.696 0,0" /></g><g
           transform="translate(1533.436,440.9221)"
           id="g168"><path
             id="path170"
             style="fill:#ffffff;fill-opacity:1;fill-rule:nonzero;stroke:none"
             d="m 0,0 c 0,-2.939 -2.382,-5.321 -5.321,-5.321 -2.939,0 -5.321,2.382 -5.321,5.321 0,2.938 2.382,5.32 5.321,5.32 C -2.382,5.32 0,2.938 0,0" /></g><g
           transform="translate(1358.7754,397.1408)"
           id="g172"><path
             id="path174"
             style="fill:#ffffff;fill-opacity:1;fill-rule:nonzero;stroke:none"
             d="m 0,0 c 0,-3.799 -3.08,-6.879 -6.879,-6.879 -3.799,0 -6.879,3.08 -6.879,6.879 0,3.799 3.08,6.879 6.879,6.879 C -3.08,6.879 0,3.799 0,0" /></g><g
           transform="translate(897.6626,805.0334)"
           id="g176"><path
             id="path178"
             style="fill:#ffffff;fill-opacity:1;fill-rule:nonzero;stroke:none"
             d="m 0,0 c 0,-2.255 -1.828,-4.082 -4.083,-4.082 -2.254,0 -4.083,1.827 -4.083,4.082 0,2.255 1.829,4.083 4.083,4.083 C -1.828,4.083 0,2.255 0,0" /></g><g
           transform="translate(714.6431,494.6086)"
           id="g180"><path
             id="path182"
             style="fill:#ffffff;fill-opacity:1;fill-rule:nonzero;stroke:none"
             d="m 0,0 c 0,-1.61 -1.306,-2.917 -2.917,-2.917 -1.611,0 -2.916,1.307 -2.916,2.917 0,1.611 1.305,2.917 2.916,2.917 C -1.306,2.917 0,1.611 0,0" /></g><g
           transform="translate(239.1318,555.6808)"
           id="g184"><path
             id="path186"
             style="fill:#ffffff;fill-opacity:1;fill-rule:nonzero;stroke:none"
             d="m 0,0 c 0,-1.442 -1.169,-2.611 -2.61,-2.611 -1.442,0 -2.611,1.169 -2.611,2.611 0,1.441 1.169,2.61 2.611,2.61 C -1.169,2.61 0,1.441 0,0" /></g></g></g><g
       id="g188"><g
         clip-path="url(#clipPath194)"
         id="g190"><g
           id="g196"><g
             id="g198" /><g
             id="g362"><g
               style="opacity:0.55000299"
               id="g360"
               clip-path="url(#clipPath202)"><g
                 id="g206"
                 transform="translate(368.3198,1714.7292)"><path
                   id="path204"
                   style="fill:#ffffff;fill-opacity:1;fill-rule:nonzero;stroke:none"
                   d="m 0,0 c 0,-3.712 -3.009,-6.721 -6.72,-6.721 -3.712,0 -6.721,3.009 -6.721,6.721 0,3.711 3.009,6.72 6.721,6.72 C -3.009,6.72 0,3.711 0,0" /></g><g
                 id="g210"
                 transform="translate(574.5688,1603.1428)"><path
                   id="path208"
                   style="fill:#ffffff;fill-opacity:1;fill-rule:nonzero;stroke:none"
                   d="m 0,0 c 0,-2.918 -2.366,-5.284 -5.285,-5.284 -2.918,0 -5.284,2.366 -5.284,5.284 0,2.918 2.366,5.285 5.284,5.285 C -2.366,5.285 0,2.918 0,0" /></g><g
                 id="g214"
                 transform="translate(958.5127,1473.9124)"><path
                   id="path212"
                   style="fill:#ffffff;fill-opacity:1;fill-rule:nonzero;stroke:none"
                   d="m 0,0 c 0,-4.059 -3.291,-7.35 -7.351,-7.35 -4.059,0 -7.35,3.291 -7.35,7.35 0,4.06 3.291,7.35 7.35,7.35 C -3.291,7.35 0,4.06 0,0" /></g><g
                 id="g218"
                 transform="translate(1546.1738,1780.4988)"><path
                   id="path216"
                   style="fill:#ffffff;fill-opacity:1;fill-rule:nonzero;stroke:none"
                   d="m 0,0 c 0,-2.706 -2.194,-4.899 -4.899,-4.899 -2.706,0 -4.9,2.193 -4.9,4.899 0,2.706 2.194,4.899 4.9,4.899 C -2.194,4.899 0,2.706 0,0" /></g><g
                 id="g222"
                 transform="translate(1713.8496,1441.9143)"><path
                   id="path220"
                   style="fill:#ffffff;fill-opacity:1;fill-rule:nonzero;stroke:none"
                   d="m 0,0 c 0,-2.368 -1.92,-4.289 -4.289,-4.289 -2.368,0 -4.288,1.921 -4.288,4.289 0,2.369 1.92,4.289 4.288,4.289 C -1.92,4.289 0,2.369 0,0" /></g><g
                 id="g226"
                 transform="translate(2091.6816,1628.281)"><path
                   id="path224"
                   style="fill:#ffffff;fill-opacity:1;fill-rule:nonzero;stroke:none"
                   d="m 0,0 c 0,-3.702 -3.002,-6.704 -6.704,-6.704 -3.702,0 -6.703,3.002 -6.703,6.704 0,3.703 3.001,6.704 6.703,6.704 C -3.002,6.704 0,3.703 0,0" /></g><g
                 id="g230"
                 transform="translate(2577.7451,1539.6956)"><path
                   id="path228"
                   style="fill:#ffffff;fill-opacity:1;fill-rule:nonzero;stroke:none"
                   d="m 0,0 c 0,-1.418 -1.149,-2.567 -2.567,-2.567 -1.418,0 -2.568,1.149 -2.568,2.567 0,1.418 1.15,2.568 2.568,2.568 C -1.149,2.568 0,1.418 0,0" /></g><g
                 id="g234"
                 transform="translate(3202.9453,1277.3347)"><path
                   id="path232"
                   style="fill:#ffffff;fill-opacity:1;fill-rule:nonzero;stroke:none"
                   d="m 0,0 c 0,-3.593 -2.913,-6.505 -6.506,-6.505 -3.593,0 -6.505,2.912 -6.505,6.505 0,3.593 2.912,6.505 6.505,6.505 C -2.913,6.505 0,3.593 0,0" /></g><g
                 id="g238"
                 transform="translate(640.6079,1023.1662)"><path
                   id="path236"
                   style="fill:#ffffff;fill-opacity:1;fill-rule:nonzero;stroke:none"
                   d="m 0,0 c 0,-4.167 -3.378,-7.545 -7.544,-7.545 -4.167,0 -7.545,3.378 -7.545,7.545 0,4.167 3.378,7.544 7.545,7.544 C -3.378,7.544 0,4.167 0,0" /></g><g
                 id="g242"
                 transform="translate(1146.7837,1066.4568)"><path
                   id="path240"
                   style="fill:#ffffff;fill-opacity:1;fill-rule:nonzero;stroke:none"
                   d="m 0,0 c 0,-1.461 -1.184,-2.645 -2.645,-2.645 -1.461,0 -2.645,1.184 -2.645,2.645 0,1.46 1.184,2.645 2.645,2.645 C -1.184,2.645 0,1.46 0,0" /></g><g
                 id="g246"
                 transform="translate(1559.6528,792.5295)"><path
                   id="path244"
                   style="fill:#ffffff;fill-opacity:1;fill-rule:nonzero;stroke:none"
                   d="m 0,0 c 0,-3.645 -2.954,-6.6 -6.599,-6.6 -3.645,0 -6.599,2.955 -6.599,6.6 0,3.645 2.954,6.599 6.599,6.599 C -2.954,6.599 0,3.645 0,0" /></g><g
                 id="g250"
                 transform="translate(1985.0586,828.9738)"><path
                   id="path248"
                   style="fill:#ffffff;fill-opacity:1;fill-rule:nonzero;stroke:none"
                   d="m 0,0 c 0,-2.539 -2.059,-4.598 -4.599,-4.598 -2.539,0 -4.597,2.059 -4.597,4.598 0,2.54 2.058,4.599 4.597,4.599 C -2.059,4.599 0,2.54 0,0" /></g><g
                 id="g254"
                 transform="translate(2214.0996,1029.8914)"><path
                   id="path252"
                   style="fill:#ffffff;fill-opacity:1;fill-rule:nonzero;stroke:none"
                   d="m 0,0 c 0,-3.987 -3.232,-7.22 -7.22,-7.22 -3.987,0 -7.219,3.233 -7.219,7.22 0,3.987 3.232,7.219 7.219,7.219 C -3.232,7.219 0,3.987 0,0" /></g><g
                 id="g258"
                 transform="translate(2754.1504,1052.7053)"><path
                   id="path256"
                   style="fill:#ffffff;fill-opacity:1;fill-rule:nonzero;stroke:none"
                   d="m 0,0 c 0,-3.546 -2.875,-6.421 -6.421,-6.421 -3.547,0 -6.421,2.875 -6.421,6.421 0,3.546 2.874,6.421 6.421,6.421 C -2.875,6.421 0,3.546 0,0" /></g><g
                 id="g262"
                 transform="translate(3267.8838,758.0969)"><path
                   id="path260"
                   style="fill:#ffffff;fill-opacity:1;fill-rule:nonzero;stroke:none"
                   d="m 0,0 c 0,-4.031 -3.269,-7.3 -7.3,-7.3 -4.032,0 -7.301,3.269 -7.301,7.3 0,4.032 3.269,7.301 7.301,7.301 C -3.269,7.301 0,4.032 0,0" /></g><g
                 id="g266"
                 transform="translate(2733.0439,1364.9397)"><path
                   id="path264"
                   style="fill:#ffffff;fill-opacity:1;fill-rule:nonzero;stroke:none"
                   d="m 0,0 c 0,-4.239 -3.437,-7.676 -7.676,-7.676 -4.239,0 -7.676,3.437 -7.676,7.676 0,4.239 3.437,7.676 7.676,7.676 C -3.437,7.676 0,4.239 0,0" /></g><g
                 id="g270"
                 transform="translate(2524.2549,1567.4954)"><path
                   id="path268"
                   style="fill:#ffffff;fill-opacity:1;fill-rule:nonzero;stroke:none"
                   d="m 0,0 c 0,-1.702 -1.379,-3.082 -3.081,-3.082 -1.702,0 -3.081,1.38 -3.081,3.082 0,1.702 1.379,3.082 3.081,3.082 C -1.379,3.082 0,1.702 0,0" /></g><g
                 id="g274"
                 transform="translate(2418.8467,1314.7146)"><path
                   id="path272"
                   style="fill:#ffffff;fill-opacity:1;fill-rule:nonzero;stroke:none"
                   d="m 0,0 c 0,-1.741 -1.412,-3.153 -3.153,-3.153 -1.742,0 -3.154,1.412 -3.154,3.153 0,1.741 1.412,3.153 3.154,3.153 C -1.412,3.153 0,1.741 0,0" /></g><g
                 id="g278"
                 transform="translate(1710.2715,1265.8694)"><path
                   id="path276"
                   style="fill:#ffffff;fill-opacity:1;fill-rule:nonzero;stroke:none"
                   d="m 0,0 c 0,-2.737 -2.219,-4.956 -4.956,-4.956 -2.737,0 -4.956,2.219 -4.956,4.956 0,2.738 2.219,4.957 4.956,4.957 C -2.219,4.957 0,2.738 0,0" /></g><g
                 id="g282"
                 transform="translate(1500.6724,1370.5056)"><path
                   id="path280"
                   style="fill:#ffffff;fill-opacity:1;fill-rule:nonzero;stroke:none"
                   d="m 0,0 c 0,-2.705 -2.192,-4.897 -4.897,-4.897 -2.705,0 -4.897,2.192 -4.897,4.897 0,2.705 2.192,4.897 4.897,4.897 C -2.192,4.897 0,2.705 0,0" /></g><g
                 id="g286"
                 transform="translate(912.0566,1717.0823)"><path
                   id="path284"
                   style="fill:#ffffff;fill-opacity:1;fill-rule:nonzero;stroke:none"
                   d="m 0,0 c 0,-3.683 -2.986,-6.669 -6.669,-6.669 -3.683,0 -6.668,2.986 -6.668,6.669 0,3.683 2.985,6.668 6.668,6.668 C -2.986,6.668 0,3.683 0,0" /></g><g
                 id="g290"
                 transform="translate(404.7588,1631.4333)"><path
                   id="path288"
                   style="fill:#ffffff;fill-opacity:1;fill-rule:nonzero;stroke:none"
                   d="m 0,0 c 0,-2.568 -2.082,-4.65 -4.65,-4.65 -2.568,0 -4.65,2.082 -4.65,4.65 0,2.568 2.082,4.65 4.65,4.65 C -2.082,4.65 0,2.568 0,0" /></g><g
                 id="g294"
                 transform="translate(143.0796,1641.3708)"><path
                   id="path292"
                   style="fill:#ffffff;fill-opacity:1;fill-rule:nonzero;stroke:none"
                   d="m 0,0 c 0,-1.993 -1.615,-3.608 -3.608,-3.608 -1.993,0 -3.608,1.615 -3.608,3.608 0,1.993 1.615,3.608 3.608,3.608 C -1.615,3.608 0,1.993 0,0" /></g><g
                 id="g298"
                 transform="translate(619.9995,359.3801)"><path
                   id="path296"
                   style="fill:#ffffff;fill-opacity:1;fill-rule:nonzero;stroke:none"
                   d="m 0,0 c 0,-3.583 -2.904,-6.487 -6.487,-6.487 -3.582,0 -6.487,2.904 -6.487,6.487 0,3.582 2.905,6.486 6.487,6.486 C -2.904,6.486 0,3.582 0,0" /></g><g
                 id="g302"
                 transform="translate(693.0532,452.9006)"><path
                   id="path300"
                   style="fill:#ffffff;fill-opacity:1;fill-rule:nonzero;stroke:none"
                   d="m 0,0 c 0,-3.51 -2.846,-6.355 -6.356,-6.355 -3.51,0 -6.356,2.845 -6.356,6.355 0,3.511 2.846,6.356 6.356,6.356 C -2.846,6.356 0,3.511 0,0" /></g><g
                 id="g306"
                 transform="translate(1063.0137,44.9494)"><path
                   id="path304"
                   style="fill:#ffffff;fill-opacity:1;fill-rule:nonzero;stroke:none"
                   d="m 0,0 c 0,-2.9 -2.352,-5.253 -5.253,-5.253 -2.901,0 -5.253,2.353 -5.253,5.253 0,2.901 2.352,5.254 5.253,5.254 C -2.352,5.254 0,2.901 0,0" /></g><g
                 id="g310"
                 transform="translate(1798.5342,341.8)"><path
                   id="path308"
                   style="fill:#ffffff;fill-opacity:1;fill-rule:nonzero;stroke:none"
                   d="m 0,0 c 0,-3.131 -2.538,-5.669 -5.669,-5.669 -3.13,0 -5.668,2.538 -5.668,5.669 0,3.13 2.538,5.668 5.668,5.668 C -2.538,5.668 0,3.13 0,0" /></g><g
                 id="g314"
                 transform="translate(2046.8018,89.3654)"><path
                   id="path312"
                   style="fill:#ffffff;fill-opacity:1;fill-rule:nonzero;stroke:none"
                   d="m 0,0 c 0,-2.888 -2.341,-5.229 -5.229,-5.229 -2.887,0 -5.228,2.341 -5.228,5.229 0,2.888 2.341,5.229 5.228,5.229 C -2.341,5.229 0,2.888 0,0" /></g><g
                 id="g318"
                 transform="translate(2810.0322,372.2599)"><path
                   id="path316"
                   style="fill:#ffffff;fill-opacity:1;fill-rule:nonzero;stroke:none"
                   d="m 0,0 c 0,-2.556 -2.072,-4.628 -4.628,-4.628 -2.557,0 -4.628,2.072 -4.628,4.628 0,2.556 2.071,4.628 4.628,4.628 C -2.072,4.628 0,2.556 0,0" /></g><g
                 id="g322"
                 transform="translate(3204.2217,422.7775)"><path
                   id="path320"
                   style="fill:#ffffff;fill-opacity:1;fill-rule:nonzero;stroke:none"
                   d="m 0,0 c 0,-3.473 -2.815,-6.288 -6.288,-6.288 -3.474,0 -6.288,2.815 -6.288,6.288 0,3.473 2.814,6.288 6.288,6.288 C -2.815,6.288 0,3.473 0,0" /></g><g
                 id="g326"
                 transform="translate(3196.334,1066.3826)"><path
                   id="path324"
                   style="fill:#ffffff;fill-opacity:1;fill-rule:nonzero;stroke:none"
                   d="m 0,0 c 0,-2.766 -2.241,-5.007 -5.007,-5.007 -2.764,0 -5.007,2.241 -5.007,5.007 0,2.765 2.243,5.006 5.007,5.006 C -2.241,5.006 0,2.765 0,0" /></g><g
                 id="g330"
                 transform="translate(3154.459,876.6691)"><path
                   id="path328"
                   style="fill:#ffffff;fill-opacity:1;fill-rule:nonzero;stroke:none"
                   d="m 0,0 c 0,-2.705 -2.192,-4.896 -4.896,-4.896 -2.705,0 -4.897,2.191 -4.897,4.896 0,2.704 2.192,4.896 4.897,4.896 C -2.192,4.896 0,2.704 0,0" /></g><g
                 id="g334"
                 transform="translate(2658.7637,936.3571)"><path
                   id="path332"
                   style="fill:#ffffff;fill-opacity:1;fill-rule:nonzero;stroke:none"
                   d="m 0,0 c 0,-3.194 -2.59,-5.784 -5.784,-5.784 -3.195,0 -5.784,2.59 -5.784,5.784 0,3.195 2.589,5.785 5.784,5.785 C -2.59,5.785 0,3.195 0,0" /></g><g
                 id="g338"
                 transform="translate(2187.5254,721.8947)"><path
                   id="path336"
                   style="fill:#ffffff;fill-opacity:1;fill-rule:nonzero;stroke:none"
                   d="m 0,0 c 0,-2.696 -2.186,-4.882 -4.882,-4.882 -2.696,0 -4.882,2.186 -4.882,4.882 0,2.696 2.186,4.882 4.882,4.882 C -2.186,4.882 0,2.696 0,0" /></g><g
                 id="g342"
                 transform="translate(1788.2256,632.4416)"><path
                   id="path340"
                   style="fill:#ffffff;fill-opacity:1;fill-rule:nonzero;stroke:none"
                   d="m 0,0 c 0,-2.938 -2.382,-5.32 -5.32,-5.32 -2.939,0 -5.322,2.382 -5.322,5.32 0,2.938 2.383,5.321 5.322,5.321 C -2.382,5.321 0,2.938 0,0" /></g><g
                 id="g346"
                 transform="translate(1613.5654,588.6613)"><path
                   id="path344"
                   style="fill:#ffffff;fill-opacity:1;fill-rule:nonzero;stroke:none"
                   d="m 0,0 c 0,-3.8 -3.08,-6.879 -6.879,-6.879 -3.799,0 -6.879,3.079 -6.879,6.879 0,3.799 3.08,6.878 6.879,6.878 C -3.08,6.878 0,3.799 0,0" /></g><g
                 id="g350"
                 transform="translate(1152.4526,996.5539)"><path
                   id="path348"
                   style="fill:#ffffff;fill-opacity:1;fill-rule:nonzero;stroke:none"
                   d="m 0,0 c 0,-2.255 -1.828,-4.083 -4.083,-4.083 -2.254,0 -4.083,1.828 -4.083,4.083 0,2.255 1.829,4.083 4.083,4.083 C -1.828,4.083 0,2.255 0,0" /></g><g
                 id="g354"
                 transform="translate(969.4331,686.1291)"><path
                   id="path352"
                   style="fill:#ffffff;fill-opacity:1;fill-rule:nonzero;stroke:none"
                   d="m 0,0 c 0,-1.611 -1.306,-2.917 -2.917,-2.917 -1.611,0 -2.916,1.306 -2.916,2.917 0,1.61 1.305,2.916 2.916,2.916 C -1.306,2.916 0,1.61 0,0" /></g><g
                 id="g358"
                 transform="translate(493.9218,747.2004)"><path
                   id="path356"
                   style="fill:#ffffff;fill-opacity:1;fill-rule:nonzero;stroke:none"
                   d="m 0,0 c 0,-1.441 -1.169,-2.61 -2.61,-2.61 -1.442,0 -2.611,1.169 -2.611,2.61 0,1.441 1.169,2.61 2.611,2.61 C -1.169,2.61 0,1.441 0,0" /></g></g></g></g><g
           id="g364"><g
             id="g366" /><g
             id="g378"><g
               id="g376"
               clip-path="url(#clipPath370)"><g
                 id="g374"
                 transform="translate(2152.1963,409.468)"><path
                   id="path372"
                   style="fill:#ffffff;fill-opacity:1;fill-rule:nonzero;stroke:none"
                   d="M 0,0 592.354,211.262 18.487,-46.016 C 5.982,-51.622 -8.7,-46.029 -14.307,-33.524 -19.913,-21.019 -14.32,-6.336 -1.815,-0.729 -1.232,-0.469 -0.592,-0.214 0,0" /></g></g></g></g><g
           id="g380"><g
             id="g382" /><g
             id="g394"><g
               id="g392"
               clip-path="url(#clipPath386)"><g
                 id="g390"
                 transform="translate(313.395,980.3073)"><path
                   id="path388"
                   style="fill:#ffffff;fill-opacity:1;fill-rule:nonzero;stroke:none"
                   d="M 0,0 589.485,218.403 12.75,-31.735 c -8.667,-3.759 -18.741,0.22 -22.5,8.887 -3.76,8.668 0.219,18.742 8.887,22.501 C -0.595,-0.23 -0.271,-0.102 0,0" /></g></g></g></g></g></g></g></svg>