<?xml version="1.0" encoding="UTF-8"?>
<svg id="uuid-eb9afe52-aad7-4a49-be89-a3f5509c0c24" data-name="‘ëîé_1" xmlns="http://www.w3.org/2000/svg" viewBox="0 0 1338.72 1004.53">
  <defs>
    <style>
      .uuid-5ca183c7-0ad3-4443-9865-5fa2cdf067f2 {
        fill: #dcf09c;
      }

      .uuid-5ca183c7-0ad3-4443-9865-5fa2cdf067f2, .uuid-0442d179-0187-4c99-89d0-404c18108748 {
        stroke-width: 0px;
      }

      .uuid-0442d179-0187-4c99-89d0-404c18108748 {
        fill: #435900;
      }
    </style>
  </defs>
  <g>
    <path class="uuid-0442d179-0187-4c99-89d0-404c18108748" d="m136.19,915.61c-9.56,0-14.99,5.28-14.99,16.41v39.82c0,11.13,5.42,16.41,15.27,16.41,12.99,0,14.13-9.28,14.56-15.27.29-4.42,4.28-5.85,9.13-5.85,6.42,0,9.42,1.86,9.42,9.13,0,17.27-14.13,28.26-34.11,28.26-17.98,0-32.83-8.85-32.83-32.68v-39.82c0-23.83,14.99-32.68,32.97-32.68,19.84,0,33.97,10.56,33.97,27.12,0,7.42-3,9.13-9.28,9.13-5.28,0-9.13-1.57-9.28-5.85-.28-4.42-1.28-14.13-14.84-14.13Z"/>
    <path class="uuid-0442d179-0187-4c99-89d0-404c18108748" d="m189.03,905.05c0-3,2.43-5.71,5.99-5.71h28.26c18.7,0,33.83,7.14,33.83,29.83,0,16.41-7.99,25.26-18.7,28.55l18.7,34.68c.57.71.71,1.71.71,2.28,0,4.71-6.14,9.7-11.56,9.7-2.57,0-5-1.57-6.42-4.42l-20.27-39.39h-11.99v37.25c0,3.85-4.57,5.85-9.28,5.85s-9.28-2-9.28-5.85v-92.77Zm18.55,10.56v30.4h15.7c9.28,0,15.27-3.85,15.27-15.13s-5.99-15.27-15.27-15.27h-15.7Z"/>
    <path class="uuid-0442d179-0187-4c99-89d0-404c18108748" d="m295.82,944.16h21.69c3.71,0,5.85,3.57,5.85,7.42,0,3.28-1.86,7.14-5.85,7.14h-21.69v28.69h40.39c3.71,0,5.85,3.85,5.85,8.28,0,3.85-1.86,7.99-5.85,7.99h-50.81c-4.14,0-8.13-2-8.13-5.85v-92.63c0-3.85,4-5.85,8.13-5.85h50.81c4,0,5.85,4.14,5.85,7.99,0,4.42-2.14,8.28-5.85,8.28h-40.39v28.54Z"/>
    <path class="uuid-0442d179-0187-4c99-89d0-404c18108748" d="m357.46,995.97c0-.28.14-.86.28-1.43l27.55-89.77c1.28-4.28,6.57-6.28,11.85-6.28s10.7,2,11.99,6.28l27.55,89.77c.14.57.28,1,.28,1.43,0,4.42-6.71,7.71-11.7,7.71-3.14,0-5.57-1-6.28-3.71l-5.42-18.98h-32.68l-5.42,18.98c-.71,2.71-3.14,3.71-6.28,3.71-5,0-11.7-3.14-11.7-7.71Zm52.09-29.54l-12.42-43.82-12.42,43.82h24.83Z"/>
    <path class="uuid-0442d179-0187-4c99-89d0-404c18108748" d="m504.27,899.34c4,0,5.85,4.28,5.85,8.28,0,4.43-2.14,8.42-5.85,8.42h-20.84v81.78c0,3.85-4.71,5.85-9.28,5.85s-9.28-2-9.28-5.85v-81.78h-20.98c-3.71,0-5.85-3.85-5.85-8.42,0-4,1.86-8.28,5.85-8.28h60.37Z"/>
    <path class="uuid-0442d179-0187-4c99-89d0-404c18108748" d="m528.48,905.05c0-4,4.57-5.71,9.28-5.71s9.28,1.71,9.28,5.71v92.77c0,3.85-4.71,5.85-9.28,5.85s-9.28-2-9.28-5.85v-92.77Z"/>
    <path class="uuid-0442d179-0187-4c99-89d0-404c18108748" d="m565.38,908.48c-.14-.57-.28-1.14-.28-1.43,0-4.57,6.71-7.71,11.7-7.71,3.14,0,5.57,1,6.28,3.71l21.84,77.36,21.69-77.36c.71-2.71,3.14-3.71,6.28-3.71,5,0,11.7,3.28,11.7,7.71,0,.43-.14.86-.28,1.43l-27.4,89.77c-1.29,4.28-6.57,6.28-11.99,6.28s-10.56-2-11.99-6.28l-27.55-89.77Z"/>
    <path class="uuid-0442d179-0187-4c99-89d0-404c18108748" d="m681.44,944.16h21.69c3.71,0,5.85,3.57,5.85,7.42,0,3.28-1.86,7.14-5.85,7.14h-21.69v28.69h40.39c3.71,0,5.85,3.85,5.85,8.28,0,3.85-1.86,7.99-5.85,7.99h-50.81c-4.14,0-8.13-2-8.13-5.85v-92.63c0-3.85,4-5.85,8.13-5.85h50.81c4,0,5.85,4.14,5.85,7.99,0,4.42-2.14,8.28-5.85,8.28h-40.39v28.54Z"/>
    <path class="uuid-0442d179-0187-4c99-89d0-404c18108748" d="m817.6,899.34c18.84,0,33.54,8.85,33.54,32.68v38.96c0,23.83-14.7,32.68-33.54,32.68h-25.26c-4.85,0-8.13-2.71-8.13-5.71v-92.91c0-3,3.28-5.71,8.13-5.71h25.26Zm-14.84,16.27v71.79h14.84c9.42,0,14.99-5.28,14.99-16.41v-38.96c0-11.13-5.57-16.41-14.99-16.41h-14.84Z"/>
    <path class="uuid-0442d179-0187-4c99-89d0-404c18108748" d="m872.7,905.05c0-4,4.57-5.71,9.28-5.71s9.28,1.71,9.28,5.71v92.77c0,3.85-4.71,5.85-9.28,5.85s-9.28-2-9.28-5.85v-92.77Z"/>
    <path class="uuid-0442d179-0187-4c99-89d0-404c18108748" d="m909.31,995.97c0-.28.14-.86.29-1.43l27.55-89.77c1.28-4.28,6.56-6.28,11.85-6.28s10.7,2,11.99,6.28l27.55,89.77c.14.57.28,1,.28,1.43,0,4.42-6.71,7.71-11.7,7.71-3.14,0-5.57-1-6.28-3.71l-5.42-18.98h-32.68l-5.42,18.98c-.71,2.71-3.14,3.71-6.28,3.71-5,0-11.7-3.14-11.7-7.71Zm52.09-29.54l-12.42-43.82-12.42,43.82h24.83Z"/>
    <path class="uuid-0442d179-0187-4c99-89d0-404c18108748" d="m1015.24,1003.67c-4.14,0-8.13-2-8.13-5.85v-92.77c0-4,4.57-5.71,9.28-5.71s9.28,1.71,9.28,5.71v82.35h34.82c3.71,0,5.56,4,5.56,8.13s-1.85,8.13-5.56,8.13h-45.24Z"/>
    <path class="uuid-0442d179-0187-4c99-89d0-404c18108748" d="m1081.78,971.85v-39.82c0-23.83,14.56-32.68,33.4-32.68s33.54,8.85,33.54,32.68v39.82c0,23.83-14.7,32.68-33.54,32.68s-33.4-8.85-33.4-32.68Zm48.38-39.82c0-11.27-5.71-16.41-14.99-16.41s-14.84,5.14-14.84,16.41v39.82c0,11.27,5.42,16.41,14.84,16.41s14.99-5.14,14.99-16.41v-39.82Z"/>
    <path class="uuid-0442d179-0187-4c99-89d0-404c18108748" d="m1202.67,915.61c-9.56,0-14.99,5.28-14.99,16.41v39.82c0,11.13,5.42,16.41,14.84,16.41s14.99-5.28,14.99-16.41v-8.42h-11.56c-3.71,0-5.71-3.57-5.71-7.28s2-7.28,5.71-7.28h24.26c3.71,0,5.85,2.85,5.85,5.99v16.98c0,23.83-14.7,32.68-33.54,32.68s-33.4-8.85-33.4-32.68v-39.82c0-23.83,14.7-32.68,32.83-32.68,19.7,0,34.11,10.28,34.11,27.4,0,7.14-3.14,8.85-9.28,8.85-5,0-9.13-1.43-9.28-5.85-.43-6.71-2.71-14.13-14.84-14.13Z"/>
  </g>
  <g>
    <path class="uuid-5ca183c7-0ad3-4443-9865-5fa2cdf067f2" d="m255.75,547.96c0-15.51,4.46-30.14,12.35-43.08v-7.72c0-22.12-17.93-40.04-40.04-40.04h-26.04c-22.12,0-40.04,17.93-40.04,40.04v34.79c0,22.12,17.93,40.04,40.04,40.04h26.04c11.21,0,21.33-4.61,28.6-12.03-.6-3.93-.91-7.93-.91-12Z"/>
    <ellipse class="uuid-5ca183c7-0ad3-4443-9865-5fa2cdf067f2" cx="1021.7" cy="523.11" rx="72.66" ry="64.41"/>
    <ellipse class="uuid-5ca183c7-0ad3-4443-9865-5fa2cdf067f2" cx="791.9" cy="275.69" rx="84.28" ry="82.88"/>
    <path class="uuid-5ca183c7-0ad3-4443-9865-5fa2cdf067f2" d="m611.96,405.37v78.43c0,1.21-.04,2.38-.09,3.57-1.52,32.78-23.81,60.62-55.45,69.25-3.78,1.03-7.73,1.79-11.76,2.21-6.67.72-24.33.46-58.73.46.54-3.71.81-7.5.81-11.34,0-10.69-2.12-20.97-6.01-30.55-15.4-37.88-58.6-65.14-109.48-65.14-8.01,0-15.82.67-23.35,1.96v-48.86c0-41.63,33.87-75.49,75.51-75.49h113.05c41.63,0,75.49,33.87,75.49,75.49Z"/>
    <path class="uuid-0442d179-0187-4c99-89d0-404c18108748" d="m118.89,538.62c-.14,0-.28-.01-.41-.03-59.76-8.59-98.29-23.95-117.79-46.96-1.03-1.22-.88-3.04.34-4.08,1.22-1.03,3.04-.88,4.08.34,18.29,21.58,56.72,36.71,114.2,44.97,1.58.23,2.68,1.69,2.45,3.27-.21,1.44-1.44,2.48-2.86,2.48Z"/>
    <path class="uuid-0442d179-0187-4c99-89d0-404c18108748" d="m1154.98,398.52c-1.2,0-2.31-.75-2.73-1.94-.52-1.51.27-3.15,1.78-3.68,44.9-15.61,81.9-31.36,109.95-46.82,1.4-.77,3.16-.26,3.93,1.14.77,1.4.26,3.16-1.14,3.93-28.34,15.62-65.63,31.51-110.84,47.22-.31.11-.63.16-.95.16Z"/>
    <path class="uuid-0442d179-0187-4c99-89d0-404c18108748" d="m1318.44,312.32c-.68,0-1.36-.24-1.91-.73-1.2-1.06-1.31-2.88-.25-4.08,12.64-14.29,18.13-28.97,16.32-43.63-.19-1.59.93-3.03,2.52-3.22,1.57-.19,3.03.93,3.22,2.52,2.02,16.38-3.94,32.59-17.72,48.17-.57.65-1.37.98-2.17.98Z"/>
    <path class="uuid-0442d179-0187-4c99-89d0-404c18108748" d="m1298.71,215.75c-.53,0-1.06-.14-1.53-.44-17.52-11-42.08-20.23-72.99-27.42-1.56-.36-2.52-1.92-2.16-3.47.36-1.55,1.91-2.52,3.47-2.16,31.54,7.34,56.69,16.81,74.76,28.16,1.35.85,1.76,2.63.91,3.99-.55.87-1.49,1.35-2.45,1.35Z"/>
    <path class="uuid-0442d179-0187-4c99-89d0-404c18108748" d="m112.91,345.13c-1.06,0-2.08-.58-2.59-1.59-.72-1.43-.14-3.16,1.29-3.88,25.89-13,56.63-25.78,91.35-38,1.51-.53,3.15.26,3.69,1.77.53,1.51-.26,3.16-1.77,3.69-34.5,12.14-65,24.83-90.68,37.72-.42.21-.86.31-1.3.31Z"/>
    <path class="uuid-0442d179-0187-4c99-89d0-404c18108748" d="m251.79,527.2c-40.53,0-76.75-1.65-107.75-4.91-87.98-9.19-134.48-31.03-138.23-64.91-3.82-34.61,21.7-68.69,75.84-101.29,1.37-.82,3.14-.38,3.97.99.82,1.37.38,3.14-.99,3.97-52.04,31.33-76.63,63.53-73.08,95.7,4.24,38.37,74.71,53.69,133.08,59.8,32.71,3.43,71.3,5.08,114.67,4.85,54.45-.25,116.3-3.39,183.86-9.31,3.81-.34,7.63-.68,11.47-1.03l2.35-.21s.06,0,.09,0c6.92-.65,13.85-1.31,20.82-2.01,41.69-4.14,84.94-9.25,128.54-15.21,7.97-1.07,15.93-2.19,23.91-3.33,12.22-1.75,24.46-3.55,36.38-5.36,29.89-4.57,59.48-9.43,87.93-14.44,24.15-4.25,47.72-8.62,70.06-12.99,27.71-5.42,54.98-11.08,81.03-16.84,1.56-.34,3.1.64,3.45,2.2.34,1.56-.64,3.1-2.2,3.45-26.1,5.77-53.41,11.44-81.17,16.87-22.38,4.37-45.99,8.75-70.17,13.01-28.49,5.02-58.12,9.88-88.06,14.46-11.94,1.81-24.2,3.61-36.44,5.37-8,1.14-15.98,2.26-23.96,3.33-43.67,5.97-86.99,11.09-128.74,15.23-7.01.7-13.97,1.37-20.94,2.02-.03,0-.07,0-.1,0l-2.27.21c-3.84.35-7.67.7-11.48,1.03-67.71,5.94-129.73,9.07-184.33,9.33-2.53.01-5.05.02-7.54.02Z"/>
    <path class="uuid-0442d179-0187-4c99-89d0-404c18108748" d="m939.57,438.9c-1.31,0-2.5-.9-2.81-2.24-.36-1.56.61-3.11,2.16-3.47,13.23-3.07,26.66-6.28,39.93-9.54,28.53-7.04,55.93-14.3,81.45-21.58,80.53-22.94,143.46-46.11,187.03-68.88,45.72-23.89,68.59-47.04,66.13-66.95-3.85-31.22-50.6-54.54-135.22-67.45-1.58-.24-2.66-1.72-2.42-3.29.24-1.58,1.71-2.66,3.29-2.42,88.69,13.53,135.83,37.91,140.08,72.46,3.74,30.32-37.86,79.59-257.32,142.1-25.59,7.3-53.06,14.57-81.65,21.63-13.29,3.27-26.75,6.48-40,9.56-.22.05-.44.08-.66.08Z"/>
    <path class="uuid-0442d179-0187-4c99-89d0-404c18108748" d="m1144.92,195.71c-1.09,0-2.05-.61-2.54-1.51-58.43-6.28-112.58-8.09-186.2-6.24-1.54.02-2.92-1.22-2.96-2.82-.04-1.6,1.22-2.92,2.82-2.96,74.84-1.88,129.67,0,189.25,6.52,1.56.17,2.7,1.55,2.57,3.12-.03.32-.04.66-.04,1,0,1.6-1.3,2.89-2.89,2.89Z"/>
    <path class="uuid-0442d179-0187-4c99-89d0-404c18108748" d="m290.63,140.18c-1.05,0-2.05-.57-2.57-1.56-17.04-32.93-25.38-59.21-25.51-80.33,0-1.6,1.28-2.9,2.87-2.91h.02c1.59,0,2.88,1.28,2.89,2.87.12,20.19,8.25,45.6,24.86,77.71.73,1.42.18,3.16-1.24,3.9-.42.22-.88.32-1.33.32Z"/>
    <path class="uuid-0442d179-0187-4c99-89d0-404c18108748" d="m949.44,739.1c-.8,0-1.59-.33-2.16-.97-1.06-1.19-.96-3.02.23-4.08,19.71-17.57,20.81-49.82,3.27-95.85-.57-1.49.18-3.16,1.67-3.73,1.49-.56,3.16.18,3.73,1.67,18.48,48.5,16.86,82.9-4.82,102.22-.55.49-1.24.73-1.92.73Z"/>
    <path class="uuid-0442d179-0187-4c99-89d0-404c18108748" d="m281.66,21.42c-.81,0-1.61-.34-2.18-.99-1.05-1.21-.92-3.03.29-4.08C292.25,5.5,308.06,0,326.77,0,328.36,0,329.66,1.29,329.66,2.89s-1.3,2.89-2.89,2.89c-17.27,0-31.81,5.02-43.21,14.93-.55.48-1.22.71-1.89.71Z"/>
    <path class="uuid-0442d179-0187-4c99-89d0-404c18108748" d="m513.95,128.31c-.65,0-1.31-.22-1.85-.67-18.02-15.02-35.62-28.74-52.31-40.79-1.3-.93-1.59-2.74-.65-4.04.93-1.3,2.74-1.59,4.04-.65,16.8,12.12,34.5,25.93,52.63,41.03,1.22,1.02,1.39,2.84.37,4.07-.57.69-1.39,1.04-2.22,1.04Z"/>
    <path class="uuid-0442d179-0187-4c99-89d0-404c18108748" d="m379.72,242.14c-.88,0-1.75-.4-2.32-1.16-6.89-9.23-13.36-18.13-19.23-26.42-48.16-68-98.66-155.06-65.76-183.65,26.36-22.9,74.32-12.15,142.53,31.94,1.34.87,1.73,2.66.86,4-.86,1.34-2.66,1.73-4,.86-45.23-29.24-105.47-58.6-135.61-32.43-23.12,20.09.56,82.58,66.69,175.95,5.84,8.26,12.28,17.11,19.14,26.31.95,1.28.69,3.09-.59,4.05-.52.39-1.12.57-1.73.57Z"/>
    <path class="uuid-0442d179-0187-4c99-89d0-404c18108748" d="m791.48,662.94c-.61,0-1.22-.19-1.74-.59-22.4-16.91-46.7-36.7-72.23-58.81-4.88-4.23-9.79-8.53-14.74-12.9-8.09-7.16-16.65-14.86-25.44-22.9-17.49-16.01-35.48-32.99-53.46-50.46-6.05-5.88-12.29-12.02-19.08-18.75-30.19-29.93-60.31-61.23-89.51-93.02-28.9-31.47-56.28-62.79-81.4-93.07-12.42-14.97-24.45-29.89-35.74-44.36-.98-1.26-.76-3.08.5-4.06,1.26-.98,3.07-.76,4.06.5,11.26,14.42,23.24,29.3,35.63,44.22,25.06,30.21,52.38,61.45,81.21,92.85,29.14,31.72,59.19,62.96,89.33,92.83,6.78,6.72,13,12.84,19.04,18.71,17.94,17.43,35.89,34.37,53.34,50.34,8.76,8.01,17.3,15.69,25.37,22.83,4.93,4.35,9.83,8.64,14.69,12.86,25.43,22.03,49.63,41.73,71.92,58.57,1.27.96,1.53,2.77.56,4.05-.57.75-1.43,1.15-2.31,1.15Z"/>
    <path class="uuid-0442d179-0187-4c99-89d0-404c18108748" d="m919.45,730.31c-21.97,0-56.13-16.02-102.05-47.9-1.31-.91-1.64-2.71-.73-4.02.91-1.31,2.72-1.63,4.02-.73,58.4,40.55,98.88,55.47,113.98,42,21.92-19.55,4.96-77.66-47.76-163.62-.83-1.36-.41-3.14.95-3.97,1.36-.84,3.14-.41,3.97.95,38.45,62.7,77.75,143.25,46.67,170.96-4.74,4.23-11.11,6.34-19.08,6.34Z"/>
    <path class="uuid-0442d179-0187-4c99-89d0-404c18108748" d="m361.02,754.49c-1.1,0-2.15-.63-2.63-1.69-8.92-19.59-11.17-44.3-6.71-73.46.24-1.58,1.71-2.65,3.3-2.42,1.58.24,2.66,1.72,2.42,3.3-4.29,28.03-2.18,51.65,6.26,70.19.66,1.45.02,3.17-1.43,3.83-.39.18-.8.26-1.2.26Z"/>
    <path class="uuid-0442d179-0187-4c99-89d0-404c18108748" d="m973.95,159.24c-.35,0-.7-.06-1.04-.19-1.49-.58-2.23-2.25-1.65-3.74,4.12-10.67,7.58-20.82,10.26-30.16.44-1.53,2.06-2.42,3.58-1.98,1.53.44,2.42,2.04,1.98,3.58-2.73,9.51-6.24,19.82-10.42,30.65-.44,1.15-1.54,1.85-2.7,1.85Z"/>
    <path class="uuid-0442d179-0187-4c99-89d0-404c18108748" d="m989.36,107.77c-.18,0-.36-.02-.54-.05-1.57-.3-2.6-1.81-2.3-3.38,6.1-32.4,1.62-54.9-13.69-68.81-1.18-1.07-1.27-2.9-.2-4.08,1.07-1.18,2.9-1.27,4.08-.2,16.92,15.37,21.99,39.62,15.49,74.16-.26,1.39-1.47,2.36-2.84,2.36Z"/>
    <path class="uuid-0442d179-0187-4c99-89d0-404c18108748" d="m417.24,775.13s-.05,0-.07,0c-10.74-.27-19.76-3.72-26.81-10.27-25.01-23.2-28.38-64.45-10.02-122.59.48-1.52,2.1-2.37,3.63-1.89,1.52.48,2.37,2.1,1.89,3.63-17.63,55.82-14.79,95.06,8.44,116.61,5.32,4.95,12.04,7.82,20,8.55.34-1.22,1.46-2.12,2.79-2.12,1.6,0,2.89,1.3,2.89,2.89,0,.64.04,1.27.13,1.9.12.84-.14,1.69-.71,2.32-.55.62-1.33.97-2.16.97Z"/>
    <path class="uuid-0442d179-0187-4c99-89d0-404c18108748" d="m450.43,767.95c-1.15,0-2.23-.69-2.69-1.82-.59-1.48.13-3.17,1.61-3.76,43.41-17.38,104.02-66.12,175.28-140.96,6-6.29,11.36-11.99,16.4-17.45,1.08-1.17,2.91-1.25,4.08-.16,1.17,1.08,1.25,2.91.16,4.08-5.06,5.48-10.45,11.21-16.47,17.52-71.83,75.43-133.14,124.65-177.32,142.34-.35.14-.72.21-1.07.21Z"/>
    <path class="uuid-0442d179-0187-4c99-89d0-404c18108748" d="m666,583.61c-.68,0-1.37-.24-1.92-.73-1.19-1.06-1.3-2.89-.24-4.08,4.23-4.75,8.69-9.82,13.26-15.07,4.37-4.99,9.02-10.4,14.24-16.52,20.48-24.03,41.18-49.48,61.54-75.64,13.37-17.19,26.75-34.93,39.77-52.72,13.57-18.52,26.89-37.33,39.61-55.92,20.78-30.38,39.9-60.14,56.86-88.47,14.29-23.85,27-46.7,37.78-67.94,6.15-12.09,11.04-22.52,11.08-22.62,41.84-89.26,34.99-122.19,21.87-134.09-.24-.21-.51-.46-.79-.68-1.23-1.02-1.41-2.84-.39-4.07,1.02-1.23,2.83-1.41,4.07-.39.32.27.65.55.97.83,21.2,19.25,14.29,66.63-20.49,140.85-.05.1-4.97,10.62-11.17,22.79-10.84,21.35-23.62,44.33-37.97,68.29-17.01,28.42-36.21,58.28-57.05,88.76-12.75,18.64-26.12,37.5-39.72,56.07-13.05,17.84-26.47,35.62-39.87,52.85-20.41,26.23-41.17,51.74-61.7,75.84-5.24,6.14-9.91,11.56-14.28,16.57-4.57,5.26-9.05,10.35-13.3,15.12-.57.64-1.36.97-2.16.97Z"/>
    <path class="uuid-0442d179-0187-4c99-89d0-404c18108748" d="m720.94,174.58c-.77,0-1.53-.3-2.1-.91-1.1-1.16-1.05-2.99.12-4.09,89.15-84.24,163.61-132.11,209.65-134.79.83-.05,1.67.28,2.26.89.59.62.87,1.46.78,2.3-.04.39-.05.77-.05,1.16,0,1.6-1.3,2.89-2.89,2.89-1,0-1.88-.5-2.4-1.27-44.9,4.25-116.93,51.33-203.38,133.02-.56.53-1.27.79-1.98.79Z"/>
    <path class="uuid-0442d179-0187-4c99-89d0-404c18108748" d="m611.96,408.26c-1.6,0-2.89-1.29-2.89-2.89,0-40.03-32.57-72.6-72.6-72.6-1.6,0-2.89-1.29-2.89-2.89s1.3-2.89,2.89-2.89c43.22,0,78.39,35.16,78.39,78.38,0,1.6-1.3,2.89-2.89,2.89Z"/>
    <path class="uuid-0442d179-0187-4c99-89d0-404c18108748" d="m519.7,168.99c-1.6,0-2.89-1.29-2.89-2.89,0-18.69,10.19-35.96,26.59-45.05,1.4-.77,3.15-.27,3.93,1.13.77,1.4.27,3.16-1.13,3.93-14.56,8.08-23.61,23.4-23.61,39.99,0,1.6-1.3,2.89-2.89,2.89Z"/>
    <path class="uuid-0442d179-0187-4c99-89d0-404c18108748" d="m701.67,168.99c-1.6,0-2.89-1.29-2.89-2.89,0-25.2-20.5-45.7-45.69-45.7h-19.54c-1.6,0-2.89-1.29-2.89-2.89s1.3-2.89,2.89-2.89h19.54c28.38,0,51.48,23.09,51.48,51.48,0,1.6-1.3,2.89-2.89,2.89Z"/>
    <path class="uuid-0442d179-0187-4c99-89d0-404c18108748" d="m686.44,394.84c-1.6,0-2.89-1.29-2.89-2.89,0-17.85,14.52-32.37,32.37-32.37,1.6,0,2.89,1.29,2.89,2.89s-1.3,2.89-2.89,2.89c-14.66,0-26.59,11.93-26.59,26.59,0,1.6-1.3,2.89-2.89,2.89Z"/>
    <path class="uuid-0442d179-0187-4c99-89d0-404c18108748" d="m1032.24,443.75c-1,0-1.97-.52-2.5-1.44-.8-1.38-.34-3.15,1.04-3.95,18.74-10.91,30.38-31.13,30.38-52.79v-113.77c0-33.68-27.4-61.07-61.07-61.07h-85.32c-13.43,0-26.17,4.27-36.83,12.36-1.27.97-3.08.72-4.05-.56-.96-1.27-.72-3.08.56-4.05,11.68-8.85,25.62-13.53,40.33-13.53h85.32c36.86,0,66.86,29.99,66.86,66.85v113.77c0,23.71-12.74,45.85-33.25,57.79-.46.27-.96.39-1.45.39Z"/>
    <path class="uuid-0442d179-0187-4c99-89d0-404c18108748" d="m1044.77,297.87c-1.6,0-2.89-1.29-2.89-2.89v-23.17c0-23.05-18.75-41.8-41.8-41.8h-33.67c-1.6,0-2.89-1.29-2.89-2.89s1.3-2.89,2.89-2.89h33.67c26.23,0,47.58,21.34,47.58,47.58v23.17c0,1.6-1.3,2.89-2.89,2.89Z"/>
    <path class="uuid-0442d179-0187-4c99-89d0-404c18108748" d="m163.61,496.13c-1.6,0-2.89-1.3-2.89-2.89,0-21.47,17.47-38.94,38.94-38.94,1.6,0,2.89,1.29,2.89,2.89s-1.3,2.89-2.89,2.89c-18.28,0-33.16,14.87-33.16,33.16,0,1.6-1.3,2.89-2.89,2.89Z"/>
    <path class="uuid-0442d179-0187-4c99-89d0-404c18108748" d="m500.43,313.49c-1.6,0-2.89-1.29-2.89-2.89v-144.5c0-39.01,31.74-70.74,70.76-70.74h84.78c39.02,0,70.76,31.74,70.76,70.74v34.92c0,1.6-1.3,2.89-2.89,2.89s-2.89-1.29-2.89-2.89v-34.92c0-35.82-29.15-64.96-64.98-64.96h-84.78c-35.83,0-64.98,29.14-64.98,64.96v144.5c0,1.6-1.3,2.89-2.89,2.89Z"/>
    <path class="uuid-0442d179-0187-4c99-89d0-404c18108748" d="m210.11,440.81c-.89,0-1.77-.41-2.34-1.18-16.62-22.74-25.05-47.32-25.05-73.06,0-22.15,6.31-43.58,18.74-63.7,28.74-46.56,88.03-81.27,158.6-92.84,17.26-2.85,35.11-4.3,53.04-4.3,30.49,0,60.14,4.09,88.12,12.17,1.53.44,2.42,2.05,1.98,3.58-.44,1.53-2.05,2.41-3.58,1.98-27.46-7.92-56.57-11.94-86.52-11.94-17.62,0-35.15,1.42-52.11,4.22-68.94,11.3-126.74,45.01-154.62,90.17-11.86,19.19-17.88,39.6-17.88,60.66,0,24.49,8.05,47.92,23.93,69.65.94,1.29.66,3.1-.63,4.04-.51.38-1.11.56-1.7.56Zm180.13-168.24c-9.28,0-17.47-6.58-19.47-15.64-.31-1.42-.47-2.87-.47-4.3,0-6.14,2.78-11.84,7.62-15.66,3.49-2.75,7.87-4.26,12.32-4.26,9.27,0,17.44,6.55,19.43,15.57.32,1.38.49,2.86.49,4.35,0,6.26-3,12.24-8.03,16-3.48,2.58-7.59,3.94-11.89,3.94Zm0-34.08c-3.21,0-6.23,1.05-8.74,3.02-3.44,2.71-5.41,6.76-5.41,11.11,0,1.02.11,2.05.33,3.06,1.42,6.43,7.23,11.1,13.82,11.1,3.05,0,5.97-.97,8.44-2.8,3.62-2.7,5.7-6.85,5.7-11.36,0-1.06-.11-2.09-.34-3.08-1.42-6.42-7.21-11.06-13.79-11.06Z"/>
    <path class="uuid-0442d179-0187-4c99-89d0-404c18108748" d="m234.07,299.04c-.69,0-1.38-.24-1.93-.74-1.19-1.07-1.29-2.89-.22-4.08,8.33-9.29,18.31-18,29.66-25.88,16.37-11.36,35.06-20.72,55.58-27.82,1.5-.52,3.15.28,3.68,1.79.52,1.51-.28,3.15-1.79,3.68-20.01,6.92-38.24,16.04-54.17,27.1-10.99,7.63-20.63,16.04-28.66,24.99-.57.64-1.36.96-2.15.96Z"/>
    <path class="uuid-0442d179-0187-4c99-89d0-404c18108748" d="m204.89,369.45c-1.6,0-2.89-1.29-2.89-2.89,0-19.01,5.61-37.49,16.68-54.93.85-1.35,2.64-1.75,3.99-.89,1.35.86,1.75,2.64.89,3.99-10.47,16.49-15.78,33.93-15.78,51.83,0,1.6-1.3,2.89-2.89,2.89Z"/>
    <path class="uuid-0442d179-0187-4c99-89d0-404c18108748" d="m450.51,594.12c-.67,0-1.35-.23-1.89-.71-1.2-1.05-1.33-2.87-.29-4.08,5.77-6.65,10.09-13.93,12.83-21.65.53-1.51,2.19-2.3,3.69-1.76,1.5.53,2.29,2.18,1.76,3.69-2.98,8.4-7.66,16.31-13.91,23.5-.57.66-1.38,1-2.18,1Z"/>
    <path class="uuid-0442d179-0187-4c99-89d0-404c18108748" d="m465.59,535.79c-1.29,0-2.47-.87-2.8-2.18-6.81-26.96-32.95-49.14-66.59-56.51-1.56-.34-2.55-1.88-2.2-3.44.34-1.56,1.89-2.54,3.44-2.2,35.77,7.84,63.62,31.68,70.96,60.74.39,1.55-.55,3.12-2.09,3.51-.24.06-.48.09-.71.09Z"/>
    <path class="uuid-0442d179-0187-4c99-89d0-404c18108748" d="m683.04,603.96c-1.15,0-2.24-.69-2.69-1.82-.59-1.48.13-3.16,1.62-3.76,15.78-6.29,29.05-17.11,38.38-31.3.88-1.33,2.67-1.7,4-.83,1.33.88,1.7,2.67.83,4-9.98,15.19-24.19,26.77-41.07,33.5-.35.14-.71.21-1.07.21Z"/>
    <path class="uuid-0442d179-0187-4c99-89d0-404c18108748" d="m1103.17,593.69c-.72,0-1.44-.27-1.99-.8-1.15-1.1-1.2-2.93-.1-4.09,17.31-18.16,26.85-41.49,26.85-65.69,0-1.6,1.3-2.89,2.89-2.89s2.89,1.3,2.89,2.89c0,25.7-10.1,50.45-28.45,69.68-.57.6-1.33.9-2.09.9Z"/>
    <path class="uuid-0442d179-0187-4c99-89d0-404c18108748" d="m1069.79,479.68c-.66,0-1.32-.22-1.86-.68-8.08-6.78-17.96-11.75-28.58-14.39-1.55-.38-2.49-1.95-2.11-3.5.39-1.55,1.94-2.49,3.5-2.11,11.47,2.85,22.16,8.23,30.91,15.57,1.22,1.03,1.38,2.85.36,4.07-.57.68-1.39,1.03-2.22,1.03Z"/>
    <path class="uuid-0442d179-0187-4c99-89d0-404c18108748" d="m733.81,218.3c-.77,0-1.53-.3-2.1-.91-1.1-1.16-1.05-2.99.11-4.09,15.87-15,36.67-23.27,58.55-23.27,1.6,0,2.89,1.29,2.89,2.89s-1.3,2.89-2.89,2.89c-20.4,0-39.78,7.7-54.58,21.69-.56.53-1.27.79-1.99.79Z"/>
    <path class="uuid-0442d179-0187-4c99-89d0-404c18108748" d="m708.39,277.05c-1.6,0-2.89-1.29-2.89-2.89,0-8.64,1.32-17.16,3.93-25.33.49-1.52,2.11-2.36,3.63-1.87,1.52.49,2.36,2.11,1.88,3.63-2.43,7.6-3.66,15.53-3.66,23.57,0,1.6-1.3,2.89-2.89,2.89Z"/>
    <path class="uuid-0442d179-0187-4c99-89d0-404c18108748" d="m447.55,94.62c-10.98,0-19.92-8.94-19.92-19.92,0-3.96,1.16-7.78,3.34-11.05,3.7-5.55,9.9-8.87,16.58-8.87,10.98,0,19.92,8.94,19.92,19.92,0,4.13-1.25,8.1-3.63,11.47-3.74,5.29-9.83,8.45-16.29,8.45Zm0-34.06c-4.74,0-9.14,2.35-11.77,6.3-1.55,2.32-2.37,5.03-2.37,7.84,0,7.8,6.34,14.14,14.14,14.14,4.59,0,8.91-2.24,11.57-6,1.68-2.39,2.57-5.21,2.57-8.14,0-7.8-6.34-14.14-14.14-14.14Z"/>
    <path class="uuid-5ca183c7-0ad3-4443-9865-5fa2cdf067f2" d="m447.55,84.72c-5.53,0-10.02-4.5-10.02-10.02,0-1.99.58-3.91,1.67-5.55,1.87-2.81,4.99-4.47,8.35-4.47,5.53,0,10.02,4.5,10.02,10.02,0,2.08-.63,4.08-1.83,5.78-1.87,2.65-4.94,4.24-8.19,4.24Z"/>
    <path class="uuid-0442d179-0187-4c99-89d0-404c18108748" d="m97.43,369.22c-6.78,0-13.02-3.39-16.71-9.08-2.1-3.23-3.21-6.98-3.21-10.84,0-10.98,8.94-19.92,19.92-19.92,7.8,0,14.91,4.58,18.12,11.67,1.19,2.57,1.8,5.35,1.8,8.25,0,10.98-8.94,19.92-19.92,19.92Zm0-34.06c-7.79,0-14.14,6.34-14.14,14.14,0,2.74.79,5.4,2.28,7.69,2.62,4.04,7.05,6.45,11.86,6.45,7.79,0,14.14-6.34,14.14-14.14,0-2.06-.43-4.02-1.27-5.85-2.28-5.05-7.33-8.29-12.86-8.29Z"/>
    <path class="uuid-5ca183c7-0ad3-4443-9865-5fa2cdf067f2" d="m97.43,359.32c-3.41,0-6.55-1.71-8.4-4.56-1.07-1.64-1.62-3.52-1.62-5.46,0-5.53,4.5-10.02,10.02-10.02,3.92,0,7.49,2.3,9.1,5.85.62,1.33.92,2.72.92,4.17,0,5.53-4.5,10.02-10.02,10.02Z"/>
    <path class="uuid-0442d179-0187-4c99-89d0-404c18108748" d="m249.73,654.7c-7.52,0-13.64-6.12-13.64-13.64s6.12-13.64,13.64-13.64,13.64,6.12,13.64,13.64-6.12,13.64-13.64,13.64Zm0-21.5c-4.33,0-7.86,3.53-7.86,7.86s3.53,7.86,7.86,7.86,7.86-3.53,7.86-7.86-3.52-7.86-7.86-7.86Z"/>
    <path class="uuid-0442d179-0187-4c99-89d0-404c18108748" d="m291.81,670.79c-4.91,0-8.91-4-8.91-8.91s4-8.91,8.91-8.91,8.91,4,8.91,8.91-4,8.91-8.91,8.91Zm0-12.04c-1.73,0-3.13,1.4-3.13,3.13s1.4,3.13,3.13,3.13,3.13-1.4,3.13-3.13-1.4-3.13-3.13-3.13Z"/>
    <path class="uuid-0442d179-0187-4c99-89d0-404c18108748" d="m434.12,789.87c-9.93,0-18.41-7.41-19.74-17.24-.12-.87-.18-1.78-.18-2.68,0-10.98,8.94-19.92,19.92-19.92,8.73,0,16.58,5.84,19.08,14.21.55,1.81.84,3.74.84,5.72,0,10.98-8.94,19.92-19.92,19.92Zm0-34.06c-7.79,0-14.14,6.34-14.14,14.14,0,.64.04,1.27.13,1.9.94,6.98,6.96,12.24,14.01,12.24,7.79,0,14.14-6.34,14.14-14.14,0-1.4-.2-2.76-.59-4.04-1.78-5.95-7.35-10.1-13.55-10.1Z"/>
    <path class="uuid-0442d179-0187-4c99-89d0-404c18108748" d="m805.11,690.18c-10.98,0-19.92-8.94-19.92-19.92,0-4.3,1.41-8.55,3.98-11.95,3.74-4.99,9.7-7.97,15.94-7.97,10.98,0,19.92,8.94,19.92,19.92,0,4.12-1.25,8.08-3.61,11.44-3.74,5.31-9.83,8.48-16.31,8.48Zm0-34.06c-4.43,0-8.66,2.11-11.32,5.66-1.85,2.45-2.82,5.38-2.82,8.48,0,7.79,6.34,14.14,14.14,14.14,4.6,0,8.93-2.25,11.58-6.03,1.67-2.38,2.56-5.19,2.56-8.11,0-7.79-6.34-14.14-14.14-14.14Z"/>
    <path class="uuid-5ca183c7-0ad3-4443-9865-5fa2cdf067f2" d="m805.11,680.28c-5.53,0-10.02-4.49-10.02-10.02,0-2.19.69-4.27,1.99-6,1.92-2.56,4.84-4.02,8.03-4.02,5.53,0,10.02,4.49,10.02,10.02,0,2.08-.63,4.06-1.81,5.75-1.88,2.67-4.95,4.27-8.21,4.27Z"/>
    <path class="uuid-0442d179-0187-4c99-89d0-404c18108748" d="m945.74,59.08c-10.98,0-19.92-8.94-19.92-19.92,0-.59.02-1.19.09-1.78.86-10.14,9.57-18.14,19.83-18.14,10.98,0,19.92,8.94,19.92,19.92,0,3.21-.73,6.26-2.18,9.07-3.42,6.69-10.22,10.85-17.74,10.85Zm0-34.06c-7.28,0-13.47,5.67-14.08,12.91-.05.45-.06.84-.06,1.23,0,7.8,6.34,14.14,14.14,14.14,5.34,0,10.17-2.95,12.6-7.71,1.02-1.99,1.54-4.15,1.54-6.43,0-7.8-6.34-14.14-14.14-14.14Z"/>
    <path class="uuid-5ca183c7-0ad3-4443-9865-5fa2cdf067f2" d="m945.74,49.18c-5.53,0-10.02-4.5-10.02-10.02,0-.24,0-.49.03-.73.45-5.28,4.83-9.29,9.99-9.29,5.53,0,10.02,4.5,10.02,10.02,0,1.62-.36,3.14-1.08,4.53-1.73,3.39-5.16,5.49-8.94,5.49Z"/>
    <path class="uuid-0442d179-0187-4c99-89d0-404c18108748" d="m914.77,115.19c-5.79,0-10.5-4.71-10.5-10.5s4.71-10.5,10.5-10.5,10.5,4.71,10.5,10.5-4.71,10.5-10.5,10.5Zm0-15.22c-2.6,0-4.72,2.12-4.72,4.72s2.12,4.72,4.72,4.72,4.72-2.12,4.72-4.72-2.12-4.72-4.72-4.72Z"/>
    <path class="uuid-0442d179-0187-4c99-89d0-404c18108748" d="m1161.95,212.74c-10.98,0-19.92-8.94-19.92-19.92,0-.5.02-1.01.06-1.49.74-10.33,9.46-18.45,19.86-18.45,10.98,0,19.92,8.94,19.92,19.94,0,1.23-.11,2.43-.35,3.66-1.73,9.41-9.96,16.26-19.57,16.26Zm0-34.08c-7.38,0-13.57,5.76-14.09,13.12-.03.36-.04.7-.04,1.04,0,7.8,6.34,14.14,14.14,14.14,6.82,0,12.66-4.85,13.89-11.54.17-.89.25-1.73.25-2.6,0-7.81-6.34-14.16-14.14-14.16Z"/>
    <path class="uuid-5ca183c7-0ad3-4443-9865-5fa2cdf067f2" d="m1161.95,202.84c-5.53,0-10.02-4.5-10.02-10.02,0-.22,0-.43.03-.64.38-5.32,4.77-9.4,10-9.4,5.53,0,10.02,4.5,10.02,10.04,0,.6-.06,1.19-.18,1.81-.88,4.77-5.01,8.21-9.85,8.21Z"/>
    <path class="uuid-0442d179-0187-4c99-89d0-404c18108748" d="m1038.08,160.2c-.98,0-1.97-.16-2.95-.49-2.33-.79-4.22-2.44-5.31-4.65-1.09-2.21-1.26-4.71-.47-7.04.79-2.33,2.44-4.22,4.65-5.31,2.21-1.09,4.71-1.26,7.04-.47,4.82,1.63,7.41,6.87,5.79,11.69h0c-1.3,3.84-4.9,6.27-8.75,6.27Zm0-12.67c-.52,0-1.04.12-1.52.36-.82.41-1.44,1.11-1.73,1.98-.3.87-.23,1.81.17,2.63.41.82,1.11,1.44,1.98,1.73.87.29,1.81.23,2.63-.18.82-.41,1.44-1.11,1.73-1.98h0c.61-1.8-.36-3.76-2.16-4.37-.36-.12-.73-.18-1.11-.18Zm6,5.47h.02-.02Z"/>
    <path class="uuid-0442d179-0187-4c99-89d0-404c18108748" d="m1237.88,314.94c-6.3,0-11.43-5.13-11.43-11.43s5.13-11.43,11.43-11.43,11.43,5.13,11.43,11.43-5.13,11.43-11.43,11.43Zm0-17.07c-3.11,0-5.64,2.53-5.64,5.65s2.53,5.65,5.64,5.65,5.64-2.53,5.64-5.65-2.53-5.65-5.64-5.65Z"/>
    <path class="uuid-0442d179-0187-4c99-89d0-404c18108748" d="m803.47,76.36c-6.3,0-11.43-5.13-11.43-11.43s5.13-11.43,11.43-11.43,11.43,5.13,11.43,11.43-5.13,11.43-11.43,11.43Zm0-17.07c-3.11,0-5.64,2.53-5.64,5.65s2.53,5.65,5.64,5.65,5.64-2.53,5.64-5.65-2.53-5.65-5.64-5.65Z"/>
    <path class="uuid-0442d179-0187-4c99-89d0-404c18108748" d="m1187.84,234.27c-3.95,0-7.16-3.21-7.16-7.16s3.21-7.16,7.16-7.16,7.16,3.21,7.16,7.16-3.21,7.16-7.16,7.16Zm0-8.54c-.76,0-1.38.62-1.38,1.38s.62,1.38,1.38,1.38,1.38-.62,1.38-1.38-.62-1.38-1.38-1.38Z"/>
    <path class="uuid-0442d179-0187-4c99-89d0-404c18108748" d="m1103.17,435.21c-3.95,0-7.16-3.21-7.16-7.16s3.21-7.16,7.16-7.16,7.16,3.21,7.16,7.16-3.21,7.16-7.16,7.16Zm0-8.54c-.76,0-1.38.62-1.38,1.38s.62,1.38,1.38,1.38,1.38-.62,1.38-1.38-.62-1.38-1.38-1.38Z"/>
    <path class="uuid-0442d179-0187-4c99-89d0-404c18108748" d="m1176.44,456.33c-10.92,0-19.81-8.89-19.81-19.81s8.89-19.81,19.81-19.81,19.81,8.89,19.81,19.81-8.89,19.81-19.81,19.81Zm0-33.83c-7.73,0-14.03,6.29-14.03,14.03s6.29,14.03,14.03,14.03,14.03-6.29,14.03-14.03-6.29-14.03-14.03-14.03Z"/>
    <path class="uuid-0442d179-0187-4c99-89d0-404c18108748" d="m778.45,606.27c-9.61,0-17.44-7.82-17.44-17.44s7.82-17.44,17.44-17.44,17.44,7.82,17.44,17.44-7.82,17.44-17.44,17.44Zm0-29.09c-6.43,0-11.65,5.23-11.65,11.65s5.23,11.65,11.65,11.65,11.65-5.23,11.65-11.65-5.23-11.65-11.65-11.65Z"/>
    <path class="uuid-0442d179-0187-4c99-89d0-404c18108748" d="m809.87,587.76c-5.12,0-9.28-4.17-9.28-9.28s4.17-9.28,9.28-9.28,9.28,4.17,9.28,9.28-4.17,9.28-9.28,9.28Zm0-12.79c-1.93,0-3.5,1.57-3.5,3.5s1.57,3.5,3.5,3.5,3.5-1.57,3.5-3.5-1.57-3.5-3.5-3.5Z"/>
    <path class="uuid-0442d179-0187-4c99-89d0-404c18108748" d="m1218.4,425.8c-6.28,0-11.39-5.11-11.39-11.39s5.11-11.39,11.39-11.39,11.39,5.11,11.39,11.39-5.11,11.39-11.39,11.39Zm0-16.99c-3.09,0-5.6,2.51-5.6,5.6s2.51,5.61,5.6,5.61,5.6-2.52,5.6-5.61-2.51-5.6-5.6-5.6Z"/>
    <path class="uuid-0442d179-0187-4c99-89d0-404c18108748" d="m388.66,188.96c-9.43,0-17.11-7.67-17.11-17.11s7.68-17.11,17.11-17.11,17.11,7.67,17.11,17.11-7.67,17.11-17.11,17.11Zm0-28.43c-6.24,0-11.32,5.08-11.32,11.33s5.08,11.33,11.32,11.33,11.32-5.08,11.32-11.33-5.08-11.33-11.32-11.33Z"/>
    <path class="uuid-0442d179-0187-4c99-89d0-404c18108748" d="m156.45,416.65c-7.36,0-13.36-5.99-13.36-13.35s5.99-13.35,13.36-13.35,13.36,5.99,13.36,13.35-5.99,13.35-13.36,13.35Zm0-20.93c-4.18,0-7.57,3.4-7.57,7.57s3.4,7.57,7.57,7.57,7.57-3.4,7.57-7.57-3.4-7.57-7.57-7.57Z"/>
    <path class="uuid-0442d179-0187-4c99-89d0-404c18108748" d="m138.81,228.67c-7.36,0-13.36-5.99-13.36-13.35s5.99-13.35,13.36-13.35,13.36,5.99,13.36,13.35-5.99,13.35-13.36,13.35Zm0-20.93c-4.18,0-7.57,3.4-7.57,7.57s3.4,7.57,7.57,7.57,7.57-3.4,7.57-7.57-3.4-7.57-7.57-7.57Z"/>
    <path class="uuid-0442d179-0187-4c99-89d0-404c18108748" d="m158,204.86c-4.48,0-8.12-3.64-8.12-8.12s3.64-8.12,8.12-8.12,8.12,3.64,8.12,8.12-3.64,8.12-8.12,8.12Zm0-10.46c-1.29,0-2.34,1.05-2.34,2.34s1.05,2.34,2.34,2.34,2.34-1.05,2.34-2.34-1.05-2.34-2.34-2.34Z"/>
    <path class="uuid-0442d179-0187-4c99-89d0-404c18108748" d="m255.73,395.72c-1.85,0-3.63-.63-5.09-1.81-1.69-1.37-2.74-3.3-2.97-5.46-.23-2.16.4-4.27,1.76-5.96,1.37-1.69,3.3-2.74,5.46-2.97,4.46-.48,8.46,2.77,8.93,7.22h0c.47,4.46-2.77,8.46-7.22,8.93-.29.03-.58.05-.87.05Zm.02-10.47c-.08,0-.16,0-.25.01-.62.07-1.18.37-1.57.86s-.57,1.1-.51,1.72c.07.62.37,1.18.86,1.58.49.39,1.1.57,1.72.51,1.28-.14,2.22-1.29,2.08-2.57h0c-.13-1.2-1.15-2.1-2.33-2.1Z"/>
    <path class="uuid-0442d179-0187-4c99-89d0-404c18108748" d="m844.28,123.99c-.34,0-.69-.06-1.02-.19-1.49-.57-2.24-2.24-1.68-3.73l11.37-29.98c.57-1.49,2.24-2.24,3.73-1.68,1.49.57,2.24,2.24,1.68,3.73l-11.37,29.98c-.44,1.16-1.54,1.87-2.7,1.87Z"/>
    <path class="uuid-0442d179-0187-4c99-89d0-404c18108748" d="m864.94,114.71c-.34,0-.69-.06-1.03-.19l-29.96-11.42c-1.49-.57-2.24-2.24-1.67-3.73.57-1.49,2.24-2.24,3.73-1.67l29.96,11.42c1.49.57,2.24,2.24,1.67,3.73-.44,1.15-1.54,1.86-2.7,1.86Z"/>
    <path class="uuid-0442d179-0187-4c99-89d0-404c18108748" d="m288.02,429.92c-1.12,0-2.18-.65-2.66-1.75l-12.71-29.44c-.63-1.47.04-3.17,1.51-3.8,1.46-.64,3.17.04,3.8,1.51l12.71,29.44c.63,1.47-.04,3.17-1.51,3.8-.37.16-.76.24-1.14.24Z"/>
    <path class="uuid-0442d179-0187-4c99-89d0-404c18108748" d="m266.93,421.53c-1.12,0-2.19-.66-2.66-1.75-.63-1.47.05-3.17,1.51-3.8l29.46-12.66c1.47-.63,3.17.05,3.8,1.52.63,1.47-.05,3.17-1.51,3.8l-29.46,12.66c-.37.16-.76.24-1.14.24Z"/>
    <path class="uuid-0442d179-0187-4c99-89d0-404c18108748" d="m1231.16,265.63c-.34,0-.69-.06-1.02-.19-1.49-.57-2.24-2.24-1.68-3.73l13.45-35.47c.57-1.49,2.24-2.24,3.73-1.68,1.49.57,2.24,2.24,1.68,3.73l-13.45,35.47c-.44,1.16-1.54,1.87-2.7,1.87Z"/>
    <path class="uuid-0442d179-0187-4c99-89d0-404c18108748" d="m1255.6,254.65c-.34,0-.69-.06-1.03-.19l-35.44-13.51c-1.49-.57-2.24-2.24-1.67-3.73.57-1.49,2.24-2.24,3.73-1.67l35.44,13.51c1.49.57,2.24,2.24,1.67,3.73-.44,1.15-1.54,1.86-2.7,1.86Z"/>
    <path class="uuid-0442d179-0187-4c99-89d0-404c18108748" d="m840.39,641.78c-.34,0-.69-.06-1.02-.19-1.49-.57-2.24-2.24-1.68-3.73l13.45-35.47c.57-1.49,2.24-2.24,3.73-1.68,1.49.57,2.24,2.24,1.68,3.73l-13.45,35.47c-.44,1.15-1.54,1.87-2.7,1.87Z"/>
    <path class="uuid-0442d179-0187-4c99-89d0-404c18108748" d="m864.83,630.81c-.34,0-.69-.06-1.03-.19l-35.44-13.51c-1.49-.57-2.24-2.24-1.67-3.73.57-1.49,2.24-2.23,3.73-1.67l35.44,13.51c1.49.57,2.24,2.24,1.67,3.73-.44,1.15-1.54,1.86-2.7,1.86Z"/>
    <path class="uuid-0442d179-0187-4c99-89d0-404c18108748" d="m885.99,667.51c-.34,0-.69-.06-1.02-.19-1.49-.57-2.24-2.23-1.68-3.73l10.12-26.7c.57-1.49,2.24-2.24,3.73-1.68,1.49.57,2.24,2.23,1.68,3.73l-10.12,26.7c-.44,1.15-1.54,1.87-2.7,1.87Z"/>
    <path class="uuid-0442d179-0187-4c99-89d0-404c18108748" d="m904.39,659.24c-.34,0-.69-.06-1.03-.19l-26.69-10.17c-1.49-.57-2.24-2.24-1.67-3.73.57-1.49,2.24-2.24,3.73-1.67l26.69,10.17c1.49.57,2.24,2.24,1.67,3.73-.44,1.15-1.54,1.86-2.7,1.86Z"/>
    <path class="uuid-0442d179-0187-4c99-89d0-404c18108748" d="m1047.06,141.86c-.31,0-.62-.05-.93-.15l-8.81-2.98c-1.39-.47-2.21-1.92-1.9-3.35l15.79-72.35c.18-.8.68-1.49,1.4-1.9.71-.4,1.57-.49,2.35-.22l24.24,8.2c.78.26,1.41.84,1.73,1.6.32.76.31,1.61-.04,2.36l-31.22,67.13c-.49,1.04-1.52,1.67-2.62,1.67Zm-5.44-7.78l3.91,1.32,28.77-61.86-18.13-6.13-14.55,66.66Z"/>
    <path class="uuid-0442d179-0187-4c99-89d0-404c18108748" d="m267.61,213.03c-1.19,0-2.39-.24-3.53-.7-2.28-.94-4.05-2.71-4.99-4.99-.94-2.27-.95-4.78,0-7.06.94-2.28,2.71-4.05,4.99-4.99,4.7-1.95,10.1.29,12.05,4.98t0,0c1.95,4.7-.29,10.11-4.99,12.05-1.14.47-2.34.71-3.54.71Zm0-12.67c-.44,0-.88.08-1.31.26-.85.35-1.51,1.01-1.86,1.86-.35.85-.35,1.79,0,2.63.35.85,1.01,1.51,1.86,1.86.85.35,1.79.35,2.64,0,1.75-.73,2.59-2.75,1.86-4.5h0c-.55-1.32-1.84-2.12-3.19-2.12Z"/>
    <path class="uuid-0442d179-0187-4c99-89d0-404c18108748" d="m257.85,195.31c-1.02,0-2.01-.55-2.53-1.49l-35.78-64.83c-.4-.72-.47-1.58-.2-2.35.27-.78.86-1.4,1.62-1.72l23.64-9.81c.76-.31,1.62-.29,2.36.06.74.36,1.3,1.01,1.53,1.8l20.74,71.07c.41,1.42-.31,2.92-1.67,3.48l-8.59,3.56c-.36.15-.74.22-1.11.22Zm-31.69-66.29l32.97,59.74,3.81-1.58-19.11-65.49-17.68,7.33Z"/>
    <path class="uuid-0442d179-0187-4c99-89d0-404c18108748" d="m1119.42,163.65h-31.26c-1.03,0-1.99-.55-2.5-1.44-.26-.45-.39-.95-.39-1.45s.13-1,.39-1.45l15.63-27.07c.52-.89,1.47-1.44,2.5-1.44s1.99.55,2.5,1.44l15.63,27.07c.26.45.39.95.39,1.45s-.13,1-.39,1.45c-.52.89-1.47,1.44-2.5,1.44Zm-26.25-5.78h21.25l-10.62-18.4-10.62,18.4Z"/>
    <path class="uuid-0442d179-0187-4c99-89d0-404c18108748" d="m911.6,193.27c-.68,0-1.34-.24-1.87-.69l-18.24-15.53c-.65-.55-1.02-1.36-1.02-2.2,0-.17.02-.35.05-.52.19-1.02.9-1.86,1.87-2.2l22.57-8.03c.97-.35,2.06-.15,2.84.52.65.55,1.02,1.36,1.02,2.2,0,.17-.02.35-.05.52l-4.33,23.56c-.19,1.02-.9,1.86-1.87,2.2-.32.11-.65.17-.97.17Zm-12.56-17.38l10.62,9.04,2.52-13.71-13.14,4.67Z"/>
    <path class="uuid-0442d179-0187-4c99-89d0-404c18108748" d="m1150.68,136.07h-31.26c-1.03,0-1.99-.55-2.5-1.44-.26-.45-.39-.95-.39-1.45s.13-1,.39-1.45l15.63-27.07c.52-.89,1.47-1.44,2.5-1.44h0c1.03,0,1.99.55,2.5,1.44l15.63,27.07c.26.45.39.95.39,1.45s-.13,1-.39,1.45c-.52.89-1.47,1.44-2.5,1.44Zm-26.25-5.78h21.25l-10.62-18.4-10.62,18.4Z"/>
    <path class="uuid-0442d179-0187-4c99-89d0-404c18108748" d="m726.14,116.16c-1.07,0-2.1-.6-2.6-1.63-.7-1.44-.1-3.17,1.33-3.86l31.03-15.1c1.44-.7,3.17-.1,3.86,1.33.7,1.44.1,3.17-1.33,3.86l-31.03,15.1c-.41.2-.84.29-1.26.29Z"/>
    <path class="uuid-0442d179-0187-4c99-89d0-404c18108748" d="m704.16,94.18c-.42,0-.86-.09-1.26-.29-1.44-.7-2.03-2.43-1.33-3.86l15.1-31.03c.7-1.43,2.43-2.03,3.86-1.33,1.44.7,2.03,2.43,1.33,3.86l-15.1,31.03c-.5,1.03-1.53,1.63-2.6,1.63Z"/>
    <path class="uuid-0442d179-0187-4c99-89d0-404c18108748" d="m715.15,105.17c-.74,0-1.48-.28-2.04-.85-1.13-1.13-1.13-2.96,0-4.09l33.51-33.51c1.13-1.13,2.96-1.13,4.09,0,1.13,1.13,1.13,2.96,0,4.09l-33.51,33.51c-.56.56-1.31.85-2.04.85Z"/>
    <path class="uuid-0442d179-0187-4c99-89d0-404c18108748" d="m336.37,327.92c-.85,0-1.69-.37-2.26-1.09l-24.98-31.37c-.99-1.25-.79-3.07.46-4.06,1.25-1,3.07-.79,4.06.46l24.98,31.37c.99,1.25.79,3.07-.46,4.06-.53.42-1.17.63-1.8.63Z"/>
    <path class="uuid-0442d179-0187-4c99-89d0-404c18108748" d="m317,358.41c-.22,0-.44-.03-.67-.08l-39.02-9.27c-1.55-.37-2.51-1.93-2.14-3.48.37-1.55,1.91-2.51,3.48-2.14l39.02,9.27c1.55.37,2.51,1.93,2.14,3.48-.32,1.33-1.5,2.22-2.81,2.22Z"/>
    <path class="uuid-0442d179-0187-4c99-89d0-404c18108748" d="m326.68,343.16c-.53,0-1.07-.15-1.55-.45l-46.5-29.53c-1.35-.86-1.75-2.64-.89-3.99.86-1.35,2.64-1.75,3.99-.89l46.5,29.53c1.35.86,1.75,2.64.89,3.99-.55.87-1.49,1.34-2.44,1.34Z"/>
    <path class="uuid-0442d179-0187-4c99-89d0-404c18108748" d="m210.87,241.94c-.93,0-1.81-.45-2.36-1.22l-7.87-11.12-13.61.17h-.04c-1.09,0-2.08-.61-2.57-1.58-.5-.98-.4-2.16.26-3.04l8.14-10.91-4.37-12.9c-.35-1.04-.08-2.19.69-2.97.78-.78,1.93-1.05,2.97-.69l12.9,4.37,10.91-8.14c.88-.66,2.06-.76,3.04-.26.98.5,1.59,1.51,1.58,2.61l-.17,13.62,11.12,7.86c.9.64,1.36,1.73,1.19,2.81-.17,1.09-.95,1.98-2,2.31l-13,4.04-4.04,13c-.33,1.05-1.22,1.82-2.31,2-.15.02-.3.03-.45.03Zm-8.74-18.14c.94,0,1.82.45,2.36,1.22l5.36,7.58,2.75-8.86c.28-.91.99-1.62,1.9-1.9l8.86-2.75-7.58-5.36c-.78-.55-1.23-1.45-1.22-2.4l.12-9.28-7.44,5.55c-.76.57-1.76.73-2.66.42l-8.79-2.98,2.98,8.79c.31.9.15,1.89-.42,2.66l-5.55,7.44,9.28-.12h.04Z"/>
    <path class="uuid-0442d179-0187-4c99-89d0-404c18108748" d="m1112.33,263.36c-.93,0-1.81-.45-2.36-1.22l-7.88-11.1-13.61.2h-.04c-1.08,0-2.08-.61-2.57-1.57-.5-.98-.4-2.16.25-3.04l8.12-10.93-4.39-12.89c-.36-1.04-.09-2.19.69-2.97.78-.78,1.93-1.05,2.97-.7l12.9,4.35,10.9-8.16c.88-.66,2.06-.76,3.04-.26.98.5,1.6,1.51,1.58,2.61l-.15,13.62,11.13,7.84c.9.63,1.36,1.72,1.19,2.81-.17,1.09-.94,1.98-1.99,2.31l-13,4.06-4.02,13.01c-.32,1.05-1.22,1.83-2.3,2-.15.02-.31.04-.46.04Zm-8.76-18.12c.94,0,1.82.45,2.36,1.22l5.37,7.57,2.74-8.86c.28-.91.99-1.62,1.9-1.91l8.86-2.77-7.58-5.35c-.78-.55-1.24-1.44-1.23-2.39l.1-9.28-7.43,5.56c-.76.57-1.76.73-2.66.43l-8.79-2.97,2.99,8.78c.31.9.15,1.89-.42,2.66l-5.54,7.45,9.28-.14h.04Z"/>
    <path class="uuid-0442d179-0187-4c99-89d0-404c18108748" d="m155.33,299.96c-.59,0-1.16-.18-1.65-.52l-12.4-8.62c-1.31-.91-1.63-2.71-.72-4.02l22.15-31.86c.44-.63,1.11-1.06,1.86-1.2.76-.14,1.53.04,2.16.47l12.4,8.62c1.31.91,1.63,2.71.72,4.02l-22.15,31.86c-.44.63-1.11,1.06-1.86,1.2-.17.03-.34.05-.51.05Zm-8.38-12.24l7.65,5.32,18.85-27.11-7.65-5.32-18.85,27.11Z"/>
    <path class="uuid-0442d179-0187-4c99-89d0-404c18108748" d="m711.04,695.52c-.59,0-1.16-.18-1.65-.52l-12.4-8.62c-1.31-.91-1.63-2.71-.72-4.02l22.15-31.86c.91-1.31,2.71-1.64,4.02-.72l12.4,8.62c.63.44,1.06,1.11,1.19,1.86.14.75-.03,1.53-.47,2.16l-22.15,31.86c-.44.63-1.11,1.06-1.86,1.19-.17.03-.34.05-.51.05Zm-8.38-12.24l7.65,5.32,18.85-27.11-7.66-5.32-18.85,27.11Z"/>
    <path class="uuid-0442d179-0187-4c99-89d0-404c18108748" d="m87.74,455.74c-.33,0-.66-.05-.98-.17l-21.02-7.56c-1.5-.54-2.28-2.2-1.74-3.7l15.11-42.04c.54-1.5,2.2-2.28,3.7-1.74l42.04,15.11c1.5.54,2.28,2.2,1.74,3.7l-7.56,21.02c-.26.72-.79,1.31-1.49,1.64-.69.33-1.49.36-2.21.11l-18.3-6.58-6.58,18.3c-.42,1.18-1.53,1.91-2.72,1.91Zm-17.32-12.19l15.58,5.6,6.58-18.3c.54-1.5,2.2-2.28,3.7-1.74l18.3,6.58,5.6-15.58-36.6-13.16-13.16,36.6Z"/>
    <path class="uuid-0442d179-0187-4c99-89d0-404c18108748" d="m1123.88,347.47c-.46,0-.91-.11-1.32-.32l-13.93-7.15c-.68-.35-1.2-.96-1.43-1.69-.24-.73-.17-1.52.18-2.21l5.83-11.36-11.36-5.83c-1.42-.73-1.98-2.47-1.25-3.89l7.15-13.93c.35-.68.96-1.2,1.69-1.43.73-.23,1.52-.17,2.21.18l27.87,14.3c1.42.73,1.98,2.47,1.25,3.89l-14.3,27.87c-.35.68-.96,1.2-1.69,1.43-.29.09-.59.14-.88.14Zm-10.04-11.29l8.79,4.51,11.66-22.72-22.72-11.66-4.51,8.79,11.36,5.83c.68.35,1.2.96,1.43,1.69.24.73.17,1.52-.18,2.21l-5.83,11.36Z"/>
    <path class="uuid-0442d179-0187-4c99-89d0-404c18108748" d="m1159.2,336.11c-.46,0-.91-.11-1.32-.32l-13.93-7.15c-.68-.35-1.2-.96-1.43-1.69-.24-.73-.17-1.52.18-2.21l5.83-11.36-11.36-5.83c-1.42-.73-1.98-2.47-1.25-3.89l7.15-13.93c.35-.68.96-1.2,1.69-1.43.73-.23,1.52-.17,2.21.18l27.86,14.3c1.42.73,1.98,2.47,1.25,3.89l-14.3,27.87c-.35.68-.96,1.2-1.69,1.43-.29.09-.59.14-.88.14Zm-10.04-11.29l8.79,4.51,11.66-22.72-22.72-11.66-4.51,8.79,11.36,5.83c1.42.73,1.98,2.47,1.25,3.89l-5.83,11.36Z"/>
    <path class="uuid-0442d179-0187-4c99-89d0-404c18108748" d="m1030.86,669.98s-.04,0-.06,0l-31.31-.66c-.77-.02-1.5-.34-2.03-.89-.53-.55-.82-1.3-.8-2.06l.33-15.66c.03-1.58,1.32-2.83,2.89-2.83.02,0,.04,0,.06,0l12.77.27.27-12.77c.03-1.58,1.32-2.83,2.89-2.83.02,0,.04,0,.06,0l15.66.33c.77.02,1.5.34,2.03.89.53.55.82,1.3.8,2.06l-.66,31.31c-.03,1.58-1.32,2.83-2.89,2.83Zm-28.36-6.38l25.54.54.54-25.53-9.88-.21-.27,12.77c-.03,1.59-1.35,2.84-2.95,2.83l-12.77-.27-.21,9.88Z"/>
    <path class="uuid-0442d179-0187-4c99-89d0-404c18108748" d="m329.27,89.13c-.37,0-.74-.07-1.09-.21-.98-.4-1.66-1.3-1.78-2.35l-1.49-12.97-8.25-10.12c-.67-.82-.84-1.94-.44-2.92.4-.98,1.3-1.66,2.35-1.78l12.97-1.49,10.12-8.25c.82-.67,1.94-.84,2.92-.44.98.4,1.66,1.3,1.78,2.35l1.49,12.97,8.25,10.12c.67.82.84,1.94.44,2.92-.4.98-1.3,1.66-2.35,1.78l-12.97,1.49-10.12,8.25c-.53.43-1.17.65-1.83.65Zm-4.8-25.21l5.45,6.68c.35.43.57.95.63,1.5l.98,8.56,6.68-5.45c.43-.35.95-.57,1.5-.63l8.56-.98-5.45-6.68c-.35-.43-.57-.95-.63-1.5l-.98-8.56-6.68,5.45c-.43.35-.95.57-1.5.63l-8.56.98Z"/>
    <path class="uuid-0442d179-0187-4c99-89d0-404c18108748" d="m601.17,730.33c-.37,0-.74-.07-1.09-.21-.98-.4-1.66-1.3-1.78-2.35l-1.49-12.97-8.25-10.12c-.67-.82-.84-1.94-.44-2.92.4-.98,1.3-1.66,2.35-1.78l12.97-1.49,10.12-8.25c.82-.67,1.94-.84,2.92-.44.98.4,1.66,1.3,1.78,2.35l1.49,12.97,8.25,10.12c.67.82.84,1.94.44,2.92-.4.98-1.3,1.66-2.35,1.78l-12.97,1.49-10.12,8.25c-.53.43-1.17.65-1.83.65Zm-4.8-25.21l5.45,6.68c.35.43.57.95.63,1.5l.98,8.56,6.68-5.45c.43-.35.95-.57,1.5-.63l8.56-.98-5.45-6.68c-.35-.43-.57-.95-.63-1.5l-.98-8.56-6.68,5.45c-.43.35-.95.57-1.5.63l-8.56.98Z"/>
    <path class="uuid-0442d179-0187-4c99-89d0-404c18108748" d="m559.25,85.67c-.5,0-1.01-.13-1.48-.41-1.37-.82-1.82-2.59-1-3.96l8.61-14.42c.7-1.17,2.12-1.69,3.41-1.26l13.68,4.66,7.41-12.42c.7-1.17,2.12-1.69,3.42-1.25l13.68,4.66,7.41-12.41c.7-1.17,2.12-1.69,3.41-1.26l13.68,4.66,7.41-12.42c.7-1.17,2.12-1.69,3.41-1.25l15.9,5.42c1.51.51,2.32,2.16,1.8,3.67-.51,1.51-2.16,2.32-3.67,1.8l-13.68-4.66-7.41,12.42c-.7,1.17-2.12,1.69-3.41,1.25l-13.68-4.66-7.41,12.41c-.7,1.17-2.12,1.7-3.41,1.26l-13.68-4.66-7.41,12.42c-.7,1.17-2.12,1.69-3.41,1.25l-13.68-4.66-7.41,12.41c-.54.91-1.5,1.41-2.49,1.41Z"/>
    <path class="uuid-0442d179-0187-4c99-89d0-404c18108748" d="m577.59,59.47c-.5,0-1.01-.13-1.48-.41-1.37-.82-1.82-2.59-1-3.96l8.61-14.43c.7-1.17,2.12-1.69,3.41-1.25l13.68,4.66,7.41-12.41c.7-1.17,2.12-1.69,3.41-1.26l13.68,4.66,7.41-12.42c.7-1.17,2.12-1.69,3.41-1.25l13.68,4.66,7.41-12.41c.7-1.17,2.12-1.69,3.41-1.26l15.9,5.42c1.51.52,2.32,2.16,1.8,3.67-.52,1.51-2.15,2.32-3.67,1.8l-13.69-4.66-7.41,12.41c-.7,1.17-2.12,1.69-3.42,1.26l-13.68-4.66-7.41,12.42c-.7,1.17-2.12,1.69-3.41,1.26l-13.68-4.66-7.41,12.41c-.7,1.17-2.12,1.69-3.41,1.26l-13.68-4.66-7.41,12.42c-.54.91-1.5,1.41-2.49,1.41Z"/>
    <path class="uuid-0442d179-0187-4c99-89d0-404c18108748" d="m466.13,174.01c-.67,0-1.34-.23-1.89-.7l-11.78-10.18c-.87-.75-1.21-1.93-.88-3.03l3.97-13.1-10.36-8.95c-.87-.75-1.21-1.93-.88-3.03l4.52-14.9c.47-1.53,2.08-2.39,3.61-1.93,1.53.46,2.39,2.08,1.93,3.61l-3.98,13.1,10.36,8.95c.87.75,1.21,1.93.88,3.03l-3.97,13.1,10.36,8.95c1.21,1.04,1.34,2.87.3,4.08-.57.66-1.38,1-2.19,1Z"/>
    <path class="uuid-0442d179-0187-4c99-89d0-404c18108748" d="m449.42,176.33c-.67,0-1.34-.23-1.89-.7l-11.78-10.18c-.87-.75-1.21-1.93-.88-3.03l3.98-13.1-10.36-8.95c-.87-.75-1.21-1.93-.88-3.03l4.52-14.9c.46-1.53,2.09-2.39,3.6-1.93,1.53.46,2.39,2.08,1.93,3.61l-3.97,13.1,10.36,8.95c.87.75,1.21,1.93.88,3.03l-3.98,13.1,10.36,8.95c1.21,1.04,1.34,2.87.3,4.08-.57.66-1.38,1-2.19,1Z"/>
    <path class="uuid-0442d179-0187-4c99-89d0-404c18108748" d="m795.04,738.17c-1.05,0-2.03-.57-2.54-1.51l-6.55-12.03-13.65,1.1c-1.12.1-2.23-.5-2.77-1.5l-7.44-13.68c-.76-1.4-.24-3.16,1.16-3.92,1.4-.77,3.16-.24,3.92,1.16l6.55,12.03,13.65-1.1c1.14-.1,2.23.5,2.77,1.5l6.55,12.03,13.65-1.1c1.56-.14,2.99,1.06,3.11,2.65.13,1.59-1.06,2.99-2.65,3.11l-15.52,1.25c-.08,0-.16.01-.23.01Z"/>
    <path class="uuid-0442d179-0187-4c99-89d0-404c18108748" d="m417.27,720.76c-.35,0-.7-.06-1.04-.19-1.49-.57-2.23-2.25-1.66-3.74,1.71-4.43,6.35-7.11,11.04-6.35l9.37,1.5c1.99.32,4-.83,4.73-2.73l3.41-8.85c1.71-4.43,6.35-7.11,11.04-6.35l9.37,1.5c2.02.32,4-.82,4.73-2.72l3.41-8.86c1.71-4.43,6.36-7.11,11.04-6.35l9.37,1.5c1.99.32,4-.82,4.73-2.72l3.41-8.86c1.71-4.43,6.35-7.1,11.04-6.35,1.58.25,2.65,1.73,2.4,3.31-.25,1.57-1.73,2.65-3.31,2.4-2.02-.32-4,.83-4.73,2.72l-3.41,8.85c-1.71,4.43-6.35,7.1-11.04,6.35l-9.37-1.5c-2.01-.32-4,.82-4.73,2.72l-3.41,8.86c-1.71,4.43-6.35,7.11-11.04,6.35l-9.37-1.5c-2.02-.32-4,.82-4.73,2.72l-3.41,8.86c-1.71,4.43-6.35,7.1-11.04,6.35l-9.37-1.5c-2.01-.32-4,.82-4.73,2.72-.44,1.15-1.54,1.85-2.7,1.85Z"/>
    <path class="uuid-0442d179-0187-4c99-89d0-404c18108748" d="m511.92,84.82c-.74,0-1.48-.28-2.04-.85l-19.88-19.88c-1.13-1.13-1.13-2.96,0-4.09l19.88-19.88c1.13-1.13,2.96-1.13,4.09,0l19.88,19.88c1.13,1.13,1.13,2.96,0,4.09l-19.88,19.88c-.56.56-1.31.85-2.04.85Zm-15.79-22.77l15.79,15.79,15.79-15.79-15.79-15.79-15.79,15.79Z"/>
    <path class="uuid-0442d179-0187-4c99-89d0-404c18108748" d="m379.04,136.08c-.74,0-1.48-.28-2.04-.85l-7.77-7.77c-1.13-1.13-1.13-2.96,0-4.09l7.77-7.77c1.08-1.08,3-1.08,4.09,0l7.77,7.77c1.13,1.13,1.13,2.96,0,4.09l-7.77,7.77c-.56.56-1.31.85-2.04.85Zm-3.68-10.66l3.68,3.68,3.68-3.68-3.68-3.68-3.68,3.68Z"/>
    <path class="uuid-0442d179-0187-4c99-89d0-404c18108748" d="m1020.98,608.87c-38.29,0-72.3-21.03-86.65-53.58-4.52-10.22-6.82-21.05-6.82-32.18,0-47.3,41.93-85.77,93.47-85.77,3.91,0,7.8.22,11.58.65,26.65,3.03,50.41,16.38,65.59,36.76,12.66-6.39,23.02-15.95,28.22-21.24,1.55-1.58,3.86-2.04,5.9-1.17,2.05.87,3.33,2.88,3.26,5.11h0c-.75,25.4-15.31,42.3-22.81,49.35,1.14,5.41,1.72,10.89,1.72,16.33,0,47.29-41.92,85.76-93.45,85.76Zm0-165.75c-42.17,0-87.68,30.58-87.68,79.99,0,10.32,2.13,20.36,6.32,29.84,13.43,30.46,45.36,50.14,81.36,50.14,48.34,0,87.67-35.88,87.67-79.98,0-5.55-.65-11.16-1.93-16.67-.24-1.03.1-2.11.89-2.81,6.32-5.64,20.97-21.23,22.09-45.28-6.01,6.02-17.43,16.23-31.25,22.68-1.27.6-2.78.19-3.59-.96-14.14-20.15-37.08-33.4-62.96-36.34-3.56-.41-7.23-.61-10.92-.61Zm108.76,14.14h0Z"/>
    <path class="uuid-0442d179-0187-4c99-89d0-404c18108748" d="m790.38,377.54c-26.65,0-52.01-9.99-71.41-28.13-1.46-1.37-2.89-2.79-4.26-4.21-18.38-19.3-28.49-44.52-28.49-71.05,0-28.79,11.63-55.51,32.75-75.26,19.39-18.14,44.75-28.13,71.41-28.13,36.04,0,69.03,18.11,88.25,48.45,10.4,16.43,15.9,35.43,15.9,54.93s-5.05,36.85-14.63,52.81l22.17,41.53c.98,1.84.7,4.02-.72,5.55-1.42,1.53-3.56,1.98-5.48,1.14l-42.54-18.69c-.29.22-.58.44-.8.6-18.05,13.36-39.55,20.43-62.16,20.43Zm0-200.98c-25.18,0-49.14,9.44-67.46,26.57-19.94,18.64-30.92,43.86-30.92,71.03,0,25.03,9.55,48.85,26.89,67.05,1.29,1.34,2.65,2.68,4.04,3.99,18.32,17.13,42.27,26.56,67.45,26.56,21.36,0,41.67-6.67,58.72-19.3.69-.51,2.03-1.56,2.03-1.56.84-.66,1.97-.81,2.95-.38l41.59,18.27-21.65-40.56c-.49-.91-.45-2.01.1-2.89,9.57-15.39,14.63-33.09,14.63-51.19s-5.19-36.33-15-51.84c-18.15-28.66-49.32-45.76-83.37-45.76Zm106.59,194.67h.02-.02Z"/>
    <path class="uuid-0442d179-0187-4c99-89d0-404c18108748" d="m923.09,460.15c-9.52,0-17.74-6.78-19.55-16.11-.24-1.22-.37-2.51-.37-3.81,0-10.98,8.94-19.92,19.92-19.92,9.13,0,17.06,6.16,19.29,14.99.42,1.52.63,3.2.63,4.93,0,10.98-8.94,19.92-19.92,19.92Zm0-34.06c-7.8,0-14.14,6.34-14.14,14.14,0,.92.09,1.83.26,2.69,1.29,6.64,7.12,11.45,13.88,11.45,7.79,0,14.14-6.34,14.14-14.14,0-1.22-.15-2.39-.44-3.46-1.59-6.31-7.22-10.68-13.7-10.68Z"/>
    <path class="uuid-0442d179-0187-4c99-89d0-404c18108748" d="m878.51,591.79c-1.47,0-2.93-.52-4.11-1.53l-38.57-32.84h-119.91c-.9,0-1.8-.02-2.69-.08-.75-.04-1.44-.08-2.11-.15-.4-.03-.87-.09-1.35-.15-.66-.07-1.34-.17-2.02-.28-.72-.1-1.49-.24-2.28-.41-.61-.12-1.29-.27-1.96-.44-1.64-.41-3.1-.84-4.45-1.32-.41-.13-.91-.31-1.41-.51-.89-.33-1.83-.73-2.74-1.13-.86-.38-1.71-.79-2.55-1.22-.1-.04-.19-.09-.29-.14l-.54-.29c-.3-.16-.61-.33-.9-.5-.89-.47-1.93-1.09-2.98-1.8-1.09-.7-2.02-1.36-2.87-2.03-.6-.43-1.28-.98-1.94-1.53-.4-.31-.82-.69-1.26-1.09-.67-.58-1.35-1.22-2.01-1.88l-.71-.71c-1.68-1.74-3.18-3.51-4.5-5.32-.41-.5-.84-1.13-1.27-1.77.03.04.12.14.21.24-.08-.08-.15-.16-.22-.24,0,0,0,0,0,0,0,0,0,0,0,0-.06-.08-.11-.15-.17-.23-.42-.65-.81-1.26-1.19-1.89-.42-.67-.84-1.41-1.24-2.15l-.27-.52c-.25-.48-.5-.95-.75-1.43-.03-.07-.07-.14-.1-.21-.41-.89-.76-1.63-1.07-2.4-.3-.69-.6-1.46-.9-2.24-.33-.93-.63-1.8-.89-2.68-.23-.7-.44-1.48-.63-2.24-.2-.7-.37-1.47-.52-2.24-.1-.41-.2-.92-.29-1.46-.23-1.26-.4-2.48-.53-3.66-.03-.27-.05-.6-.08-.94-.06-.51-.1-1.16-.14-1.82v-.24c-.06-.85-.08-1.69-.08-2.54v-113.81c0-14.52,6.17-28.45,16.92-38.23,1.32-1.2,2.58-2.24,3.84-3.17,2.02-1.51,4.14-2.87,6.28-4.02,2.17-1.18,4.47-2.22,6.83-3.09,1.62-.58,3.25-1.09,4.87-1.51,1.73-.45,3.38-.79,5.04-1.04,2.61-.39,5.25-.59,7.86-.59h.88c1.6,0,2.89,1.29,2.89,2.89s-1.3,2.89-2.89,2.89h-.88c-2.33,0-4.68.18-7,.53-1.46.22-2.92.52-4.46.92-1.45.37-2.91.82-4.33,1.34-2.08.77-4.13,1.7-6.07,2.75-1.9,1.02-3.78,2.22-5.59,3.58-1.11.82-2.22,1.73-3.4,2.8-9.55,8.68-15.03,21.06-15.03,33.95v113.81c0,.74.01,1.49.06,2.23,0,.06,0,.13,0,.19v.19c.03.37.06.91.12,1.43,0,.05.01.14.02.19.02.23.03.44.05.66.11,1.09.27,2.17.48,3.36.07.45.14.81.23,1.17.15.74.29,1.37.47,2.01.18.7.35,1.36.56,2,.25.84.51,1.61.79,2.38.25.64.51,1.34.81,2.01.3.75.61,1.41.92,2.07.03.06.08.16.13.28.21.41.42.81.64,1.22l.27.51c.33.61.68,1.23,1.06,1.84.35.59.69,1.12,1.04,1.64.07.1.12.17.16.22.38.57.72,1.06,1.1,1.54,1.25,1.7,2.58,3.27,4.04,4.79l.68.68c.57.57,1.15,1.12,1.76,1.65.38.35.7.63,1.04.91.63.52,1.21.99,1.81,1.43.79.62,1.56,1.17,2.54,1.8.93.63,1.79,1.15,2.61,1.58.35.2.6.33.86.47l.45.24s.09.04.14.07h0c.79.41,1.6.79,2.41,1.15.8.36,1.62.7,2.46,1.02.43.17.81.31,1.18.43,1.26.45,2.53.83,4,1.19.59.15,1.17.28,1.73.39.7.15,1.33.27,1.98.36.64.11,1.22.19,1.8.25.43.05.83.1,1.23.13.64.07,1.23.1,1.81.13.88.05,1.66.07,2.44.07h120.97c.69,0,1.35.24,1.87.69l39.38,33.53c.07.06.29.24.62.09.23-.1.34-.28.34-.53v-30.89c0-1.6,1.3-2.89,2.89-2.89h48.77c1.92,0,3.89-.13,5.83-.38,1.59-.2,3.03.91,3.24,2.5.21,1.58-.91,3.03-2.5,3.24-2.19.28-4.4.43-6.57.43h-45.88v28c0,2.51-1.42,4.73-3.7,5.78-.87.4-1.78.6-2.68.6Zm101.02-141.07c-1.6,0-2.89-1.29-2.89-2.89v-55.87c0-12.89-5.48-25.27-15.03-33.95-1.18-1.08-2.29-1.99-3.38-2.79-1.82-1.37-3.7-2.57-5.59-3.59-1.94-1.05-3.99-1.98-6.1-2.76-1.41-.51-2.87-.96-4.31-1.33-1.54-.4-3-.7-4.46-.92-2.32-.35-4.67-.53-6.99-.53h-45.5c-1.6,0-2.89-1.29-2.89-2.89s1.3-2.89,2.89-2.89h45.5c2.61,0,5.26.2,7.86.59,1.66.25,3.3.59,5.04,1.04,1.62.42,3.25.92,4.85,1.5,2.39.88,4.69,1.92,6.86,3.1,2.14,1.15,4.26,2.51,6.29,4.03,1.23.91,2.49,1.94,3.82,3.15,10.76,9.78,16.93,23.71,16.93,38.23v55.87c0,1.6-1.3,2.89-2.89,2.89Z"/>
    <path class="uuid-0442d179-0187-4c99-89d0-404c18108748" d="m654.16,612.87c-4.72,0-9.29-1.68-12.88-4.74-4.47-3.77-7.04-9.31-7.04-15.18,0-10.98,8.94-19.92,19.92-19.92,5.18,0,10.1,1.99,13.85,5.61,3.91,3.79,6.07,8.87,6.07,14.31,0,10.98-8.94,19.92-19.92,19.92Zm0-34.06c-7.8,0-14.14,6.34-14.14,14.14,0,4.17,1.82,8.09,5,10.77,2.55,2.17,5.79,3.36,9.14,3.36,7.79,0,14.14-6.34,14.14-14.14,0-3.86-1.53-7.47-4.3-10.15-2.66-2.57-6.15-3.98-9.83-3.98Z"/>
    <path class="uuid-0442d179-0187-4c99-89d0-404c18108748" d="m641.98,680.83c-1.04,0-2.07-.34-2.94-1-1.65-1.27-2.28-3.44-1.58-5.39,3.15-8.87,10.27-30.21,11.48-45.21-7.75-.17-15.44-1.18-22.9-3-27.93-6.73-52.37-24.78-67.03-49.53-.81-1.37-.36-3.15,1.01-3.96,1.38-.81,3.15-.36,3.96,1.01,13.87,23.41,36.98,40.49,63.42,46.86,7.99,1.95,16.27,2.96,24.57,2.86h.02c.78,0,1.52.31,2.07.87.55.56.85,1.32.82,2.1-.37,14.08-6.59,34.38-10.92,46.94,19.55-15.08,29.5-40.97,32.94-51.72.3-.93,1.04-1.64,1.97-1.9,14.14-3.96,27.51-11.08,38.65-20.6,14.22-12.13,24.77-27.87,30.51-45.52.49-1.52,2.12-2.35,3.64-1.86,1.52.49,2.35,2.12,1.86,3.64-6.06,18.67-17.22,35.31-32.25,48.14-11.39,9.72-24.96,17.08-39.36,21.33-4.2,12.56-15.41,39.96-37.17,55.07-.84.58-1.81.87-2.77.87Zm.92-4.46s0,0,0,0c0,0,0,0,0,0Zm-11.68-252.59c-1.35,0-2.56-.95-2.83-2.33-.31-1.57.71-3.09,2.27-3.4,11.91-2.36,24.67-2.66,36.93-.81,1.58.24,2.67,1.71,2.43,3.29-.24,1.58-1.71,2.67-3.29,2.43-11.6-1.75-23.69-1.47-34.94.77-.19.04-.38.06-.57.06Z"/>
    <path class="uuid-0442d179-0187-4c99-89d0-404c18108748" d="m480.45,647.34c-1.66,0-3.18-.93-3.94-2.49-.9-1.85-.43-4.07,1.14-5.39,17.2-14.55,22.86-43.37,24.66-57.99h-21.59c-1.6,0-2.89-1.3-2.89-2.89s1.3-2.89,2.89-2.89h24.83c.82,0,1.6.35,2.15.95.55.61.81,1.42.73,2.23-1.32,12.96-6.18,43.59-23.3,61.47,14.55-4.39,41.21-18.44,58.92-63.38.39-1,1.31-1.7,2.38-1.82,4.9-.53,9.71-1.44,14.31-2.7,38.52-10.52,65.64-44.39,67.5-84.28.07-1.45.1-2.89.1-4.35v-78.43c0-50.66-41.21-91.87-91.87-91.87h-113.05c-50.67,0-91.89,41.21-91.89,91.87v53.63c0,1.6-1.3,2.89-2.89,2.89s-2.89-1.29-2.89-2.89v-53.63c0-53.85,43.82-97.65,97.67-97.65h113.05c53.85,0,97.66,43.81,97.66,97.65v78.43c0,1.55-.04,3.09-.11,4.62-1.98,42.4-30.81,78.4-71.75,89.58-4.35,1.19-8.88,2.09-13.48,2.67-21.03,51.91-54.07,63.84-67.39,66.56-.31.07-.63.1-.93.1Zm-.23-5.76s0,0,0,0c0,0,0,0,0,0Z"/>
    <path class="uuid-0442d179-0187-4c99-89d0-404c18108748" d="m202.1,625.71c-1.67,0-3.22-.93-3.99-2.45-.88-1.73-.55-3.82.81-5.2,7.87-7.98,10.18-17.38,10.57-24.67h-9.83c-32.09,0-58.2-26.11-58.2-58.2v-41.96c0-32.09,26.11-58.2,58.2-58.2h29.7c28.7,0,53.46,21.38,57.61,49.74.23,1.58-.86,3.05-2.44,3.28-1.57.23-3.05-.86-3.28-2.44-3.73-25.54-26.04-44.8-51.89-44.8h-29.7c-28.9,0-52.42,23.52-52.42,52.42v41.96c0,28.9,23.51,52.42,52.42,52.42h12.78c1.58,0,2.87,1.27,2.89,2.86.1,7.89-1.6,18.99-9.74,28.84,11.7-2.36,31.88-9.53,34.81-30.98.16-1.16,1-2.11,2.14-2.41,6.54-1.69,12.59-4.58,18-8.59,1.28-.95,3.09-.68,4.04.6.95,1.28.68,3.09-.6,4.04-5.5,4.07-11.59,7.1-18.15,9.03-4.78,26.23-31.57,32.97-43.07,34.65-.22.03-.44.05-.66.05Z"/>
    <path class="uuid-0442d179-0187-4c99-89d0-404c18108748" d="m955.58,210.72c-1.6,0-2.89-1.29-2.89-2.89v-32.86c0-16.74-13.62-30.36-30.35-30.36h-76.88c-16.74,0-30.35,13.62-30.35,30.36,0,1.6-1.3,2.89-2.89,2.89s-2.89-1.29-2.89-2.89c0-19.93,16.21-36.14,36.14-36.14h76.88c19.92,0,36.14,16.21,36.14,36.14v32.86c0,1.6-1.3,2.89-2.89,2.89Z"/>
    <path class="uuid-0442d179-0187-4c99-89d0-404c18108748" d="m834.67,168.99c-.65,0-1.3-.22-1.84-.66-1.23-1.02-1.41-2.84-.39-4.07,3.22-3.91,7.97-6.15,13.02-6.15h30.72c1.6,0,2.89,1.29,2.89,2.89s-1.3,2.89-2.89,2.89h-30.72c-3.32,0-6.44,1.48-8.56,4.05-.57.69-1.4,1.05-2.23,1.05Z"/>
    <path class="uuid-0442d179-0187-4c99-89d0-404c18108748" d="m433.26,672.31c-1.49,0-2.96-.51-4.18-1.49l-32.85-26.49c-8.28,1.48-16.67,2.23-24.97,2.23-50.13,0-95.01-26.43-111.67-65.76-4.46-10.53-6.73-21.57-6.73-32.82,0-20.52,7.49-40.18,21.66-56.86,2.46-2.89,5.01-5.58,7.6-8.01,12.35-11.79,28.13-21.07,45.61-26.83,13.85-4.56,28.49-6.87,43.53-6.87,50.81,0,95.88,26.9,112.16,66.94,4.13,10.17,6.22,20.82,6.22,31.64s-2.1,21.52-6.24,31.7c-7.92,19.42-23.32,36.62-43.46,48.59v37.39c0,2.59-1.45,4.89-3.79,6.01-.93.44-1.91.66-2.88.66Zm-36.25-33.96c.66,0,1.3.22,1.82.64l33.88,27.33c.36.29.72.23.94.11.23-.11.5-.33.5-.79v-39.05c0-1.04.55-1.99,1.45-2.51,19.75-11.36,34.82-27.91,42.44-46.61,3.86-9.48,5.81-19.41,5.81-29.51s-1.95-19.99-5.8-29.47c-15.4-37.88-58.32-63.33-106.8-63.33-14.42,0-28.46,2.21-41.72,6.58-16.67,5.49-31.69,14.32-43.44,25.54-2.44,2.3-4.85,4.84-7.17,7.56-13.27,15.63-20.28,33.99-20.28,53.12,0,10.47,2.11,20.75,6.27,30.56,15.77,37.23,58.5,62.24,106.34,62.24,8.38,0,16.87-.8,25.22-2.37.18-.03.36-.05.53-.05Z"/>
    <path class="uuid-5ca183c7-0ad3-4443-9865-5fa2cdf067f2" d="m206.43,223.66c-.98-1.39-2.59-2.22-4.29-2.22,0,0-2.38.03-4.55.06l2.68-3.6c1.04-1.39,1.32-3.19.77-4.83l-1.44-4.25,4.25,1.44c.54.18,1.11.28,1.69.28,1.13,0,2.24-.37,3.14-1.04l3.6-2.68-.06,4.49c-.02,1.73.81,3.36,2.22,4.36l3.66,2.59-4.28,1.33c-1.65.51-2.94,1.81-3.46,3.46l-1.33,4.28-2.59-3.66Z"/>
    <path class="uuid-5ca183c7-0ad3-4443-9865-5fa2cdf067f2" d="m604.8,713.03c-.11-1-.51-1.94-1.15-2.72l-2.72-3.33,4.26-.49c1-.11,1.94-.51,2.72-1.15l3.33-2.72.49,4.27c.11,1,.51,1.94,1.15,2.72l2.72,3.33-4.26.49c-1,.11-1.94.51-2.72,1.15l-3.33,2.72-.49-4.27Z"/>
    <g>
      <path class="uuid-0442d179-0187-4c99-89d0-404c18108748" d="m642.83,235.59c-1.6,0-2.89-1.29-2.89-2.89,0-16.13-13.12-29.25-29.25-29.25-1.6,0-2.89-1.29-2.89-2.89s1.3-2.89,2.89-2.89c19.32,0,35.03,15.71,35.03,35.03,0,1.6-1.3,2.89-2.89,2.89Z"/>
      <path class="uuid-0442d179-0187-4c99-89d0-404c18108748" d="m615.27,313.62h-9.16c-15.38,0-27.89-12.51-27.89-27.89,0-1.6,1.3-2.89,2.89-2.89h59.17c1.6,0,2.89,1.29,2.89,2.89,0,15.38-12.51,27.89-27.89,27.89Zm-31.09-25c1.42,10.83,10.71,19.22,21.92,19.22h9.16c11.21,0,20.5-8.39,21.92-19.22h-53.01Z"/>
      <path class="uuid-0442d179-0187-4c99-89d0-404c18108748" d="m612.44,323.19h-3.51c-6.87,0-12.46-5.59-12.46-12.46,0-1.6,1.3-2.89,2.89-2.89h22.65c1.6,0,2.89,1.29,2.89,2.89,0,6.87-5.59,12.46-12.46,12.46Zm-9.53-9.57c1.08,2.24,3.37,3.79,6.02,3.79h3.51c2.65,0,4.94-1.55,6.02-3.79h-15.56Z"/>
      <path class="uuid-0442d179-0187-4c99-89d0-404c18108748" d="m630.31,288.62h-39.24c-1.6,0-2.89-1.29-2.89-2.89v-2.42c0-4.05-2.05-7.9-5.49-10.29-14.29-9.94-22.13-26.26-20.98-43.65,1.61-24.31,21.15-43.93,45.45-45.63,13.78-.96,26.94,3.67,37,13.05,9.93,9.26,15.62,22.35,15.62,35.91,0,16.22-8.01,31.38-21.42,40.54-3.23,2.21-5.15,5.97-5.15,10.07v2.41c0,1.6-1.3,2.89-2.89,2.89Zm-36.36-5.78h33.48c.15-5.82,2.99-11.17,7.67-14.36,11.83-8.09,18.9-21.46,18.9-35.77,0-11.97-5.02-23.52-13.78-31.68-8.88-8.28-20.47-12.37-32.66-11.52-21.43,1.5-38.66,18.8-40.08,40.24-1.02,15.35,5.9,29.76,18.51,38.52,4.86,3.38,7.81,8.8,7.96,14.57Z"/>
      <path class="uuid-0442d179-0187-4c99-89d0-404c18108748" d="m554.65,210.82c-.42,0-.84-.09-1.24-.28l-18.71-8.89c-1.44-.69-2.06-2.41-1.37-3.85.68-1.44,2.41-2.06,3.85-1.37l18.71,8.89c1.44.69,2.06,2.41,1.37,3.85-.49,1.04-1.53,1.65-2.61,1.65Z"/>
      <path class="uuid-0442d179-0187-4c99-89d0-404c18108748" d="m532.75,248.53c-1.23,0-2.37-.79-2.76-2.02-.48-1.52.36-3.15,1.88-3.63l19.75-6.26c1.52-.48,3.15.36,3.63,1.88.48,1.52-.36,3.15-1.88,3.63l-19.75,6.26c-.29.09-.58.14-.87.14Z"/>
      <path class="uuid-0442d179-0187-4c99-89d0-404c18108748" d="m553.35,226.53c-.07,0-.13,0-.2,0l-40.54-2.78c-1.59-.11-2.79-1.49-2.69-3.08.11-1.59,1.46-2.81,3.08-2.69l40.54,2.78c1.59.11,2.79,1.49,2.69,3.08-.1,1.53-1.38,2.69-2.88,2.69Z"/>
      <path class="uuid-0442d179-0187-4c99-89d0-404c18108748" d="m666.72,210.82c-1.08,0-2.12-.61-2.61-1.65-.69-1.44-.07-3.17,1.37-3.85l18.71-8.89c1.44-.69,3.17-.07,3.85,1.37.69,1.44.07,3.17-1.37,3.85l-18.71,8.89c-.4.19-.82.28-1.24.28Z"/>
      <path class="uuid-0442d179-0187-4c99-89d0-404c18108748" d="m688.62,248.53c-.29,0-.58-.04-.87-.14l-19.75-6.26c-1.52-.48-2.37-2.11-1.88-3.63.48-1.52,2.11-2.37,3.63-1.88l19.75,6.26c1.52.48,2.37,2.11,1.88,3.63-.39,1.23-1.53,2.02-2.76,2.02Z"/>
      <path class="uuid-0442d179-0187-4c99-89d0-404c18108748" d="m668.02,226.53c-1.51,0-2.78-1.17-2.88-2.69-.11-1.59,1.09-2.97,2.69-3.08l34.95-2.39c1.56-.13,2.97,1.09,3.08,2.69.11,1.59-1.1,2.97-2.69,3.08l-34.94,2.39c-.07,0-.14,0-.2,0Z"/>
    </g>
    <g>
      <path class="uuid-0442d179-0187-4c99-89d0-404c18108748" d="m772.56,526.73c-6.44,0-12.23-4.5-13.61-11.05l-21.09-100.39c-.76-3.63-.07-7.35,1.96-10.46,2.03-3.11,5.15-5.24,8.79-6.01l100.4-21.09h0c3.63-.76,7.35-.07,10.46,1.96,3.11,2.03,5.24,5.15,6.01,8.78l21.1,100.4c1.58,7.5-3.25,14.89-10.75,16.47l-100.4,21.1c-.96.2-1.92.3-2.86.3Zm79.32-143.52c-.56,0-1.13.06-1.69.18h0l-100.4,21.09c-2.12.45-3.95,1.69-5.13,3.51-1.19,1.82-1.59,3.99-1.15,6.11l21.09,100.4c.92,4.38,5.24,7.2,9.62,6.28l100.4-21.09c4.38-.92,7.2-5.24,6.28-9.62l-21.09-100.39c-.45-2.12-1.69-3.95-3.51-5.13-1.34-.87-2.86-1.32-4.42-1.32Zm-2.28-2.65h.02-.02Z"/>
      <path class="uuid-0442d179-0187-4c99-89d0-404c18108748" d="m757.1,495.69c-.73,0-1.46-.28-2.03-.83-1.14-1.12-1.15-2.95-.04-4.09l36.09-36.73c.89-.9,2.26-1.12,3.39-.54l17.92,9.24,33.13-43.58c.86-1.13,2.42-1.47,3.68-.79l24.22,13.11c1.4.76,1.93,2.51,1.17,3.92-.76,1.4-2.52,1.93-3.92,1.17l-22.04-11.93-33.1,43.54c-.85,1.12-2.38,1.46-3.63.82l-18.19-9.37-34.6,35.2c-.57.58-1.31.87-2.06.87Z"/>
      <path class="uuid-0442d179-0187-4c99-89d0-404c18108748" d="m774.83,442.9c-6.74,0-12.82-4.72-14.26-11.58h0c-1.65-7.86,3.4-15.6,11.26-17.26,7.86-1.65,15.6,3.4,17.25,11.26,1.65,7.86-3.4,15.6-11.26,17.26-1.01.21-2.01.31-3,.31Zm-8.6-12.77c.99,4.74,5.66,7.79,10.41,6.79,4.74-1,7.79-5.67,6.79-10.41-1-4.74-5.67-7.79-10.41-6.79-2.3.48-4.27,1.83-5.55,3.8-1.28,1.97-1.72,4.31-1.24,6.61h0Z"/>
    </g>
    <g>
      <path class="uuid-0442d179-0187-4c99-89d0-404c18108748" d="m983.3,338.74c-.77,0-1.5-.3-2.04-.85l-19.89-19.9c-1.13-1.13-1.13-2.96,0-4.09l44.89-44.89c.54-.54,1.28-.85,2.04-.85h0c.77,0,1.5.3,2.04.85l19.89,19.9c1.13,1.13,1.13,2.96,0,4.09l-44.89,44.89c-.54.54-1.28.85-2.04.85Zm-15.81-22.79l15.81,15.81,40.8-40.8-15.81-15.81-40.8,40.8Z"/>
      <path class="uuid-0442d179-0187-4c99-89d0-404c18108748" d="m935.88,346.37c-.74,0-1.48-.28-2.04-.85-1.13-1.13-1.13-2.96,0-4.09l7.63-7.63c1.13-1.13,2.96-1.13,4.09,0,1.13,1.13,1.13,2.96,0,4.09l-7.63,7.63c-.56.56-1.31.85-2.04.85Z"/>
      <path class="uuid-0442d179-0187-4c99-89d0-404c18108748" d="m1027.7,403.03c-.06,0-.12,0-.17,0l-21.18-1.28c-.7-.04-1.37-.34-1.87-.84l-104.42-104.42c-4.5-4.5-4.5-11.82,0-16.32l7.67-7.67c2.18-2.18,5.08-3.38,8.16-3.38s5.98,1.2,8.16,3.38l104.42,104.41c.5.5.8,1.17.84,1.87l1.28,21.18c.05.83-.26,1.63-.84,2.22-.54.54-1.28.85-2.04.85Zm-19.91-6.99l16.82,1.02-1.02-16.83-103.65-103.64c-2.17-2.18-5.97-2.17-8.14,0l-7.67,7.67c-2.24,2.24-2.24,5.9,0,8.14l103.64,103.64Z"/>
      <path class="uuid-0442d179-0187-4c99-89d0-404c18108748" d="m1011.46,294.64c-.74,0-1.48-.28-2.04-.85l-11.92-11.92c-1.13-1.13-1.13-2.96,0-4.09,1.13-1.13,2.96-1.13,4.09,0l11.92,11.92c1.13,1.13,1.13,2.96,0,4.09-.56.56-1.31.85-2.04.85Z"/>
      <path class="uuid-0442d179-0187-4c99-89d0-404c18108748" d="m997.83,299.07c-.74,0-1.48-.28-2.04-.85l-7.32-7.32c-1.13-1.13-1.13-2.96,0-4.09,1.13-1.13,2.96-1.13,4.09,0l7.32,7.32c1.13,1.13,1.13,2.96,0,4.09-.56.56-1.31.85-2.04.85Z"/>
      <path class="uuid-0442d179-0187-4c99-89d0-404c18108748" d="m988.8,308.1c-.74,0-1.48-.28-2.04-.85l-7.32-7.32c-1.13-1.13-1.13-2.96,0-4.09,1.13-1.13,2.96-1.13,4.09,0l7.32,7.32c1.13,1.13,1.13,2.96,0,4.09-.56.56-1.31.85-2.04.85Z"/>
      <path class="uuid-0442d179-0187-4c99-89d0-404c18108748" d="m984.36,321.73c-.74,0-1.48-.28-2.04-.85l-11.92-11.92c-1.13-1.13-1.13-2.96,0-4.09,1.13-1.13,2.96-1.13,4.09,0l11.92,11.92c1.13,1.13,1.13,2.96,0,4.09-.56.56-1.31.85-2.04.85Z"/>
      <path class="uuid-0442d179-0187-4c99-89d0-404c18108748" d="m907.23,302.45c-.74,0-1.48-.28-2.04-.85-1.13-1.13-1.13-2.96,0-4.09l19.89-19.9c1.13-1.13,2.96-1.13,4.09,0,1.13,1.13,1.13,2.96,0,4.09l-19.89,19.9c-.56.56-1.31.85-2.04.85Z"/>
      <path class="uuid-0442d179-0187-4c99-89d0-404c18108748" d="m1006.52,401.74c-.53,0-1.07-.15-1.56-.46-1.34-.86-1.74-2.65-.88-3.99l7.77-12.13c.23-.35.52-.65.88-.87l12.13-7.77c1.34-.86,3.13-.47,3.99.87.86,1.34.47,3.13-.88,3.99l-11.59,7.43-7.43,11.59c-.55.86-1.49,1.33-2.44,1.33Z"/>
      <path class="uuid-0442d179-0187-4c99-89d0-404c18108748" d="m1014.29,389.61c-.74,0-1.48-.28-2.04-.85l-97.11-97.11c-1.13-1.13-1.13-2.96,0-4.09,1.13-1.13,2.96-1.13,4.09,0l97.11,97.11c1.13,1.13,1.13,2.96,0,4.09-.56.56-1.31.85-2.04.85Z"/>
    </g>
    <g>
      <path class="uuid-0442d179-0187-4c99-89d0-404c18108748" d="m843.82,314.87h-103.61c-4.49,0-8.15-3.66-8.15-8.15v-72.21c0-4.49,3.66-8.15,8.15-8.15h103.61c4.49,0,8.15,3.66,8.15,8.15v72.21c0,4.49-3.66,8.15-8.15,8.15Zm-103.61-82.73c-1.31,0-2.37,1.06-2.37,2.37v72.21c0,1.31,1.06,2.37,2.37,2.37h103.61c1.31,0,2.37-1.06,2.37-2.37v-72.21c0-1.31-1.06-2.37-2.37-2.37h-103.61Z"/>
      <path class="uuid-0442d179-0187-4c99-89d0-404c18108748" d="m849.08,294.43h-114.13c-1.6,0-2.89-1.29-2.89-2.89s1.3-2.89,2.89-2.89h114.13c1.6,0,2.89,1.29,2.89,2.89s-1.3,2.89-2.89,2.89Z"/>
      <path class="uuid-0442d179-0187-4c99-89d0-404c18108748" d="m822.85,336.91h-61.67c-1.6,0-2.89-1.29-2.89-2.89s1.3-2.89,2.89-2.89h61.67c1.6,0,2.89,1.29,2.89,2.89s-1.3,2.89-2.89,2.89Z"/>
      <path class="uuid-0442d179-0187-4c99-89d0-404c18108748" d="m812.39,336.91h-40.75c-.89,0-1.73-.41-2.28-1.12-.55-.7-.74-1.62-.52-2.49l5.59-22.05c.33-1.28,1.48-2.18,2.8-2.18h29.56c1.32,0,2.48.9,2.8,2.18l5.6,22.05c.22.86.03,1.78-.52,2.49-.55.7-1.39,1.12-2.28,1.12Zm-37.04-5.78h33.32l-4.13-16.27h-25.07l-4.13,16.27Z"/>
      <path class="uuid-0442d179-0187-4c99-89d0-404c18108748" d="m788.94,301.53c0-1.7,1.38-3.07,3.07-3.07s3.07,1.38,3.07,3.07-1.38,3.07-3.07,3.07-3.07-1.38-3.07-3.07Z"/>
      <path class="uuid-0442d179-0187-4c99-89d0-404c18108748" d="m823.79,250.37c0-1.7,1.38-3.07,3.07-3.07s3.07,1.38,3.07,3.07-1.38,3.07-3.07,3.07-3.07-1.38-3.07-3.07Z"/>
      <path class="uuid-0442d179-0187-4c99-89d0-404c18108748" d="m801.14,280.07c0-1.7,1.38-3.07,3.07-3.07s3.07,1.38,3.07,3.07-1.38,3.07-3.07,3.07-3.07-1.38-3.07-3.07Z"/>
      <path class="uuid-0442d179-0187-4c99-89d0-404c18108748" d="m754.48,259.09c-5.28,0-9.59-4.3-9.59-9.59s4.3-9.59,9.59-9.59,9.59,4.3,9.59,9.59-4.3,9.59-9.59,9.59Zm0-13.39c-2.1,0-3.8,1.71-3.8,3.8s1.71,3.8,3.8,3.8,3.8-1.71,3.8-3.8-1.71-3.8-3.8-3.8Z"/>
      <path class="uuid-0442d179-0187-4c99-89d0-404c18108748" d="m836.05,242.99h-63.68c-1.6,0-2.89-1.29-2.89-2.89s1.3-2.89,2.89-2.89h63.68c1.6,0,2.89,1.29,2.89,2.89s-1.3,2.89-2.89,2.89Z"/>
      <path class="uuid-0442d179-0187-4c99-89d0-404c18108748" d="m836.05,282.96h-18.39c-1.6,0-2.89-1.29-2.89-2.89v-39.97c0-1.6,1.3-2.89,2.89-2.89h18.39c1.6,0,2.89,1.29,2.89,2.89v39.97c0,1.6-1.3,2.89-2.89,2.89Zm-15.49-5.78h12.6v-34.19h-12.6v34.19Z"/>
      <path class="uuid-0442d179-0187-4c99-89d0-404c18108748" d="m781.78,252.39c-1.6,0-2.89-1.29-2.89-2.89v-9.4c0-1.6,1.3-2.89,2.89-2.89s2.89,1.29,2.89,2.89v9.4c0,1.6-1.3,2.89-2.89,2.89Z"/>
      <path class="uuid-0442d179-0187-4c99-89d0-404c18108748" d="m792.97,249.78c-1.6,0-2.89-1.29-2.89-2.89v-6.79c0-1.6,1.3-2.89,2.89-2.89s2.89,1.29,2.89,2.89v6.79c0,1.6-1.3,2.89-2.89,2.89Z"/>
      <path class="uuid-0442d179-0187-4c99-89d0-404c18108748" d="m804.17,257.38c-1.6,0-2.89-1.29-2.89-2.89v-14.39c0-1.6,1.3-2.89,2.89-2.89s2.89,1.29,2.89,2.89v14.39c0,1.6-1.3,2.89-2.89,2.89Z"/>
      <path class="uuid-0442d179-0187-4c99-89d0-404c18108748" d="m792.01,282.96h-44.22c-1.09,0-2.1-.62-2.59-1.6-.49-.98-.38-2.15.28-3.03l10.98-14.61c.88-1.17,2.49-1.5,3.76-.77l5.04,2.91,10.77-8.09c.62-.47,1.4-.67,2.18-.54.77.12,1.46.54,1.91,1.18l14.25,19.98c.63.88.71,2.04.22,3-.5.96-1.49,1.57-2.57,1.57Zm-38.44-5.78h32.82l-9.27-13-9.92,7.46c-.93.69-2.17.77-3.18.19l-4.48-2.58-5.97,7.94Z"/>
    </g>
    <g>
      <path class="uuid-0442d179-0187-4c99-89d0-404c18108748" d="m478.96,504.83c-2.18,0-4.39-.08-6.55-.23-1.59-.11-2.79-1.49-2.68-3.08.11-1.59,1.52-2.76,3.08-2.68,2.03.14,4.1.21,6.15.21,37.7,0,71.01-23.84,83.2-59.43-12.19-35.57-45.5-59.41-83.2-59.41s-71.03,23.84-83.2,59.41c1.67,4.88,3.78,9.63,6.29,14.14.78,1.4.27,3.16-1.12,3.93-1.39.78-3.15.27-3.93-1.12-2.84-5.11-5.2-10.51-7.03-16.04-.2-.59-.2-1.22,0-1.81,12.69-38.45,48.46-64.28,88.99-64.28s76.28,25.83,88.99,64.28c.19.59.19,1.23,0,1.82-12.71,38.46-48.48,64.3-88.99,64.3Z"/>
      <path class="uuid-0442d179-0187-4c99-89d0-404c18108748" d="m478.95,464.01c-13.45,0-24.39-10.94-24.39-24.38s10.94-24.39,24.39-24.39c.5,0,.99.03,1.48.07l.22.02c1.08.07,2.03.74,2.46,1.74.43.99.27,2.14-.42,2.98-1.51,1.84-2.31,4.07-2.31,6.45,0,5.61,4.57,10.18,10.18,10.18,2.81,0,5.43-1.13,7.38-3.18.75-.79,1.87-1.09,2.91-.78,1.04.3,1.82,1.16,2.03,2.22.31,1.57.46,3.15.46,4.7,0,13.45-10.94,24.38-24.39,24.38Zm-3.5-42.66c-8.59,1.64-15.11,9.21-15.11,18.27,0,10.26,8.35,18.6,18.6,18.6s17.92-7.68,18.56-17.36c-2.14,1.04-4.5,1.59-6.95,1.59-8.8,0-15.96-7.16-15.96-15.96,0-1.76.29-3.5.85-5.14Z"/>
      <path class="uuid-0442d179-0187-4c99-89d0-404c18108748" d="m478.96,367.95c-1.6,0-2.89-1.29-2.89-2.89v-31.31c0-1.6,1.3-2.89,2.89-2.89s2.89,1.29,2.89,2.89v31.31c0,1.6-1.3,2.89-2.89,2.89Z"/>
      <path class="uuid-0442d179-0187-4c99-89d0-404c18108748" d="m459.47,369.79c-1.28,0-2.44-.85-2.79-2.14l-7.92-29.54c-.41-1.54.5-3.13,2.04-3.54,1.53-.42,3.13.5,3.54,2.04l7.92,29.54c.41,1.54-.5,3.13-2.04,3.54-.25.07-.5.1-.75.1Z"/>
      <path class="uuid-0442d179-0187-4c99-89d0-404c18108748" d="m440.24,375.45c-1,0-1.97-.52-2.51-1.45l-14.22-24.63c-.8-1.38-.33-3.15,1.06-3.95,1.39-.8,3.15-.32,3.95,1.06l14.22,24.63c.8,1.38.32,3.15-1.06,3.95-.46.26-.95.39-1.44.39Z"/>
      <path class="uuid-0442d179-0187-4c99-89d0-404c18108748" d="m498.44,369.79c-.25,0-.5-.03-.75-.1-1.54-.41-2.46-2-2.04-3.54l7.92-29.54c.41-1.54,2.01-2.46,3.54-2.04,1.54.41,2.46,2,2.04,3.54l-7.92,29.54c-.35,1.29-1.51,2.14-2.79,2.14Z"/>
      <path class="uuid-0442d179-0187-4c99-89d0-404c18108748" d="m517.67,375.46c-.49,0-.99-.12-1.44-.39-1.38-.8-1.86-2.57-1.06-3.95l14.22-24.63c.8-1.38,2.57-1.86,3.95-1.06,1.38.8,1.86,2.57,1.06,3.95l-14.22,24.63c-.54.93-1.51,1.45-2.51,1.45Z"/>
      <path class="uuid-0442d179-0187-4c99-89d0-404c18108748" d="m506.36,544.8c-1.28,0-2.44-.85-2.79-2.14l-7.92-29.55c-.41-1.54.5-3.13,2.04-3.54,1.54-.41,3.13.5,3.54,2.04l7.92,29.55c.41,1.54-.5,3.13-2.04,3.54-.25.07-.5.1-.75.1Z"/>
      <path class="uuid-0442d179-0187-4c99-89d0-404c18108748" d="m531.9,534.22c-1,0-1.97-.52-2.51-1.45l-14.22-24.63c-.8-1.38-.32-3.15,1.06-3.95,1.38-.8,3.15-.32,3.95,1.06l14.22,24.63c.8,1.38.33,3.15-1.06,3.95-.46.26-.95.39-1.44.39Z"/>
      <path class="uuid-0442d179-0187-4c99-89d0-404c18108748" d="m478.96,486.42c-25.8,0-46.79-20.99-46.79-46.79s20.99-46.79,46.79-46.79,46.79,20.99,46.79,46.79-20.99,46.79-46.79,46.79Zm0-87.8c-22.61,0-41.01,18.4-41.01,41.01s18.4,41.01,41.01,41.01,41.01-18.4,41.01-41.01-18.4-41.01-41.01-41.01Z"/>
    </g>
    <g>
      <path class="uuid-0442d179-0187-4c99-89d0-404c18108748" d="m368.23,621.66c-26.15,0-47.43-21.28-47.43-47.44s21.28-47.43,47.43-47.43,47.43,21.28,47.43,47.43-21.28,47.44-47.43,47.44Zm0-89.09c-22.97,0-41.65,18.68-41.65,41.65s18.68,41.65,41.65,41.65,41.65-18.68,41.65-41.65-18.68-41.65-41.65-41.65Z"/>
      <path class="uuid-0442d179-0187-4c99-89d0-404c18108748" d="m392.25,581.65c-26.16,0-47.44-21.28-47.44-47.43s21.28-47.44,47.44-47.44,47.43,21.28,47.43,47.44-21.28,47.43-47.43,47.43Zm0-89.09c-22.97,0-41.65,18.68-41.65,41.65s18.68,41.65,41.65,41.65,41.65-18.68,41.65-41.65-18.68-41.65-41.65-41.65Z"/>
      <path class="uuid-0442d179-0187-4c99-89d0-404c18108748" d="m342.8,582.12c-26.15,0-47.43-21.28-47.43-47.43s21.28-47.44,47.43-47.44,47.44,21.28,47.44,47.44-21.28,47.43-47.44,47.43Zm0-89.09c-22.97,0-41.65,18.68-41.65,41.65s18.68,41.65,41.65,41.65,41.65-18.68,41.65-41.65-18.68-41.65-41.65-41.65Z"/>
      <path class="uuid-0442d179-0187-4c99-89d0-404c18108748" d="m368.23,543.64c-1.64,0-2.96,1.33-2.96,2.96s1.33,2.96,2.96,2.96,2.96-1.33,2.96-2.96-1.33-2.96-2.96-2.96Z"/>
    </g>
    <g>
      <path class="uuid-0442d179-0187-4c99-89d0-404c18108748" d="m1015.04,574.5c-15.61,0-31.03-7.1-41.06-20.54-16.87-22.61-12.2-54.72,10.4-71.59,10.95-8.17,24.44-11.59,37.95-9.63,13.52,1.96,25.47,9.08,33.64,20.03,3.62,4.85,6.32,10.22,8.03,15.96.46,1.53-.41,3.14-1.94,3.6-1.53.46-3.14-.41-3.6-1.94-1.52-5.09-3.91-9.85-7.12-14.16-7.25-9.71-17.85-16.02-29.84-17.77-11.99-1.73-23.95,1.29-33.66,8.54-20.05,14.96-24.19,43.45-9.23,63.5,14.97,20.05,43.45,24.19,63.5,9.23,12.82-9.57,19.56-24.79,18.03-40.72-.15-1.59,1.01-3,2.6-3.15,1.6-.15,3,1.01,3.15,2.6,1.72,17.96-5.88,35.12-20.33,45.9-9.16,6.84-19.89,10.14-30.53,10.14Z"/>
      <g>
        <path class="uuid-0442d179-0187-4c99-89d0-404c18108748" d="m1031.97,530.58c-.71,0-1.41-.19-2.03-.55-.94-.56-1.62-1.49-1.86-2.55l-2.44-10.88c-.24-1.07-.02-2.2.59-3.11.61-.9,1.58-1.52,2.66-1.69l67.48-10.8c1.5-.24,2.94.73,3.28,2.22l1.07,4.78c.33,1.49-.55,2.98-2.02,3.41l-65.64,19.03c-.36.1-.73.16-1.1.16Zm1.76-4.37h0s0,0,0,0Zm-2.02-9l1.6,7.13,56.94-16.5-58.54,9.37Z"/>
        <path class="uuid-0442d179-0187-4c99-89d0-404c18108748" d="m1025.36,528.62c-.69,0-1.37-.24-1.9-.7-.77-.67-1.15-1.7-.96-2.7.23-1.26-.22-2.73-1.21-3.94-.65-.79-.83-1.88-.48-2.84.36-.96,1.2-1.67,2.21-1.84l5.33-1.2c.75-.17,1.53-.03,2.18.38.65.41,1.11,1.06,1.27,1.81l1.43,6.39c.35,1.56-.63,3.1-2.19,3.45l-5.01,1.13c-.22.05-.44.08-.67.08Z"/>
        <path class="uuid-0442d179-0187-4c99-89d0-404c18108748" d="m1015.74,534.97c-9.62,0-18.41-9.11-18.82-9.54-.82-.86-1.03-2.14-.53-3.21.5-1.08,1.58-1.75,2.8-1.66,4.88.28,6.67-1.13,8.96-2.94,1.81-1.43,3.86-3.04,7.22-3.8,6.12-1.36,11.52,3.26,12.72,8.45,1.11,4.79-1.25,10.46-9.02,12.32-1.11.27-2.23.39-3.33.39Zm-9.71-9.45c3.43,2.32,7.85,4.37,11.7,3.44,3.65-.87,5.33-2.79,4.73-5.39-.56-2.43-3.08-4.73-5.82-4.11-2.08.47-3.33,1.45-4.91,2.69-1.49,1.18-3.19,2.52-5.7,3.37Z"/>
      </g>
      <path class="uuid-0442d179-0187-4c99-89d0-404c18108748" d="m996.51,507.94c-2.85,0-5.66-1.3-7.5-3.75h0c-3.08-4.13-2.23-9.99,1.9-13.07,2-1.49,4.47-2.12,6.93-1.76,2.47.36,4.65,1.66,6.14,3.66,1.49,2,2.12,4.46,1.76,6.93-.36,2.47-1.66,4.65-3.65,6.14-1.67,1.25-3.63,1.85-5.57,1.85Zm-2.86-7.21c1.17,1.57,3.41,1.9,4.98.72,1.57-1.17,1.9-3.41.72-4.98-.57-.76-1.4-1.26-2.34-1.39-.95-.14-1.88.1-2.64.67-1.57,1.17-1.9,3.41-.73,4.98Z"/>
      <path class="uuid-0442d179-0187-4c99-89d0-404c18108748" d="m1024.49,503.15c-2.85,0-5.66-1.3-7.5-3.75-3.08-4.13-2.23-9.99,1.9-13.07,4.13-3.08,9.99-2.23,13.07,1.9,3.08,4.13,2.23,9.99-1.9,13.07-1.67,1.25-3.63,1.85-5.57,1.85Zm-.02-12.89c-.74,0-1.49.23-2.12.7-1.57,1.17-1.9,3.41-.72,4.98,1.17,1.57,3.4,1.9,4.98.72,1.57-1.17,1.9-3.41.72-4.98-.7-.94-1.77-1.43-2.86-1.43Z"/>
      <path class="uuid-0442d179-0187-4c99-89d0-404c18108748" d="m983.92,532.06c-.45,0-.91-.03-1.36-.1-2.47-.36-4.65-1.66-6.14-3.65h0c-3.08-4.13-2.23-9.99,1.9-13.07,4.13-3.08,9.99-2.23,13.07,1.9,3.08,4.13,2.23,9.99-1.9,13.07-1.63,1.22-3.57,1.86-5.57,1.86Zm-.02-12.9c-.74,0-1.49.23-2.12.7-1.57,1.17-1.9,3.41-.72,4.98h0c.57.76,1.4,1.26,2.34,1.39.95.14,1.88-.1,2.64-.67,1.57-1.17,1.9-3.41.73-4.98-.7-.93-1.77-1.43-2.85-1.43Z"/>
      <path class="uuid-0442d179-0187-4c99-89d0-404c18108748" d="m997.42,558.91c-2.85,0-5.66-1.3-7.5-3.75-3.08-4.12-2.23-9.99,1.9-13.07,2-1.49,4.47-2.11,6.93-1.76,2.47.36,4.65,1.66,6.14,3.65,3.08,4.13,2.23,9.99-1.9,13.07-1.67,1.25-3.63,1.85-5.57,1.85Zm-.02-12.89c-.76,0-1.5.24-2.12.71-1.57,1.17-1.9,3.41-.72,4.98,1.17,1.57,3.4,1.9,4.98.72,1.57-1.17,1.9-3.41.72-4.98-.57-.76-1.4-1.26-2.34-1.39-.17-.03-.35-.04-.52-.04Z"/>
      <path class="uuid-0442d179-0187-4c99-89d0-404c18108748" d="m1023.57,564.4c-2.85,0-5.66-1.3-7.49-3.75h0c-1.49-2-2.12-4.46-1.76-6.93.36-2.47,1.66-4.65,3.66-6.14,4.12-3.08,9.99-2.23,13.07,1.9,3.08,4.13,2.23,9.99-1.9,13.07-1.67,1.25-3.63,1.85-5.57,1.85Zm-.02-12.89c-.76,0-1.5.24-2.12.71-.76.57-1.26,1.4-1.39,2.34-.14.94.1,1.88.67,2.64h0c1.18,1.57,3.41,1.89,4.98.73,1.57-1.17,1.9-3.41.72-4.98-.57-.76-1.4-1.26-2.34-1.39-.17-.03-.35-.04-.52-.04Z"/>
    </g>
    <g>
      <path class="uuid-0442d179-0187-4c99-89d0-404c18108748" d="m204.96,544.3c-.97,0-1.92-.33-2.68-.94l-11.25-8.98c-.92-.73-1.5-1.83-1.6-3.01-.1-1.18.3-2.35,1.1-3.23l59.16-65.43c1.02-1.13,2.75-1.27,3.94-.32l4.94,3.94c1.19.95,1.44,2.67.56,3.92l-50.66,72.22c-.68.97-1.74,1.61-2.91,1.78-.2.03-.4.04-.6.04Zm-9.09-13.44l8.77,7,48.2-68.7-.69-.55-56.28,62.25Z"/>
      <path class="uuid-0442d179-0187-4c99-89d0-404c18108748" d="m197.58,547.37s-.09,0-.13,0c-1.01-.05-1.94-.6-2.42-1.49-.9-1.67-2.76-2.94-4.97-3.4-1.01-.21-1.83-.94-2.15-1.92-.33-.98-.11-2.05.57-2.82l4.41-5.55c.48-.6,1.17-.99,1.94-1.07.76-.08,1.53.13,2.13.61l6.6,5.27c1.25.99,1.45,2.81.46,4.06l-4.14,5.19c-.55.7-1.4,1.13-2.29,1.13Zm-2.22-9.02c.79.44,1.51.96,2.17,1.55l.15-.19-2.08-1.66-.24.31Z"/>
      <path class="uuid-0442d179-0187-4c99-89d0-404c18108748" d="m174.46,566.64c-3.15,0-5.35-.28-5.62-.31-1.18-.16-2.14-1.02-2.42-2.18-.28-1.15.17-2.36,1.14-3.05,5.39-3.81,6.09-6.85,6.98-10.7.65-2.81,1.38-5.99,4.04-9.33,4.74-5.94,13.37-5.64,18.45-1.64,4.32,3.4,7.11,10.28.74,18.51-5.77,7.45-16.65,8.7-23.3,8.7Zm13.92-24.4c-1.98,0-3.94.74-5.29,2.43-1.84,2.3-2.34,4.49-2.92,7.02-.65,2.82-1.35,5.89-3.87,9.12,5.52-.21,13.06-1.47,16.89-6.42,3.25-4.2,3.34-8,.26-10.42-1.39-1.1-3.24-1.73-5.07-1.73Z"/>
    </g>
  </g>
</svg>